<svg xmlns="http://www.w3.org/2000/svg" version="1.1" width="1024" height="768">
<rect x="0" y="0" width="1024" height="768" fill="#a69a91" />
<g transform="scale(4.000000) translate(0.5 0.5)">
<g transform="translate(114.651780 88.302997) rotate(103.759744) scale(43.827631 77.158133)"><ellipse fill="#000000" fill-opacity="0.501961" cx="0" cy="0" rx="1" ry="1" /></g>
<ellipse fill="#fffffd" fill-opacity="0.501961" cx="116" cy="17" rx="255" ry="28" />
<polygon fill="#000000" fill-opacity="0.501961" points="232,153 246,88 176,67" />
<polygon fill="#1d1614" fill-opacity="0.501961" points="189,98 28,102 124,22" />
<ellipse fill="#e8d3bf" fill-opacity="0.501961" cx="82" cy="191" rx="74" ry="74" />
<polygon fill="#fffff2" fill-opacity="0.501961" points="88,-16 -7,-9 -9,137" />
<g transform="translate(217.516599 54.374329) rotate(93.225067) scale(21.827130 68.735520)"><ellipse fill="#f6efe6" fill-opacity="0.501961" cx="0" cy="0" rx="1" ry="1" /></g>
<g transform="translate(175 138) rotate(99) scale(15 74)"><rect fill="#240000" fill-opacity="0.501961" x="-0.5" y="-0.5" width="1" height="1" /></g>
<g transform="translate(230 179) rotate(356) scale(149 61)"><rect fill="#f5e4d5" fill-opacity="0.501961" x="-0.5" y="-0.5" width="1" height="1" /></g>
<g transform="translate(179.179946 112.040117) rotate(256.983813) scale(10.092550 32.491348)"><ellipse fill="#e1ddc1" fill-opacity="0.501961" cx="0" cy="0" rx="1" ry="1" /></g>
<g transform="translate(217.990744 96.487607) rotate(311.259257) scale(15.307859 37.340119)"><ellipse fill="#121623" fill-opacity="0.501961" cx="0" cy="0" rx="1" ry="1" /></g>
<g transform="translate(54.647539 104.038766) rotate(218.068840) scale(37.361993 23.351775)"><ellipse fill="#876e5e" fill-opacity="0.501961" cx="0" cy="0" rx="1" ry="1" /></g>
<polygon fill="#e1d5ca" fill-opacity="0.501961" points="271.000000,44.868265,245.121938,207.000000,242.547556,96.523330,128.268102,-16.000000" />
<g transform="translate(70.412045 69.563119) rotate(202.386306) scale(31.321860 20.016600)"><ellipse fill="#0f151d" fill-opacity="0.501961" cx="0" cy="0" rx="1" ry="1" /></g>
<polygon fill="#11171f" fill-opacity="0.501961" points="142.367417,33.955607,145.564078,62.285841,82.844369,60.176092,123.052837,32.361873" />
<g transform="translate(34.900919 186.021298) rotate(258.454307) scale(30.994359 37.754786)"><ellipse fill="#e9dbce" fill-opacity="0.501961" cx="0" cy="0" rx="1" ry="1" /></g>
<rect fill="#ece4d7" fill-opacity="0.501961" x="2" y="0" width="176" height="32" />
<polygon fill="#573c2f" fill-opacity="0.501961" points="236.757011,151.181330,190.277500,149.389193,153.666805,124.282355,236.268581,142.056007" />
<g transform="translate(165.729684 93.665895) rotate(248.703700) scale(13.109538 30.173148)"><ellipse fill="#120e17" fill-opacity="0.501961" cx="0" cy="0" rx="1" ry="1" /></g>
<ellipse fill="#babba5" fill-opacity="0.501961" cx="189" cy="114" rx="20" ry="20" />
<g transform="translate(229.085649 116.815485) rotate(257.634243) scale(7.256344 25.718193)"><ellipse fill="#202027" fill-opacity="0.501961" cx="0" cy="0" rx="1" ry="1" /></g>
<g transform="translate(18.215395 137.418018) rotate(55.860509) scale(15.798763 49.944640)"><ellipse fill="#a17666" fill-opacity="0.501961" cx="0" cy="0" rx="1" ry="1" /></g>
<g transform="translate(132.595140 155.538327) rotate(289.913681) scale(21.742577 71.575828)"><ellipse fill="#bdad9e" fill-opacity="0.501961" cx="0" cy="0" rx="1" ry="1" /></g>
<g transform="translate(122 79) rotate(67) scale(27 53)"><rect fill="#6a5443" fill-opacity="0.501961" x="-0.5" y="-0.5" width="1" height="1" /></g>
<g transform="translate(1.583403 114.146216) rotate(335.521830) scale(32.105212 12.930052)"><ellipse fill="#d9d1be" fill-opacity="0.501961" cx="0" cy="0" rx="1" ry="1" /></g>
<g transform="translate(17.031033 45.158121) rotate(109.472533) scale(43.489073 30.448211)"><ellipse fill="#ebe1d5" fill-opacity="0.501961" cx="0" cy="0" rx="1" ry="1" /></g>
<polygon fill="#e8d7cd" fill-opacity="0.501961" points="241,184 271,114 237,120" />
<polygon fill="#b7a696" fill-opacity="0.501961" points="41.591190,142.397477,182.806511,154.588511,96.496737,119.011315,68.313481,108.621424" />
<g transform="translate(179.590169 43.046560) rotate(186.310281) scale(19.323023 32.929908)"><ellipse fill="#ded7ce" fill-opacity="0.501961" cx="0" cy="0" rx="1" ry="1" /></g>
<g transform="translate(91 44) rotate(173) scale(24 9)"><rect fill="#c2bfaf" fill-opacity="0.501961" x="-0.5" y="-0.5" width="1" height="1" /></g>
<g transform="translate(252.898187 29.592194) rotate(255.045427) scale(119.405921 30.711963)"><ellipse fill="#cfc3b6" fill-opacity="0.501961" cx="0" cy="0" rx="1" ry="1" /></g>
<rect fill="#4a3128" fill-opacity="0.501961" x="46" y="100" width="124" height="11" />
<polygon fill="#a4a781" fill-opacity="0.501961" points="188,128 149,107 126,114" />
<g transform="translate(226 111) rotate(31) scale(28 29)"><rect fill="#13141e" fill-opacity="0.501961" x="-0.5" y="-0.5" width="1" height="1" /></g>
<rect fill="#c0bdac" fill-opacity="0.501961" x="188" y="98" width="21" height="32" />
<polygon fill="#533831" fill-opacity="0.501961" points="171,124 134,134 226,149" />
<polygon fill="#18181f" fill-opacity="0.501961" points="141,103 152,69 223,91" />
<polygon fill="#8c8b87" fill-opacity="0.501961" points="148.747493,58.289897,170.505352,77.157044,170.890114,71.130933,128.473954,13.760662" />
<g transform="translate(147.787433 129.563714) rotate(16.385957) scale(43.990953 9.318905)"><ellipse fill="#5d3e33" fill-opacity="0.501961" cx="0" cy="0" rx="1" ry="1" /></g>
<polygon fill="#6e6e68" fill-opacity="0.501961" points="70,46 48,50 81,34" />
<polygon fill="#62554b" fill-opacity="0.501961" points="19,86 60,120 76,81" />
<g transform="translate(37.514366 30.612867) rotate(333.081912) scale(76.786488 24.119861)"><ellipse fill="#e7dfd5" fill-opacity="0.501961" cx="0" cy="0" rx="1" ry="1" /></g>
<polygon fill="#bebcb0" fill-opacity="0.501961" points="27.013416,86.793125,37.801331,68.370258,43.379257,77.762143,51.430825,77.488961" />
<rect fill="#c9cfb4" fill-opacity="0.501961" x="197" y="127" width="22" height="10" />
<polygon fill="#cec0b2" fill-opacity="0.501961" points="136,142 191,206 204,150" />
<polygon fill="#674d42" fill-opacity="0.501961" points="237.252423,131.470604,234.256824,147.407885,204.462460,152.336876,198.306917,141.917376" />
<rect fill="#beb5ac" fill-opacity="0.501961" x="207" y="68" width="17" height="11" />
<g transform="translate(71 63) rotate(374) scale(31 28)"><rect fill="#141a23" fill-opacity="0.501961" x="-0.5" y="-0.5" width="1" height="1" /></g>
<polygon fill="#62625f" fill-opacity="0.501961" points="116.063692,24.040772,108.814785,31.305596,156.516757,52.190209,113.493365,26.448579" />
<polygon fill="#a7a59b" fill-opacity="0.501961" points="30.170450,83.208827,39.295288,47.609719,57.957289,53.903058,42.540716,58.274418" />
<g transform="translate(255.000000 33.260748) rotate(76.920212) scale(71.714415 14.018238)"><ellipse fill="#c3b6a9" fill-opacity="0.501961" cx="0" cy="0" rx="1" ry="1" /></g>
<rect fill="#dfd6ce" fill-opacity="0.501961" x="158" y="26" width="85" height="38" />
<polygon fill="#50362a" fill-opacity="0.501961" points="98.946108,117.365561,91.637926,82.495037,143.140091,95.279371,117.672881,129.646380" />
<ellipse fill="#918c85" fill-opacity="0.501961" cx="193" cy="69" rx="20" ry="3" />
<polygon fill="#6a6667" fill-opacity="0.501961" points="222.498327,79.676636,258.543253,124.042794,249.570074,112.521194,235.146163,78.117449" />
<g transform="translate(119.722068 4.338599) rotate(338.701523) scale(13.108124 31.987970)"><ellipse fill="#e1dcd0" fill-opacity="0.501961" cx="0" cy="0" rx="1" ry="1" /></g>
<rect fill="#1e1e23" fill-opacity="0.501961" x="108" y="38" width="30" height="23" />
<rect fill="#523932" fill-opacity="0.501961" x="152" y="123" width="6" height="24" />
<g transform="translate(109.118006 109.479809) rotate(21.039279) scale(76.345026 2.947706)"><ellipse fill="#685548" fill-opacity="0.501961" cx="0" cy="0" rx="1" ry="1" /></g>
<g transform="translate(88.659556 96.520368) rotate(22.205811) scale(36.075616 2.222966)"><ellipse fill="#1b1d17" fill-opacity="0.501961" cx="0" cy="0" rx="1" ry="1" /></g>
<g transform="translate(203 107) rotate(31) scale(15 15)"><rect fill="#aaa696" fill-opacity="0.501961" x="-0.5" y="-0.5" width="1" height="1" /></g>
<polygon fill="#2a262b" fill-opacity="0.501961" points="224.649810,83.230515,238.867431,137.328477,219.685019,129.236667,214.624829,160.996920" />
<rect fill="#bfc5ad" fill-opacity="0.501961" x="170" y="111" width="22" height="16" />
<ellipse fill="#27272b" fill-opacity="0.501961" cx="163" cy="102" rx="2" ry="23" />
<ellipse fill="#e5e0d7" fill-opacity="0.501961" cx="95" cy="14" rx="21" ry="29" />
<g transform="translate(70.485490 171.150426) rotate(305.563693) scale(17.760708 48.541280)"><ellipse fill="#cfbeb1" fill-opacity="0.501961" cx="0" cy="0" rx="1" ry="1" /></g>
<polygon fill="#8d8b82" fill-opacity="0.501961" points="124.755526,39.522310,106.145816,35.529011,68.845254,47.467558,64.116480,41.438414" />
<ellipse fill="#d4c7bc" fill-opacity="0.501961" cx="234" cy="173" rx="39" ry="22" />
<g transform="translate(190 80) rotate(174) scale(12 18)"><rect fill="#21222c" fill-opacity="0.501961" x="-0.5" y="-0.5" width="1" height="1" /></g>
<g transform="translate(253.012511 102.791194) rotate(252.420916) scale(28.974007 4.139799)"><ellipse fill="#e4d5ca" fill-opacity="0.501961" cx="0" cy="0" rx="1" ry="1" /></g>
<polygon fill="#705c4e" fill-opacity="0.501961" points="125,63 134,88 114,90" />
<polygon fill="#cfc7b8" fill-opacity="0.501961" points="22.002273,101.061589,36.518175,99.154068,-16.000000,140.737179,22.034665,72.130538" />
<g transform="translate(9.196811 186.426604) rotate(90.130631) scale(12.251994 37.141860)"><ellipse fill="#e2d7c9" fill-opacity="0.501961" cx="0" cy="0" rx="1" ry="1" /></g>
<polygon fill="#70615a" fill-opacity="0.501961" points="199,94 175,98 165,110" />
<polygon fill="#0a0c13" fill-opacity="0.501961" points="80,92 87,68 100,103" />
<polygon fill="#2d2c2f" fill-opacity="0.501961" points="142.359325,53.163141,210.237144,104.521821,122.420147,58.538146,151.084482,42.916776" />
<polygon fill="#8d8984" fill-opacity="0.501961" points="133.415578,45.408744,145.655754,39.843534,147.926986,35.296790,151.985896,23.893799" />
<polygon fill="#25262c" fill-opacity="0.501961" points="202.500064,113.000687,219.653649,127.902576,219.518062,132.935693,247.002545,109.939053" />
<polygon fill="#1d1d26" fill-opacity="0.501961" points="229,130 229,82 195,76" />
<polygon fill="#130d11" fill-opacity="0.501961" points="160,81 133,107 143,110" />
<polygon fill="#5d4c3e" fill-opacity="0.501961" points="63,79 65,104 113,124" />
<g transform="translate(86 127) rotate(288) scale(22 42)"><rect fill="#b1a18f" fill-opacity="0.501961" x="-0.5" y="-0.5" width="1" height="1" /></g>
<polygon fill="#6d544c" fill-opacity="0.501961" points="238.383175,148.721045,218.390167,145.646959,166.333615,128.438248,236.387333,141.432693" />
<polygon fill="#a58678" fill-opacity="0.501961" points="34.079743,97.475824,60.336976,115.369029,9.037811,165.825572,-16.000000,188.682749" />
<ellipse fill="#d8c8bc" fill-opacity="0.501961" cx="223" cy="164" rx="10" ry="16" />
<polygon fill="#d8d1c3" fill-opacity="0.501961" points="64,30 74,22 88,49" />
<polygon fill="#252526" fill-opacity="0.501961" points="61.449626,87.108671,107.981532,75.830683,77.942188,46.177123,47.774132,85.808028" />
<g transform="translate(130.357951 160.737491) rotate(223.656751) scale(25.075972 27.150729)"><ellipse fill="#c0b0a2" fill-opacity="0.501961" cx="0" cy="0" rx="1" ry="1" /></g>
<g transform="translate(192.132755 24.058582) rotate(143.533466) scale(22.081161 58.679238)"><ellipse fill="#ddd3c8" fill-opacity="0.501961" cx="0" cy="0" rx="1" ry="1" /></g>
<polygon fill="#1d2129" fill-opacity="0.501961" points="39.759637,72.982251,81.887447,39.585696,76.186049,52.666053,106.317814,64.882784" />
<polygon fill="#696764" fill-opacity="0.501961" points="123,31 138,40 147,36" />
<ellipse fill="#e8e0d3" fill-opacity="0.501961" cx="0" cy="71" rx="24" ry="31" />
<polygon fill="#5d473e" fill-opacity="0.501961" points="198.734837,150.416009,217.031506,151.821553,215.385210,140.203519,155.372377,121.459722" />
<g transform="translate(33.511919 93.620181) rotate(219.917353) scale(14.864736 4.894285)"><ellipse fill="#6b635c" fill-opacity="0.501961" cx="0" cy="0" rx="1" ry="1" /></g>
<g transform="translate(199 120) rotate(15) scale(23 1)"><rect fill="#dccfc1" fill-opacity="0.501961" x="-0.5" y="-0.5" width="1" height="1" /></g>
<path stroke="#705f50" stroke-opacity="0.501961" fill="none" d="M 199.398392 116.498981 Q 58.799670 104.604190, 50.528564 82.140454" stroke-width="0.500000" />
<polygon fill="#ddd7cc" fill-opacity="0.501961" points="142.480646,-4.977831,164.420274,39.732504,138.438456,42.885571,218.173237,-15.599856" />
<ellipse fill="#c7b8ab" fill-opacity="0.501961" cx="164" cy="180" rx="30" ry="36" />
<g transform="translate(150 67) rotate(53) scale(50 6)"><rect fill="#18171e" fill-opacity="0.501961" x="-0.5" y="-0.5" width="1" height="1" /></g>
<g transform="translate(239 89) rotate(104) scale(15 5)"><rect fill="#9c9692" fill-opacity="0.501961" x="-0.5" y="-0.5" width="1" height="1" /></g>
<rect fill="#635549" fill-opacity="0.501961" x="216" y="132" width="21" height="12" />
<ellipse fill="#e1cfc5" fill-opacity="0.501961" cx="255" cy="138" rx="18" ry="18" />
<polygon fill="#413d3f" fill-opacity="0.501961" points="227.129861,95.159106,248.249138,108.895492,229.747499,133.475861,243.790736,94.165551" />
<g transform="translate(222 133) rotate(158) scale(3 1)"><rect fill="#e9e6d5" fill-opacity="0.501961" x="-0.5" y="-0.5" width="1" height="1" /></g>
<polygon fill="#d8cec4" fill-opacity="0.501961" points="193.330530,-9.374635,253.874026,110.249658,249.432334,73.456365,232.841360,7.132394" />
<polygon fill="#6a5e57" fill-opacity="0.501961" points="39.467626,83.451242,78.663400,96.964003,115.949512,110.285845,25.563625,93.647321" />
<ellipse fill="#3d4044" fill-opacity="0.501961" cx="91" cy="50" rx="4" ry="4" />
<polygon fill="#b09381" fill-opacity="0.501961" points="144,109 167,109 146,118" />
<g transform="translate(172 118) rotate(174) scale(17 9)"><rect fill="#b8bea7" fill-opacity="0.501961" x="-0.5" y="-0.5" width="1" height="1" /></g>
<path stroke="#443c31" stroke-opacity="0.501961" fill="none" d="M 95.706753 104.591389 Q 144.356413 74.253160, 198.711337 109.470647" stroke-width="0.500000" />
<g transform="translate(114 32) rotate(248) scale(13 7)"><rect fill="#7b7974" fill-opacity="0.501961" x="-0.5" y="-0.5" width="1" height="1" /></g>
<g transform="translate(107.748170 45.535140) rotate(209.494210) scale(1.000000 24.322740)"><ellipse fill="#333538" fill-opacity="0.501961" cx="0" cy="0" rx="1" ry="1" /></g>
<path stroke="#2c3239" stroke-opacity="0.501961" fill="none" d="M 74.553044 49.215845 Q 40.948900 70.782440, 25.060928 84.522736" stroke-width="0.500000" />
<polygon fill="#b8b3a4" fill-opacity="0.501961" points="211.346266,109.669259,193.824835,92.809878,195.551765,114.992812,211.496566,106.605544" />
<rect fill="#2a1a1e" fill-opacity="0.501961" x="226" y="130" width="9" height="6" />
<g transform="translate(36.638685 148.461201) rotate(139.684378) scale(28.842219 7.220720)"><ellipse fill="#bfb3a4" fill-opacity="0.501961" cx="0" cy="0" rx="1" ry="1" /></g>
<polygon fill="#d9cdbe" fill-opacity="0.501961" points="208.394837,134.671141,204.645510,130.164120,205.038618,122.763361,217.004396,132.125016" />
<polygon fill="#e5dfd3" fill-opacity="0.501961" points="139,31 125,6 119,27" />
<polygon fill="#ded7cf" fill-opacity="0.501961" points="133.665519,-11.059873,157.709656,54.121049,193.952436,71.185941,194.212346,33.229081" />
<polygon fill="#d1c3b7" fill-opacity="0.501961" points="269.943213,155.837768,237.283127,207.000000,157.850099,141.384421,182.377464,149.588992" />
<rect fill="#29272d" fill-opacity="0.501961" x="171" y="77" width="22" height="20" />
<polygon fill="#cbc5b3" fill-opacity="0.501961" points="26,85 44,80 34,77" />
<rect fill="#080a0e" fill-opacity="0.501961" x="211" y="124" width="6" height="3" />
<polygon fill="#6f6e6c" fill-opacity="0.501961" points="195.162880,69.013780,179.878690,71.248899,177.064938,70.657570,181.087098,77.421584" />
<path stroke="#444742" stroke-opacity="0.501961" fill="none" d="M 232.408500 129.089506 Q 196.823420 99.439639, 178.742079 94.083855" stroke-width="0.500000" />
<polygon fill="#987769" fill-opacity="0.501961" points="37.477284,110.133826,73.278478,110.408973,28.309787,144.031958,49.538723,116.930020" />
<polygon fill="#71655d" fill-opacity="0.501961" points="63.509450,92.712545,34.421920,80.338532,67.970153,76.244927,20.319050,92.081118" />
<g transform="translate(197 128) rotate(198) scale(2 13)"><rect fill="#6a9266" fill-opacity="0.501961" x="-0.5" y="-0.5" width="1" height="1" /></g>
<polygon fill="#533a27" fill-opacity="0.501961" points="148.247326,89.656325,148.663729,70.872188,135.752985,81.792871,130.109810,110.357686" />
<polygon fill="#24242c" fill-opacity="0.501961" points="200,71 240,100 199,92" />
<polygon fill="#b19388" fill-opacity="0.501961" points="-16.000000,162.158164,-1.982396,141.028952,29.409934,133.469189,3.005539,162.588750" />
<rect fill="#a69f97" fill-opacity="0.501961" x="117" y="16" width="2" height="13" />
<polygon fill="#4b3530" fill-opacity="0.501961" points="188,147 155,129 155,140" />
<g transform="translate(198.351926 111.369943) rotate(241.662199) scale(4.293675 5.337181)"><ellipse fill="#d9d0c1" fill-opacity="0.501961" cx="0" cy="0" rx="1" ry="1" /></g>
<polygon fill="#343126" fill-opacity="0.501961" points="35.775982,85.882192,79.573806,85.045811,75.462741,99.014782,69.046456,76.857355" />
<ellipse fill="#b7a898" fill-opacity="0.501961" cx="116" cy="143" rx="22" ry="14" />
<g transform="translate(172 118) rotate(374) scale(29 1)"><rect fill="#5f8760" fill-opacity="0.501961" x="-0.5" y="-0.5" width="1" height="1" /></g>
<polygon fill="#cec8ba" fill-opacity="0.501961" points="59.380264,34.679189,98.276144,45.359434,97.850986,45.153686,106.762153,40.041279" />
<g transform="translate(96.921264 61.968407) rotate(202.887648) scale(3.132553 19.148307)"><ellipse fill="#181b20" fill-opacity="0.501961" cx="0" cy="0" rx="1" ry="1" /></g>
<polygon fill="#372620" fill-opacity="0.501961" points="143.896274,127.737595,85.919042,105.125399,122.993625,122.095032,136.108353,127.048567" />
<polygon fill="#574640" fill-opacity="0.501961" points="59.904746,94.119061,23.690866,96.626077,96.954297,116.762751,77.972058,109.757883" />
<g transform="translate(150 51) rotate(154) scale(1 23)"><rect fill="#64625f" fill-opacity="0.501961" x="-0.5" y="-0.5" width="1" height="1" /></g>
<ellipse fill="#59141e" fill-opacity="0.501961" cx="153" cy="110" rx="2" ry="2" />
<polygon fill="#588f54" fill-opacity="0.501961" points="135.750359,116.106916,134.399093,130.113337,138.801405,118.444980,164.063141,116.365260" />
<polygon fill="#1b1e24" fill-opacity="0.501961" points="56.029842,51.730132,40.030982,79.407039,79.945899,52.688007,85.335482,99.876827" />
<polygon fill="#dbd3c7" fill-opacity="0.501961" points="41.015071,52.504102,33.557869,78.204651,28.338713,41.747988,74.968967,25.188591" />
<g transform="translate(232.126636 143.370591) rotate(66.944926) scale(7.707066 6.411592)"><ellipse fill="#72675c" fill-opacity="0.501961" cx="0" cy="0" rx="1" ry="1" /></g>
<polygon fill="#28272c" fill-opacity="0.501961" points="244.943216,99.896266,212.315952,109.097721,206.987012,110.092682,211.821367,128.629899" />
<polygon fill="#5c524c" fill-opacity="0.501961" points="118,64 144,74 106,78" />
<g transform="translate(237 71) rotate(150) scale(29 7)"><rect fill="#d6cec8" fill-opacity="0.501961" x="-0.5" y="-0.5" width="1" height="1" /></g>
<polygon fill="#e0d0c4" fill-opacity="0.501961" points="189,127 201,124 181,121" />
<polygon fill="#beb6a7" fill-opacity="0.501961" points="35.512990,102.963410,-16.000000,129.621031,27.065806,97.360150,19.711188,87.294195" />
<ellipse fill="#89837e" fill-opacity="0.501961" cx="213" cy="77" rx="9" ry="3" />
<polygon fill="#4d3c2f" fill-opacity="0.501961" points="95,91 126,75 91,80" />
<rect fill="#848c8f" fill-opacity="0.501961" x="109" y="73" width="3" height="5" />
<path stroke="#3e3c42" stroke-opacity="0.501961" fill="none" d="M 251.360678 87.252847 Q 227.127864 85.767889, 162.441051 80.640991" stroke-width="0.500000" />
<polygon fill="#d7c8bd" fill-opacity="0.501961" points="221.781789,162.747674,271.000000,161.240832,234.459304,129.574612,266.629304,126.241654" />
<polygon fill="#e7e0d6" fill-opacity="0.501961" points="113.491138,-1.072200,116.173198,31.139910,85.036196,-16.000000,-16.000000,71.419708" />
<polygon fill="#28262c" fill-opacity="0.501961" points="202.024522,76.234267,179.548191,76.106050,163.834068,107.935675,210.162957,76.903380" />
<path stroke="#554f4c" stroke-opacity="0.501961" fill="none" d="M 61.822920 92.430342 Q 48.148811 51.661604, 32.131037 47.018920" stroke-width="0.500000" />
<polygon fill="#9c978f" fill-opacity="0.501961" points="41.985329,53.632141,41.721030,48.198585,54.384081,48.434383,50.189760,55.817225" />
<polygon fill="#735145" fill-opacity="0.501961" points="160.003552,132.089523,155.153038,121.424160,131.908836,115.793192,116.566963,113.914411" />
<g transform="translate(122.258545 149.132091) rotate(344.516425) scale(30.798884 6.689721)"><ellipse fill="#bfafa0" fill-opacity="0.501961" cx="0" cy="0" rx="1" ry="1" /></g>
<polygon fill="#60645a" fill-opacity="0.501961" points="170.081301,88.975040,198.121641,121.984375,197.198000,119.335741,155.305071,73.009536" />
<polygon fill="#c4c1ac" fill-opacity="0.501961" points="178.821366,123.831550,194.190353,129.009046,169.137500,125.265932,192.764673,132.141020" />
<g transform="translate(91 110) rotate(296) scale(1 60)"><rect fill="#745a53" fill-opacity="0.501961" x="-0.5" y="-0.5" width="1" height="1" /></g>
<polygon fill="#9a9189" fill-opacity="0.501961" points="238,112 245,115 248,113" />
<path stroke="#2d2c30" stroke-opacity="0.501961" fill="none" d="M 162.890698 124.352638 Q 167.551669 69.297816, 131.726553 37.719098" stroke-width="0.500000" />
<polygon fill="#424147" fill-opacity="0.501961" points="221.759415,86.884164,236.489635,78.285932,237.099030,76.371909,207.604286,94.960278" />
<polygon fill="#e5ded5" fill-opacity="0.501961" points="56,14 88,43 105,13" />
<polygon fill="#d5c8be" fill-opacity="0.501961" points="245.506619,80.337948,232.086251,82.754965,259.679178,51.816146,271.000000,120.940556" />
<polygon fill="#2a282c" fill-opacity="0.501961" points="251.656086,112.994409,240.798493,107.203370,194.353790,91.938615,229.625405,113.154772" />
<g transform="translate(197.198652 142.160233) rotate(291.152777) scale(1.000000 16.017451)"><ellipse fill="#362f2a" fill-opacity="0.501961" cx="0" cy="0" rx="1" ry="1" /></g>
<rect fill="#2b2b33" fill-opacity="0.501961" x="233" y="99" width="11" height="15" />
<path stroke="#2b2f33" stroke-opacity="0.501961" fill="none" d="M 88.297938 97.550362 Q 55.376889 43.151932, 21.836379 90.650133" stroke-width="0.500000" />
<g transform="translate(162.265624 62.743366) rotate(277.032516) scale(2.765141 8.986791)"><ellipse fill="#adaaa1" fill-opacity="0.501961" cx="0" cy="0" rx="1" ry="1" /></g>
<path stroke="#484543" stroke-opacity="0.501961" fill="none" d="M 166.057169 55.149565 Q 116.864513 72.487403, 80.718872 40.170304" stroke-width="0.500000" />
<polygon fill="#513f37" fill-opacity="0.501961" points="156.533367,141.797205,154.807807,148.429134,166.286819,133.405154,111.104041,124.652596" />
<g transform="translate(180 108) rotate(164) scale(6 1)"><rect fill="#f3ddd3" fill-opacity="0.501961" x="-0.5" y="-0.5" width="1" height="1" /></g>
<ellipse fill="#8b877f" fill-opacity="0.501961" cx="66" cy="44" rx="1" ry="6" />
<ellipse fill="#4b6f45" fill-opacity="0.501961" cx="198" cy="103" rx="2" ry="2" />
<polygon fill="#c4bcaa" fill-opacity="0.501961" points="170.623672,124.861178,211.552661,136.036655,218.786924,137.219068,207.026861,136.562347" />
<g transform="translate(224 114) rotate(180) scale(19 22)"><rect fill="#1b1b23" fill-opacity="0.501961" x="-0.5" y="-0.5" width="1" height="1" /></g>
<polygon fill="#474646" fill-opacity="0.501961" points="91,51 93,42 95,57" />
<polygon fill="#28252a" fill-opacity="0.501961" points="164.096933,81.015454,187.357448,105.159223,173.631170,80.516790,238.641457,108.907454" />
<ellipse fill="#598c58" fill-opacity="0.501961" cx="175" cy="124" rx="2" ry="2" />
<rect fill="#645b56" fill-opacity="0.501961" x="24" y="96" width="29" height="2" />
<g transform="translate(36 63) rotate(194) scale(1 5)"><rect fill="#89847b" fill-opacity="0.501961" x="-0.5" y="-0.5" width="1" height="1" /></g>
<polygon fill="#d2cbbe" fill-opacity="0.501961" points="15.366530,81.039609,35.653032,73.987591,-4.954852,101.678626,27.652615,104.807664" />
<polygon fill="#897b71" fill-opacity="0.501961" points="173.853539,101.912160,204.452299,94.121484,170.794203,105.854753,182.566859,114.560392" />
<polygon fill="#333437" fill-opacity="0.501961" points="138.044725,55.312960,138.885971,37.461572,89.886153,54.165205,128.969595,33.577516" />
<g transform="translate(133 114) rotate(284) scale(1 16)"><rect fill="#a1a684" fill-opacity="0.501961" x="-0.5" y="-0.5" width="1" height="1" /></g>
<polygon fill="#bdb7a9" fill-opacity="0.501961" points="89.931842,46.512531,63.060438,34.277111,63.660410,41.332738,39.303938,36.291444" />
<path stroke="#312b28" stroke-opacity="0.501961" fill="none" d="M 189.259549 69.538817 Q 162.287519 146.176584, 71.308960 86.838116" stroke-width="0.500000" />
<g transform="translate(234 90) rotate(190) scale(5 7)"><rect fill="#514b4e" fill-opacity="0.501961" x="-0.5" y="-0.5" width="1" height="1" /></g>
<polygon fill="#a59e91" fill-opacity="0.501961" points="195.313841,112.223764,210.027538,105.743188,200.625060,120.483191,215.260574,102.462444" />
<polygon fill="#1b1b1e" fill-opacity="0.501961" points="94,49 145,49 117,63" />
<polygon fill="#e0d8d0" fill-opacity="0.501961" points="143,-1 193,45 163,64" />
<g transform="translate(144 109) rotate(-13) scale(21 1)"><rect fill="#6a434a" fill-opacity="0.501961" x="-0.5" y="-0.5" width="1" height="1" /></g>
<polygon fill="#454246" fill-opacity="0.501961" points="177.426197,97.638060,194.085582,83.445682,203.734704,72.738962,212.985449,67.076054" />
<g transform="translate(52.857523 136.613223) rotate(41.888588) scale(7.788136 13.275840)"><ellipse fill="#b9a799" fill-opacity="0.501961" cx="0" cy="0" rx="1" ry="1" /></g>
<path stroke="#707767" stroke-opacity="0.501961" fill="none" d="M 214.112061 127.005203 Q 198.842097 102.168768, 170.575718 99.348931" stroke-width="0.500000" />
<rect fill="#131519" fill-opacity="0.501961" x="75" y="85" width="12" height="11" />
<path stroke="#3f3e41" stroke-opacity="0.501961" fill="none" d="M 108.096162 38.309150 Q 147.685369 53.044825, 173.857721 76.486308" stroke-width="0.500000" />
<g transform="translate(150 37) rotate(-15) scale(1 25)"><rect fill="#b8b2ab" fill-opacity="0.501961" x="-0.5" y="-0.5" width="1" height="1" /></g>
<g transform="translate(36.367028 79.341049) rotate(222.413603) scale(1.000000 8.974396)"><ellipse fill="#cbc9b7" fill-opacity="0.501961" cx="0" cy="0" rx="1" ry="1" /></g>
<rect fill="#d2cac0" fill-opacity="0.501961" x="213" y="76" width="21" height="2" />
<g transform="translate(198 68) rotate(-44) scale(4 7)"><rect fill="#958e88" fill-opacity="0.501961" x="-0.5" y="-0.5" width="1" height="1" /></g>
<g transform="translate(235 147) rotate(260) scale(4 3)"><rect fill="#a7ac99" fill-opacity="0.501961" x="-0.5" y="-0.5" width="1" height="1" /></g>
<polygon fill="#5b3e37" fill-opacity="0.501961" points="72.188041,105.174614,91.894402,111.378758,130.736601,132.697314,74.816037,109.811742" />
<polygon fill="#1f2228" fill-opacity="0.501961" points="50.710709,76.206421,138.618255,39.504365,65.957977,79.657134,46.241758,50.846328" />
<polygon fill="#d7cec4" fill-opacity="0.501961" points="234,16 209,75 234,64" />
<polygon fill="#422921" fill-opacity="0.501961" points="144,87 112,91 124,104" />
<polygon fill="#565255" fill-opacity="0.501961" points="213.927815,72.757528,218.179053,84.363882,217.578551,77.132924,243.540743,103.579161" />
<g transform="translate(189 107) rotate(212) scale(24 1)"><rect fill="#d3c8bb" fill-opacity="0.501961" x="-0.5" y="-0.5" width="1" height="1" /></g>
<g transform="translate(109.970821 105.835767) rotate(294.278033) scale(1.000000 20.903760)"><ellipse fill="#23231a" fill-opacity="0.501961" cx="0" cy="0" rx="1" ry="1" /></g>
<polygon fill="#3e3a35" fill-opacity="0.501961" points="109.229045,56.587518,98.422255,64.096855,95.367014,78.092143,110.899370,87.955725" />
<g transform="translate(143 117) rotate(24) scale(12 1)"><rect fill="#aab38f" fill-opacity="0.501961" x="-0.5" y="-0.5" width="1" height="1" /></g>
<ellipse fill="#c3b3a6" fill-opacity="0.501961" cx="148" cy="189" rx="22" ry="45" />
<path stroke="#849774" stroke-opacity="0.501961" fill="none" d="M 231.977227 141.583624 Q 195.916970 129.826981, 170.185644 122.786121" stroke-width="0.500000" />
<ellipse fill="#b4b4a3" fill-opacity="0.501961" cx="152" cy="103" rx="1" ry="1" />
<ellipse fill="#442e2b" fill-opacity="0.501961" cx="59" cy="78" rx="6" ry="6" />
<rect fill="#d0c9be" fill-opacity="0.501961" x="176" y="61" width="18" height="8" />
<rect fill="#a08377" fill-opacity="0.501961" x="47" y="74" width="2" height="8" />
<rect fill="#19161b" fill-opacity="0.501961" x="150" y="76" width="14" height="23" />
<g transform="translate(17.134411 76.414804) rotate(341.163394) scale(22.911315 6.536430)"><ellipse fill="#dfd9cc" fill-opacity="0.501961" cx="0" cy="0" rx="1" ry="1" /></g>
<polygon fill="#cdc6bb" fill-opacity="0.501961" points="179.722655,64.887768,195.943478,72.232134,194.167858,68.383164,179.036786,53.183118" />
<polygon fill="#d8d2c2" fill-opacity="0.501961" points="47.432262,53.415368,49.066274,48.923824,96.116262,25.828139,45.372159,45.574367" />
<polygon fill="#d9d3ca" fill-opacity="0.501961" points="170.127909,54.278512,148.507958,47.230600,165.541545,11.909455,147.480701,34.423669" />
<g transform="translate(89.496544 18.548854) rotate(256.325594) scale(32.807522 1.000000)"><ellipse fill="#dcd6cf" fill-opacity="0.501961" cx="0" cy="0" rx="1" ry="1" /></g>
<path stroke="#60705e" stroke-opacity="0.501961" fill="none" d="M 234.822986 115.632988 Q 216.442885 130.111237, 166.736866 117.632650" stroke-width="0.500000" />
<polygon fill="#ddd2c6" fill-opacity="0.501961" points="223.239196,19.262621,203.847087,74.393241,197.121740,15.686451,188.012720,-16.000000" />
<path stroke="#262327" stroke-opacity="0.501961" fill="none" d="M 219.828364 111.333655 Q 232.999931 128.557458, 251.782913 113.269411" stroke-width="0.500000" />
<g transform="translate(246.567807 0.000000) rotate(53.554122) scale(27.421344 12.759398)"><ellipse fill="#c4b7aa" fill-opacity="0.501961" cx="0" cy="0" rx="1" ry="1" /></g>
<g transform="translate(154 39) rotate(73) scale(1 28)"><rect fill="#d5cfc7" fill-opacity="0.501961" x="-0.5" y="-0.5" width="1" height="1" /></g>
<polygon fill="#d6c9bc" fill-opacity="0.501961" points="198.008374,129.838653,210.114773,132.463846,216.505034,129.714110,159.152993,118.446390" />
<polygon fill="#d2c2b4" fill-opacity="0.501961" points="90.564470,188.417809,89.190806,207.000000,27.402937,147.444310,70.707144,159.042788" />
<polygon fill="#27252c" fill-opacity="0.501961" points="210.746069,106.749374,231.213920,90.756891,202.114812,76.065184,239.320721,146.492705" />
<polygon fill="#63433e" fill-opacity="0.501961" points="235,151 230,146 224,145" />
<g transform="translate(241 95) rotate(263) scale(9 1)"><rect fill="#3d3b3e" fill-opacity="0.501961" x="-0.5" y="-0.5" width="1" height="1" /></g>
<g transform="translate(154 140) rotate(297) scale(10 1)"><rect fill="#463229" fill-opacity="0.501961" x="-0.5" y="-0.5" width="1" height="1" /></g>
<polygon fill="#5dbb6f" fill-opacity="0.501961" points="199,135 198,140 200,139" />
<polygon fill="#212128" fill-opacity="0.501961" points="234.925466,100.412027,219.728572,136.442646,219.490681,98.167320,199.300357,98.701139" />
<polygon fill="#1e1b1d" fill-opacity="0.501961" points="207.106767,92.705785,189.390893,89.166351,129.936221,111.742220,147.170360,92.049002" />
<g transform="translate(175.740453 131.985760) rotate(23.533443) scale(31.848761 1.190957)"><ellipse fill="#4b3734" fill-opacity="0.501961" cx="0" cy="0" rx="1" ry="1" /></g>
<g transform="translate(42 70) rotate(55) scale(12 1)"><rect fill="#333a3e" fill-opacity="0.501961" x="-0.5" y="-0.5" width="1" height="1" /></g>
<polygon fill="#cdc4bb" fill-opacity="0.501961" points="271,49 254,42 237,94" />
<polygon fill="#3d4246" fill-opacity="0.501961" points="53.005012,53.477164,62.824619,45.159858,65.632726,44.149820,45.587539,62.948922" />
<polygon fill="#cec2b6" fill-opacity="0.501961" points="259.677443,113.176201,233.802614,9.278900,271.000000,58.061173,247.492971,109.009911" />
<polygon fill="#5f5f45" fill-opacity="0.501961" points="69.843926,105.016045,83.418168,95.727996,62.828680,93.839299,70.446124,82.612975" />
<g transform="translate(194.010235 174.857194) rotate(240.532094) scale(30.523937 12.366999)"><ellipse fill="#ccbdb1" fill-opacity="0.501961" cx="0" cy="0" rx="1" ry="1" /></g>
<ellipse fill="#dfd2c5" fill-opacity="0.501961" cx="184" cy="112" rx="3" ry="3" />
<polygon fill="#1f2028" fill-opacity="0.501961" points="236.243844,101.337400,240.255323,96.301709,206.336025,120.292466,236.912573,120.327901" />
<polygon fill="#5f403a" fill-opacity="0.501961" points="69.217228,106.638506,46.158623,111.265573,51.895048,102.990196,54.667318,102.139020" />
<polygon fill="#737564" fill-opacity="0.501961" points="111.970746,100.647936,172.754616,113.505686,200.618976,116.404070,185.827295,116.508804" />
<polygon fill="#68936d" fill-opacity="0.501961" points="41,86 34,96 35,89" />
<rect fill="#21212b" fill-opacity="0.501961" x="212" y="84" width="20" height="11" />
<polygon fill="#a38376" fill-opacity="0.501961" points="1.529765,136.899051,37.648726,99.027603,50.764213,130.497397,-16.000000,125.328150" />
<polygon fill="#e3ded3" fill-opacity="0.501961" points="124.463596,19.651843,56.653551,-3.938231,163.468078,-16.000000,118.644408,35.493115" />
<ellipse fill="#898480" fill-opacity="0.501961" cx="164" cy="65" rx="5" ry="2" />
<polygon fill="#d9c8bb" fill-opacity="0.501961" points="223,149 198,156 246,157" />
<polygon fill="#1e2127" fill-opacity="0.501961" points="54.789610,70.721452,41.477323,57.455461,80.631844,72.330167,105.580092,65.792630" />
<rect fill="#489e59" fill-opacity="0.501961" x="71" y="101" width="2" height="8" />
<path stroke="#7faa7c" stroke-opacity="0.501961" fill="none" d="M 213.575403 134.906373 Q 188.260959 129.162497, 178.710197 126.047041" stroke-width="0.500000" />
<ellipse fill="#e8ded0" fill-opacity="0.501961" cx="188" cy="100" rx="1" ry="2" />
<polygon fill="#27282d" fill-opacity="0.501961" points="99.052745,47.203520,125.413181,42.654944,147.698025,60.963285,145.454314,46.291573" />
<rect fill="#e1e1d3" fill-opacity="0.501961" x="143" y="44" width="3" height="2" />
<g transform="translate(79.776486 48.174973) rotate(290.075333) scale(1.000000 12.459504)"><ellipse fill="#656664" fill-opacity="0.501961" cx="0" cy="0" rx="1" ry="1" /></g>
<g transform="translate(192.701241 95.710006) rotate(96.936378) scale(1.000000 10.551728)"><ellipse fill="#54504a" fill-opacity="0.501961" cx="0" cy="0" rx="1" ry="1" /></g>
<g transform="translate(198 144) rotate(201) scale(1 9)"><rect fill="#43874c" fill-opacity="0.501961" x="-0.5" y="-0.5" width="1" height="1" /></g>
<path stroke="#677b5b" stroke-opacity="0.501961" fill="none" d="M 92.357889 98.275222 Q 177.691592 128.345849, 243.016453 141.187704" stroke-width="0.500000" />
<ellipse fill="#beb2a3" fill-opacity="0.501961" cx="174" cy="104" rx="2" ry="2" />
<rect fill="#d5ceba" fill-opacity="0.501961" x="169" y="125" width="6" height="1" />
<g transform="translate(183 100) rotate(179) scale(1 13)"><rect fill="#474b42" fill-opacity="0.501961" x="-0.5" y="-0.5" width="1" height="1" /></g>
<polygon fill="#ac9a89" fill-opacity="0.501961" points="67.571200,112.783188,52.716635,125.401780,131.038501,134.614552,90.942956,116.103774" />
<polygon fill="#d7cdc4" fill-opacity="0.501961" points="203.759572,-16.000000,246.056212,63.187100,223.599815,85.357087,226.608352,79.966528" />
<rect fill="#383435" fill-opacity="0.501961" x="151" y="104" width="20" height="4" />
<polygon fill="#d9cbc0" fill-opacity="0.501961" points="248,183 238,137 271,140" />
<polygon fill="#1b1718" fill-opacity="0.501961" points="75.501858,80.651653,91.568751,95.420275,122.840540,111.847791,93.165391,100.177286" />
<rect fill="#5d5a55" fill-opacity="0.501961" x="239" y="120" width="3" height="3" />
<polygon fill="#c0bbaa" fill-opacity="0.501961" points="208.114264,101.108173,195.008855,109.679051,201.089542,104.771404,194.836750,97.879212" />
<polygon fill="#d1c7b9" fill-opacity="0.501961" points="243.373956,92.001637,246.305873,105.191056,271.000000,111.132973,242.281812,97.888196" />
<path stroke="#64614d" stroke-opacity="0.501961" fill="none" d="M 181.342245 121.247359 Q 171.085605 124.529196, 147.123709 132.569972" stroke-width="0.500000" />
<polygon fill="#463d35" fill-opacity="0.501961" points="109,67 121,61 115,76" />
<path stroke="#88847f" stroke-opacity="0.501961" fill="none" d="M 177.969546 78.149279 Q 145.412638 58.273045, 132.540325 14.309565" stroke-width="0.500000" />
<g transform="translate(108 115) rotate(23) scale(20 1)"><rect fill="#261817" fill-opacity="0.501961" x="-0.5" y="-0.5" width="1" height="1" /></g>
<g transform="translate(134 73) rotate(49) scale(5 1)"><rect fill="#808688" fill-opacity="0.501961" x="-0.5" y="-0.5" width="1" height="1" /></g>
<g transform="translate(136.828030 68.998320) rotate(333.625117) scale(1.000000 1.000000)"><ellipse fill="#618191" fill-opacity="0.501961" cx="0" cy="0" rx="1" ry="1" /></g>
<ellipse fill="#6a6a67" fill-opacity="0.501961" cx="126" cy="33" rx="3" ry="3" />
<path stroke="#444548" stroke-opacity="0.501961" fill="none" d="M 126.830700 31.741061 Q 84.438870 65.568827, 47.444878 46.755057" stroke-width="0.500000" />
<polygon fill="#463231" fill-opacity="0.501961" points="122,129 125,125 111,123" />
<path stroke="#252226" stroke-opacity="0.501961" fill="none" d="M 251.461940 115.508078 Q 224.404412 128.146735, 210.323758 94.610571" stroke-width="0.500000" />
<polygon fill="#776f58" fill-opacity="0.501961" points="115.512447,105.705534,143.561544,112.054508,144.764776,111.149178,167.974001,118.338459" />
<g transform="translate(100.566628 57.106917) rotate(123.845478) scale(24.725089 2.085682)"><ellipse fill="#1f2125" fill-opacity="0.501961" cx="0" cy="0" rx="1" ry="1" /></g>
<g transform="translate(155 141) rotate(45) scale(2 3)"><rect fill="#b4a698" fill-opacity="0.501961" x="-0.5" y="-0.5" width="1" height="1" /></g>
<g transform="translate(68 59) rotate(329) scale(21 18)"><rect fill="#1e2129" fill-opacity="0.501961" x="-0.5" y="-0.5" width="1" height="1" /></g>
<ellipse fill="#714843" fill-opacity="0.501961" cx="221" cy="142" rx="6" ry="6" />
<ellipse fill="#e0d1c4" fill-opacity="0.501961" cx="203" cy="128" rx="4" ry="4" />
<g transform="translate(34 81) rotate(232) scale(1 18)"><rect fill="#d1caba" fill-opacity="0.501961" x="-0.5" y="-0.5" width="1" height="1" /></g>
<g transform="translate(150 110) rotate(259) scale(3 4)"><rect fill="#be6a6e" fill-opacity="0.501961" x="-0.5" y="-0.5" width="1" height="1" /></g>
</g>
</svg>