<svg xmlns="http://www.w3.org/2000/svg" width="1024" height="768">
  <path fill="#a48b70" d="M0 0h1024v768H0z"/>
  <g transform="matrix(4 0 0 4 2 2)" fill-opacity=".502">
    <ellipse fill="#1e1000" cx="210" cy="80" rx="33" ry="19"/>
    <ellipse fill="#bbb7b1" cx="30" cy="28" rx="55" ry="172"/>
    <ellipse fill="#916318" cx="117" cy="125" rx="48" ry="66"/>
    <ellipse fill="#dabfa7" cx="85" cy="27" rx="40" ry="45"/>
    <ellipse fill="#597068" cx="29" cy="89" rx="40" ry="16"/>
    <ellipse fill="#b8aca7" cx="234" cy="119" rx="74" ry="25"/>
    <ellipse fill="#ca6529" cx="140" cy="79" rx="27" ry="32"/>
    <ellipse fill="#b7b8bf" cx="12" cy="151" rx="62" ry="42"/>
    <ellipse fill="#d5c0c2" cx="220" cy="10" rx="18" ry="27"/>
    <ellipse fill="#81624d" cx="179" cy="185" rx="111" ry="35"/>
    <ellipse fill="#c59260" cx="13" cy="8" rx="39" ry="60"/>
    <ellipse fill="#654d3a" cx="243" cy="76" rx="77" ry="20"/>
    <ellipse fill="#18250c" cx="200" cy="81" rx="14" ry="19"/>
    <ellipse fill="#b39c46" cx="106" cy="100" rx="26" ry="42"/>
    <ellipse fill="#79651b" cx="88" cy="125" rx="21" ry="29"/>
    <ellipse fill="#a1a3a7" cx="63" cy="164" rx="24" ry="20"/>
    <ellipse fill="#332c1e" cx="103" cy="163" rx="16" ry="8"/>
    <ellipse fill="#aeacb2" cx="181" cy="64" rx="12" ry="12"/>
    <ellipse fill="#8b6b4f" cx="160" cy="36" rx="33" ry="21"/>
    <ellipse fill="#f3cbbb" cx="255" cy="15" rx="7" ry="36"/>
    <ellipse fill="#cfb9a7" cx="158" cy="3" rx="78" ry="5"/>
    <ellipse fill="#b9b8b5" cx="174" cy="100" rx="11" ry="19"/>
    <ellipse fill="#a96a01" cx="92" cy="61" rx="8" ry="8"/>
    <ellipse fill="#d3a68b" cx="241" cy="68" rx="29" ry="3"/>
    <ellipse fill="#9f8975" cx="181" cy="145" rx="38" ry="21"/>
    <ellipse fill="#70694f" cx="49" cy="84" rx="16" ry="15"/>
    <ellipse fill="#cebfb1" cx="101" cy="43" rx="17" ry="20"/>
    <ellipse fill="#7f5938" cx="68" cy="191" rx="40" ry="6"/>
    <ellipse fill="#b9adac" cx="10" cy="77" rx="22" ry="8"/>
    <ellipse fill="#885a35" cx="222" cy="65" rx="18" ry="15"/>
    <ellipse fill="#ae9072" cx="228" cy="98" rx="20" ry="7"/>
    <ellipse fill="#1e170a" cx="172" cy="14" rx="4" ry="6"/>
    <ellipse fill="#d0a677" cx="95" cy="86" rx="33" ry="8"/>
    <ellipse fill="#b74021" cx="244" cy="20" rx="3" ry="23"/>
    <ellipse fill="#6f6157" cx="129" cy="45" rx="12" ry="15"/>
    <ellipse fill="#c3976a" cx="190" cy="22" rx="18" ry="17"/>
    <ellipse fill="#9d7955" cx="65" cy="7" rx="27" ry="3"/>
    <ellipse fill="#615730" cx="144" cy="135" rx="14" ry="8"/>
    <ellipse fill="#b7a94d" cx="122" cy="117" rx="8" ry="37"/>
    <ellipse fill="#8c4037" cx="109" cy="74" rx="10" ry="7"/>
    <ellipse fill="#5a4733" cx="164" cy="23" rx="8" ry="7"/>
    <ellipse fill="#bb5e39" cx="147" cy="85" rx="20" ry="24"/>
    <ellipse fill="#5d2f13" cx="183" cy="51" rx="19" ry="2"/>
    <ellipse fill="#d3c6b1" cx="163" cy="50" rx="2" ry="18"/>
    <ellipse fill="#5a4237" cx="139" cy="29" rx="3" ry="18"/>
    <ellipse fill="#111c37" cx="249" cy="62" rx="13" ry="3"/>
    <ellipse fill="#813a03" cx="92" cy="146" rx="18" ry="5"/>
    <ellipse fill="#614b40" cx="142" cy="3" rx="3" ry="13"/>
    <ellipse fill="#b9b5b4" cx="47" cy="123" rx="21" ry="23"/>
    <ellipse fill="#4a1f10" cx="251" cy="79" rx="11" ry="4"/>
    <ellipse fill="#8f735b" cx="145" cy="178" rx="24" ry="37"/>
    <ellipse fill="#94795b" cx="23" cy="114" rx="21" ry="2"/>
    <ellipse fill="#c8ac8d" cx="161" cy="2" rx="9" ry="20"/>
    <ellipse fill="#714a2b" cx="171" cy="77" rx="7" ry="9"/>
    <ellipse fill="#bca285" cx="121" cy="14" rx="17" ry="25"/>
    <ellipse fill="#c6bbaa" cx="151" cy="31" rx="11" ry="3"/>
    <ellipse fill="#b59687" cx="229" cy="28" rx="14" ry="18"/>
    <ellipse fill="#6c5620" cx="156" cy="115" rx="7" ry="11"/>
    <ellipse fill="#d1beb8" cx="244" cy="50" rx="4" ry="9"/>
    <ellipse fill="#a28b44" cx="101" cy="105" rx="33" ry="15"/>
    <ellipse fill="#979fa7" cx="197" cy="58" rx="18" ry="4"/>
    <ellipse fill="#dad1d9" cx="218" rx="8" ry="15"/>
    <ellipse fill="#bfb6b8" cx="255" cy="66" rx="31" ry="2"/>
    <ellipse fill="#232110" cx="193" cy="88" rx="9" ry="10"/>
    <ellipse fill="#b77366" cx="253" cy="86" rx="23" ry="4"/>
    <ellipse fill="#c7831c" cx="94" cy="67" rx="6" ry="13"/>
    <ellipse fill="#2c2111" cx="130" cy="56" rx="5" ry="4"/>
    <ellipse fill="#b3a194" cx="220" cy="128" rx="33" ry="27"/>
    <ellipse fill="#ab8a6c" cx="48" cy="72" rx="18" ry="8"/>
    <ellipse fill="#c9beb9" cx="105" cy="57" rx="6" ry="12"/>
    <ellipse fill="#c06e51" cx="141" cy="109" rx="11" ry="15"/>
    <ellipse fill="#d8d7d9" cx="76" cy="68" rx="11" ry="5"/>
    <ellipse fill="#aa8762" cx="3" cy="56" rx="32" ry="12"/>
    <ellipse fill="#76908e" cx="2" cy="95" rx="43" ry="11"/>
    <ellipse fill="#987552" cx="255" cy="179" rx="97" ry="27"/>
    <ellipse fill="#7b7869" cx="190" cy="64" rx="8" ry="7"/>
    <ellipse fill="#b0875b" cx="184" cy="35" rx="21" ry="15"/>
    <ellipse fill="#a28b74" cx="190" cy="143" rx="42" ry="17"/>
    <ellipse fill="#bfb9b6" cx="16" cy="132" rx="53" ry="14"/>
    <ellipse fill="#969795" cx="72" cy="159" rx="19" ry="8"/>
    <ellipse fill="#7c7030" cx="77" cy="117" rx="10" ry="22"/>
    <ellipse fill="#ceddf8" cx="203" cy="55" rx="3" ry="4"/>
    <ellipse fill="#b7acaa" cx="172" cy="60" rx="12" ry="8"/>
    <ellipse fill="#6d4b36" cx="216" cy="59" rx="10" ry="7"/>
    <ellipse fill="#977c62" cx="163" cy="138" rx="10" ry="27"/>
    <ellipse fill="#a67744" cx="230" cy="60" rx="8" ry="11"/>
    <ellipse fill="#c5b1a3" cx="63" cy="52" rx="23" ry="16"/>
    <ellipse fill="#da9b31" cx="138" cy="59" rx="4" ry="11"/>
    <ellipse fill="#b2a8a2" cx="193" cy="109" rx="30" ry="11"/>
    <ellipse fill="#6a5547" cx="79" cy="75" rx="9" ry="2"/>
    <ellipse fill="#5d5338" cx="125" cy="156" rx="9" ry="5"/>
    <ellipse fill="#af7031" cx="122" cy="64" rx="7" ry="12"/>
    <ellipse fill="#b3aca8" cx="77" cy="83" rx="11" ry="8"/>
    <ellipse fill="#e3cec2" cx="235" cy="36" rx="2" ry="11"/>
    <ellipse fill="#b09d8d" cx="215" cy="113" rx="3" ry="30"/>
    <ellipse fill="#a6963a" cx="112" cy="135" rx="12" ry="23"/>
    <ellipse fill="#9d7e66" cx="220" cy="38" rx="5" ry="15"/>
    <ellipse fill="#c2aa98" cx="58" rx="83" ry="4"/>
    <ellipse fill="#a04a3a" cx="135" cy="94" rx="4" ry="24"/>
    <ellipse fill="#8c94a5" cx="125" cy="33" rx="7" ry="8"/>
    <ellipse fill="#8f7a59" cx="58" cy="112" rx="20" ry="2"/>
    <ellipse fill="#d6b58c" cx="145" cy="15" rx="2" ry="11"/>
    <ellipse fill="#c28950" cx="89" cy="93" rx="12" ry="12"/>
    <ellipse fill="#221e16" cx="169" cy="18" rx="3" ry="5"/>
    <ellipse fill="#caa684" cx="26" cy="20" rx="22" ry="14"/>
    <ellipse fill="#d1ba9b" cx="162" cy="37" rx="4" ry="6"/>
    <ellipse fill="#b2a9a6" cx="30" cy="175" rx="40" ry="14"/>
    <ellipse fill="#876d4b" cx="88" cy="61" rx="4" ry="8"/>
    <ellipse fill="#997d63" cx="143" cy="166" rx="17" ry="13"/>
    <ellipse fill="#987e67" cx="255" cy="99" rx="70" ry="4"/>
    <ellipse fill="#c87930" cx="158" cy="84" rx="8" ry="22"/>
    <ellipse fill="#322d11" cx="208" cy="83" rx="4" ry="17"/>
    <ellipse fill="#544736" cx="149" cy="5" rx="1" ry="25"/>
    <ellipse fill="#614636" cx="137" cy="33" rx="3" ry="13"/>
    <ellipse fill="#2e2504" cx="135" cy="132" rx="5" ry="2"/>
    <ellipse fill="#493822" cx="106" cy="161" rx="17" ry="4"/>
    <ellipse fill="#786653" cx="89" cy="185" rx="6" ry="33"/>
    <ellipse fill="#cf894a" cx="138" cy="121" rx="7" ry="8"/>
    <ellipse fill="#966c41" cx="187" cy="43" rx="22" ry="3"/>
    <ellipse fill="#0d3e2b" cx="1" cy="86" rx="15" ry="1"/>
    <ellipse fill="#5f3821" cx="196" cy="53" rx="4" ry="3"/>
    <ellipse fill="#c49e76" cx="112" cy="18" rx="16" ry="13"/>
    <ellipse fill="#c4b1a4" cx="74" cy="37" rx="29" ry="20"/>
    <ellipse fill="#8d6d51" cx="130" cy="191" rx="53" ry="27"/>
    <ellipse fill="#8e7256" cy="116" rx="17" ry="2"/>
    <ellipse fill="#a19183" cx="73" cy="52" rx="8" ry="5"/>
    <ellipse fill="#5f6855" cx="50" cy="90" rx="10" ry="10"/>
    <ellipse fill="#a4acad" cx="19" cy="107" rx="49" ry="4"/>
    <ellipse fill="#bb9832" cx="129" cy="65" rx="8" ry="8"/>
    <ellipse fill="#9c8977" cx="209" cy="60" rx="5" ry="4"/>
    <ellipse fill="#c99f88" cx="250" cy="8" rx="5" ry="18"/>
    <ellipse fill="#9c7d62" cy="5" rx="64" ry="2"/>
    <ellipse fill="#b16543" cx="244" cy="36" rx="7" ry="7"/>
    <ellipse fill="#875e43" cx="168" cy="53" rx="5" ry="7"/>
    <ellipse fill="#958674" cx="3" cy="70" rx="15" ry="5"/>
    <ellipse fill="#9c483d" cx="115" cy="69" rx="6" ry="8"/>
    <ellipse fill="#6b5f29" cx="152" cy="124" rx="6" ry="6"/>
    <ellipse fill="#424830" cx="193" cy="77" rx="5" ry="10"/>
    <ellipse fill="#878996" cx="246" cy="57" rx="8" ry="3"/>
    <ellipse fill="#c9af9a" cx="211" cy="10" rx="4" ry="32"/>
    <ellipse fill="#865214" cx="97" cy="150" rx="11" ry="7"/>
    <ellipse fill="#b9b6b2" cx="170" cy="103" rx="8" ry="9"/>
    <ellipse fill="#ceb7a0" cx="126" rx="16" ry="7"/>
    <ellipse fill="#4b3426" cx="162" cy="26" rx="6" ry="4"/>
    <ellipse fill="#e6d2c3" cx="255" cy="31" rx="4" ry="11"/>
    <ellipse fill="#d1a335" cx="120" cy="79" rx="7" ry="5"/>
    <ellipse fill="#d6dfdd" cx="198" cy="58" rx="3" ry="3"/>
    <ellipse fill="#4b2510" cx="226" cy="87" rx="7" ry="4"/>
    <ellipse fill="#a49694" cx="183" cy="73" rx="4" ry="5"/>
    <ellipse fill="#8a968f" cx="24" cy="92" rx="21" ry="7"/>
    <ellipse fill="#7d7567" cx="149" cy="41" rx="12" ry="9"/>
    <ellipse fill="#878ea0" cx="119" cy="44" rx="3" ry="9"/>
    <ellipse fill="#76541e" cx="83" cy="140" rx="11" ry="11"/>
    <ellipse fill="#ad976b" cx="174" cy="86" rx="8" ry="5"/>
    <ellipse fill="#b7956f" cx="178" cy="28" rx="11" ry="8"/>
    <ellipse fill="#a39a93" cx="9" cy="187" rx="30" ry="5"/>
    <ellipse fill="#ad9478" cx="230" cy="96" rx="18" ry="4"/>
    <ellipse fill="#b4a397" cx="214" cy="117" rx="33" ry="17"/>
    <ellipse fill="#8f7a67" cx="40" cy="74" rx="11" ry="7"/>
    <ellipse fill="#a67427" cx="102" cy="142" rx="18" ry="3"/>
    <ellipse fill="#c6a484" cx="58" cy="12" rx="82" ry="5"/>
    <ellipse fill="#8a684a" cx="83" cy="191" rx="37" ry="9"/>
    <ellipse fill="#5a7065" cx="67" cy="78" rx="4" ry="2"/>
    <ellipse fill="#9d8062" cx="84" cy="7" rx="23" ry="2"/>
    <ellipse fill="#b86144" cx="145" cy="74" rx="6" ry="27"/>
    <ellipse fill="#c5cad1" cx="207" cy="52" rx="5" ry="2"/>
    <ellipse fill="#bda686" cx="152" cy="18" rx="2" ry="22"/>
    <ellipse fill="#2d4e41" cx="190" cy="59" rx="2" ry="3"/>
    <ellipse fill="#af8e73" cx="160" cy="13" rx="3" ry="13"/>
    <ellipse fill="#aaa29b" cx="61" cy="162" rx="17" ry="23"/>
    <ellipse fill="#35321b" cx="199" cy="81" rx="17" ry="9"/>
    <ellipse fill="#e0caba" cx="245" cy="46" rx="2" ry="8"/>
    <ellipse fill="#ae936f" cx="209" cy="49" rx="21" ry="3"/>
    <ellipse fill="#a36a59" cx="240" cy="83" rx="9" ry="3"/>
    <ellipse fill="#a38a7a" cx="225" cy="76" rx="5" ry="2"/>
    <ellipse fill="#d1c3b7" cx="49" cy="56" rx="13" ry="3"/>
    <ellipse fill="#af9b8b" cx="237" cy="138" rx="28" ry="12"/>
    <ellipse fill="#786248" cx="139" cy="149" rx="8" ry="8"/>
    <ellipse fill="#967759" cx="255" cy="169" rx="41" ry="20"/>
    <ellipse fill="#305f56" cx="24" cy="85" rx="10" ry="1"/>
    <ellipse fill="#a35039" cx="133" cy="120" rx="5" ry="6"/>
    <ellipse fill="#c87147" cx="136" cy="49" rx="9" ry="3"/>
    <ellipse fill="#c99a2c" cx="136" cy="126" rx="6" ry="4"/>
    <ellipse fill="#5f5043" cx="149" cy="27" rx="15" ry="2"/>
    <ellipse fill="#9c8f6a" cx="69" cy="93" rx="10" ry="5"/>
    <ellipse fill="#c3b2b1" cx="231" rx="3" ry="30"/>
    <ellipse fill="#bfa58e" cx="58" cy="2" rx="35" ry="3"/>
    <ellipse fill="#b69d53" cx="123" cy="103" rx="8" ry="19"/>
    <ellipse fill="#aba49e" cx="18" cy="75" rx="12" ry="10"/>
    <ellipse fill="#bdbdbe" cx="57" cy="117" rx="11" ry="5"/>
    <ellipse fill="#aa523b" cx="136" cy="83" rx="9" ry="13"/>
    <ellipse fill="#be9b78" cx="205" cy="22" rx="5" ry="15"/>
    <ellipse fill="#bb927c" cx="255" cy="91" rx="9" ry="3"/>
    <ellipse fill="#5c4332" cx="174" cy="77" rx="7" ry="5"/>
    <ellipse fill="#b08351" cx="234" cy="57" rx="6" ry="6"/>
    <ellipse fill="#353d14" cx="155" cy="115" rx="3" ry="4"/>
    <ellipse fill="#7d4d2d" cx="225" cy="71" rx="20" ry="3"/>
    <ellipse fill="#b86031" cx="162" cy="81" rx="6" ry="10"/>
    <ellipse fill="#c8b7ab" cx="60" cy="14" rx="6" ry="8"/>
    <ellipse fill="#cba892" cx="172" cy="55" rx="11" ry="3"/>
    <ellipse fill="#95775b" cx="148" cy="176" rx="14" ry="39"/>
    <ellipse fill="#b97b43" cx="148" cy="102" rx="5" ry="17"/>
    <ellipse fill="#7d7464" cx="159" cy="58" rx="4" ry="4"/>
    <ellipse fill="#987752" cx="37" cy="51" rx="3" ry="5"/>
    <ellipse fill="#a08b7b" cx="182" cy="67" rx="9" ry="6"/>
    <ellipse fill="#ac9893" cx="225" cy="25" rx="4" ry="20"/>
    <ellipse fill="#c9b39d" cx="162" cy="2" rx="14" ry="3"/>
    <ellipse fill="#af9f4f" cx="125" cy="141" rx="7" ry="9"/>
    <ellipse fill="#576044" cx="191" cy="77" rx="5" ry="4"/>
    <ellipse fill="#442d0b" cx="116" cy="139" rx="2" ry="2"/>
    <ellipse fill="#938a39" cx="102" cy="119" rx="9" ry="21"/>
    <ellipse fill="#b5b7ba" cx="62" cy="105" rx="8" ry="4"/>
    <ellipse fill="#6a7d76" cx="17" cy="101" rx="31" ry="2"/>
    <ellipse fill="#a9947f" cx="194" cy="154" rx="24" ry="4"/>
    <ellipse fill="#b6b8b9" cx="173" cy="63" rx="8" ry="4"/>
    <ellipse fill="#76573f" cx="226" cy="52" rx="16" ry="1"/>
    <ellipse fill="#633526" cx="238" cy="76" rx="8" ry="4"/>
    <ellipse fill="#4b3e2e" cx="173" cy="12" rx="4" ry="4"/>
    <ellipse fill="#dd9e55" cx="155" cy="69" rx="2" ry="7"/>
    <ellipse fill="#b5b4ad" cx="7" cy="112" rx="12" ry="3"/>
    <ellipse fill="#bd842d" cx="93" cy="69" rx="6" ry="10"/>
    <ellipse fill="#6a5647" cx="143" rx="3" ry="8"/>
    <ellipse fill="#b49a7e" cx="55" cy="69" rx="9" ry="9"/>
    <ellipse fill="#b2331c" cx="244" cy="26" rx="2" ry="11"/>
    <ellipse fill="#474f30" cx="204" cy="68" rx="8" ry="4"/>
    <ellipse fill="#938b7e" cx="81" cy="175" rx="8" ry="5"/>
    <ellipse fill="#c4ab95" cx="101" cy="1" rx="41" ry="6"/>
    <ellipse fill="#ac8064" cx="240" cy="27" rx="3" ry="29"/>
    <ellipse fill="#c09d7a" cx="8" cy="31" rx="34" ry="27"/>
    <ellipse fill="#d2cace" cx="247" cy="66" rx="13" ry="1"/>
    <ellipse fill="#af9b98" cx="211" cy="33" rx="5" ry="7"/>
    <ellipse fill="#a68c70" cx="250" cy="104" rx="11" ry="5"/>
    <ellipse fill="#bc815b" cx="142" cy="115" rx="7" ry="8"/>
    <ellipse fill="#414a1d" cx="134" cy="135" rx="5" ry="2"/>
    <ellipse fill="#4b3b1e" cx="84" cy="73" rx="3" ry="1"/>
    <ellipse fill="#b79472" cx="187" cy="19" rx="14" ry="9"/>
    <ellipse fill="#b19677" cx="164" cy="10" rx="7" ry="4"/>
    <ellipse fill="#a9845b" cx="249" cy="40" rx="4" ry="8"/>
    <ellipse fill="#392714" cx="129" cy="54" rx="4" ry="3"/>
    <ellipse fill="#b12a1e" cx="242" cy="39" rx="2" ry="3"/>
    <ellipse fill="#772c0e" cx="93" cy="146" rx="15" ry="2"/>
    <ellipse fill="#6b4c3c" cx="136" cy="39" rx="4" ry="8"/>
    <ellipse fill="#22554b" cx="32" cy="84" rx="5" ry="1"/>
    <ellipse fill="#c79651" cx="106" cy="88" rx="22" ry="7"/>
    <ellipse fill="#8d6d4c" cx="173" cy="172" rx="14" ry="10"/>
    <ellipse fill="#69776e" cx="42" cy="91" rx="7" ry="10"/>
    <ellipse fill="#b0aba6" cx="58" cy="141" rx="13" ry="16"/>
    <ellipse fill="#5a5233" cx="56" cy="94" rx="7" ry="2"/>
    <ellipse fill="#b48355" cx="125" cy="55" rx="3" ry="7"/>
    <ellipse fill="#583b2b" cx="241" cy="92" rx="4" ry="2"/>
    <ellipse fill="#8e7835" cx="107" cy="155" rx="9" ry="4"/>
    <ellipse fill="#93863f" cx="79" cy="106" rx="10" ry="8"/>
    <ellipse fill="#5e3c2a" cx="216" cy="55" rx="5" ry="3"/>
    <ellipse fill="#7f654b" cx="33" cy="5" rx="14" ry="1"/>
    <ellipse fill="#b29882" cx="193" rx="14" ry="10"/>
    <ellipse fill="#ac8761" cx="185" cy="33" rx="22" ry="9"/>
    <ellipse fill="#c5d2ee" cx="207" cy="53" rx="3" ry="2"/>
    <ellipse fill="#a29b96" cx="47" cy="103" rx="16" ry="3"/>
    <ellipse fill="#6b4833" cx="197" cy="52" rx="5" ry="2"/>
    <ellipse fill="#332a19" cx="198" cy="92" rx="14" ry="6"/>
    <ellipse fill="#7a5f48" cx="100" cy="175" rx="13" ry="8"/>
    <ellipse fill="#a9a8a7" cx="71" cy="85" rx="8" ry="6"/>
    <ellipse fill="#3d4257" cx="239" cy="63" rx="3" ry="3"/>
    <ellipse fill="#d9d8dd" cx="76" cy="71" rx="5" ry="3"/>
    <ellipse fill="#ab8c6a" cx="121" cy="8" rx="17" ry="2"/>
    <ellipse fill="#402b14" cx="212" cy="75" rx="7" ry="3"/>
    <ellipse fill="#cdcdcd" cx="125" cy="27" rx="3" ry="2"/>
    <ellipse fill="#3c3846" cx="88" cy="56" rx="2" ry="2"/>
    <ellipse fill="#b5936c" cx="117" cy="26" rx="6" ry="6"/>
    <ellipse fill="#d9d6ca" cx="181" cy="55" rx="4" ry="2"/>
    <ellipse fill="#baacaa" cx="78" cy="79" rx="10" ry="3"/>
    <ellipse fill="#ccc3be" cx="102" cy="65" rx="3" ry="3"/>
    <ellipse fill="#562c12" cx="168" cy="50" rx="4" ry="2"/>
    <ellipse fill="#bbb3af" cx="11" cy="147" rx="26" ry="31"/>
    <ellipse fill="#706759" cx="157" cy="49" rx="3" ry="9"/>
    <ellipse fill="#766d5a" cx="150" cy="8" rx="1" ry="21"/>
    <ellipse fill="#c9b7a8" cx="95" cy="36" rx="24" ry="8"/>
    <ellipse fill="#ad9a4c" cx="118" cy="149" rx="7" ry="7"/>
    <ellipse fill="#c5a57f" cx="145" cy="18" rx="3" ry="8"/>
    <ellipse fill="#c7b194" cx="162" cy="43" rx="2" ry="12"/>
    <ellipse fill="#c1b6b4" cx="248" cy="67" rx="5" ry="3"/>
    <ellipse fill="#e1dee9" cx="221" rx="3" ry="7"/>
    <ellipse fill="#7a7c91" cx="184" cy="96" rx="4" ry="3"/>
    <ellipse fill="#b6977f" cx="238" cy="21" rx="5" ry="16"/>
    <ellipse fill="#927253" cx="242" rx="3" ry="21"/>
    <ellipse fill="#ad9f4b" cx="113" cy="125" rx="5" ry="15"/>
    <ellipse fill="#aba4a1" cx="15" cy="80" rx="17" ry="4"/>
    <ellipse fill="#635037" cx="119" cy="160" rx="7" ry="5"/>
    <ellipse fill="#675541" cx="149" cy="21" rx="2" ry="9"/>
    <ellipse fill="#b3aba6" cx="177" cy="104" rx="15" ry="9"/>
    <ellipse fill="#c49d55" cx="95" cy="83" rx="10" ry="8"/>
    <ellipse fill="#b0a7a1" cx="195" cy="60" rx="4" ry="3"/>
    <ellipse fill="#9b6f51" cx="159" cy="18" rx="2" ry="11"/>
    <ellipse fill="#6e573a" cx="132" cy="23" rx="2" ry="2"/>
    <ellipse fill="#9e9a95" cx="71" cy="160" rx="13" ry="11"/>
    <ellipse fill="#a6815c" cx="211" cy="43" rx="21" ry="4"/>
    <ellipse fill="#3a3428" cx="167" cy="21" rx="3" ry="5"/>
    <ellipse fill="#b36347" cx="142" cy="87" rx="7" ry="25"/>
    <ellipse fill="#a08972" cx="157" cy="162" rx="14" ry="3"/>
    <ellipse fill="#3c2e15" cx="134" cy="57" rx="2" ry="3"/>
  </g>
</svg>
