<svg xmlns="http://www.w3.org/2000/svg" version="1.1" width="1024" height="768">
<rect x="0" y="0" width="1024" height="768" fill="#6d6e63" />
<g transform="scale(4.000000) translate(0.5 0.5)">
<polygon fill="#fffff3" fill-opacity="0.501961" points="102.472011,54.104011,-16.000000,43.609937,-16.000000,85.173675,102.778307,85.811752" />
<polygon fill="#fffff5" fill-opacity="0.501961" points="163.742073,104.585955,152.535031,71.991765,221.179934,18.740553,228.280232,82.475821" />
<polygon fill="#40443f" fill-opacity="0.501961" points="250.631018,122.655186,186.986515,204.258439,-3.227107,180.891421,-8.428717,94.560278" />
<polygon fill="#421a16" fill-opacity="0.501961" points="136.554389,76.762867,95.272964,93.112416,129.618866,10.129748,173.223937,139.990837" />
<polygon fill="#ffffff" fill-opacity="0.501961" points="224.927465,63.750545,180.441413,61.772056,166.566889,87.375523,227.493479,83.132254" />
<polygon fill="#283222" fill-opacity="0.501961" points="270.923048,160.551933,271.000000,22.471200,225.465571,-16.000000,245.956145,150.236089" />
<polygon fill="#b7ccf3" fill-opacity="0.501961" points="204.059664,153.747620,271.000000,179.353887,250.765339,153.054094,211.578739,146.637520" />
<polygon fill="#fffffc" fill-opacity="0.501961" points="26.797927,68.118262,103.288471,74.587334,-4.553057,87.448083,-8.360201,61.635566" />
<polygon fill="#001900" fill-opacity="0.501961" points="85.834917,-16.000000,-16.000000,0.999996,-16.000000,2.040871,43.365932,14.180944" />
<polygon fill="#aba89b" fill-opacity="0.501961" points="91.967593,62.950643,88.716823,30.668751,0.252770,29.754821,-16.000000,33.383942" />
<polygon fill="#c4d3d6" fill-opacity="0.501961" points="183.049789,161.737616,167.652907,160.533180,168.625070,142.879090,191.446826,140.488414" />
<polygon fill="#51543d" fill-opacity="0.501961" points="199.334251,58.810375,228.360704,-16.000000,172.907511,69.992604,136.582500,-16.000000" />
<polygon fill="#2c1d11" fill-opacity="0.501961" points="60.801499,82.937122,66.975439,91.382560,-16.000000,104.732167,42.769093,81.868523" />
<polygon fill="#1a152e" fill-opacity="0.501961" points="206.388645,180.194888,170.046405,181.925923,265.770116,207.000000,264.438066,183.266715" />
<polygon fill="#f7e4eb" fill-opacity="0.501961" points="192.662104,29.027806,185.741827,51.621413,200.095517,24.100454,214.194313,-16.000000" />
<polygon fill="#2f402f" fill-opacity="0.501961" points="188.849965,24.545334,215.736188,-14.367477,220.511702,0.280590,96.828597,10.791393" />
<polygon fill="#232437" fill-opacity="0.501961" points="52.478302,148.533531,87.428213,155.341757,157.870698,168.722995,129.873750,194.452269" />
<polygon fill="#897776" fill-opacity="0.501961" points="116.787908,127.845310,80.658580,107.535208,195.695793,83.809106,215.539634,102.918869" />
<polygon fill="#fff4df" fill-opacity="0.501961" points="70.837947,90.230247,93.839183,85.893045,105.191547,75.021057,48.184598,67.126101" />
<polygon fill="#2f191f" fill-opacity="0.501961" points="174.867744,137.297537,190.928658,109.961919,102.906420,135.440912,182.467639,133.080539" />
<polygon fill="#939b61" fill-opacity="0.501961" points="98.291430,72.531147,64.248292,70.267993,111.042798,-15.603107,76.481365,13.134475" />
<polygon fill="#d4d2a2" fill-opacity="0.501961" points="166.747020,84.097077,177.237355,67.076296,148.963154,52.536253,139.264246,51.505133" />
<polygon fill="#94af5d" fill-opacity="0.501961" points="31.978403,172.651010,54.930634,148.060003,20.285319,156.160486,32.048875,207.000000" />
<polygon fill="#1f480f" fill-opacity="0.501961" points="197.918786,-16.000000,212.250659,11.385103,236.209605,29.804007,223.956421,-6.340556" />
<polygon fill="#264432" fill-opacity="0.501961" points="211.086689,120.304403,271.000000,145.609273,212.567221,147.585080,165.748475,181.822985" />
<polygon fill="#304423" fill-opacity="0.501961" points="79.470279,-16.000000,77.034500,22.541464,117.551886,24.068841,58.203342,29.504395" />
<polygon fill="#ffffff" fill-opacity="0.501961" points="174.142564,70.718171,175.358759,84.582119,226.217972,86.418667,225.360520,68.279717" />
<polygon fill="#010207" fill-opacity="0.501961" points="134.588636,26.282819,104.344065,69.321399,122.808995,60.271866,115.353889,35.861240" />
<polygon fill="#9a9779" fill-opacity="0.501961" points="239.110839,86.905149,238.200591,42.717598,203.839502,66.331594,223.126546,10.895952" />
<polygon fill="#ddd9f0" fill-opacity="0.501961" points="-16.000000,21.314940,5.811442,17.067170,39.494675,17.181260,40.022093,18.482994" />
<polygon fill="#75798b" fill-opacity="0.501961" points="205.023626,148.671859,178.201622,182.257590,191.474516,169.782882,271.000000,176.769973" />
<polygon fill="#fffff6" fill-opacity="0.501961" points="39.367932,81.453434,29.851273,70.581530,-10.600185,79.602640,31.745915,88.157850" />
<polygon fill="#ada98a" fill-opacity="0.501961" points="47.717993,39.883395,74.982418,40.539856,95.018722,40.988339,14.961558,75.097281" />
<polygon fill="#082c00" fill-opacity="0.501961" points="25.269128,9.042939,55.978492,20.781841,8.176264,-16.000000,17.131103,18.718265" />
<polygon fill="#a2a298" fill-opacity="0.501961" points="152.622476,27.005738,122.951551,26.619470,66.083241,31.237527,130.036453,19.037071" />
<polygon fill="#464c3e" fill-opacity="0.501961" points="42.635556,59.503932,32.020661,62.182936,40.678964,37.779840,21.301823,38.117603" />
<polygon fill="#6b7c86" fill-opacity="0.501961" points="241.040902,75.331804,244.279768,124.961722,225.756899,121.212454,152.851285,108.530198" />
<polygon fill="#c2bcc5" fill-opacity="0.501961" points="18.218745,-16.000000,7.594967,6.014350,-16.000000,53.984657,3.111013,27.547870" />
<polygon fill="#493b28" fill-opacity="0.501961" points="-6.677243,93.353357,35.603564,116.470257,86.215817,117.238295,-14.082753,80.400659" />
<polygon fill="#c3bdd0" fill-opacity="0.501961" points="-16.000000,48.070116,43.247381,22.150148,-16.000000,24.030713,30.949780,25.674200" />
<polygon fill="#d1d3cc" fill-opacity="0.501961" points="98.457976,22.261289,78.306852,18.921255,87.556018,20.343603,32.370636,23.461364" />
<polygon fill="#7d7666" fill-opacity="0.501961" points="66.397396,118.132003,-1.315710,111.870148,55.842196,138.491311,107.507463,140.543643" />
<polygon fill="#b1af96" fill-opacity="0.501961" points="155.130330,30.282003,163.071406,15.475792,180.692007,-16.000000,169.117310,-16.000000" />
<polygon fill="#a8a7a8" fill-opacity="0.501961" points="164.029936,103.796012,198.013799,79.310447,212.430229,106.523006,238.234266,101.650975" />
<polygon fill="#837263" fill-opacity="0.501961" points="86.193202,116.741168,141.057334,132.778819,140.697225,90.743686,135.334029,62.634909" />
<polygon fill="#e2e1c1" fill-opacity="0.501961" points="10.188426,28.247801,28.762293,33.460005,-8.911758,85.341912,26.782981,59.941794" />
<polygon fill="#61382c" fill-opacity="0.501961" points="122.246308,139.080272,93.917240,111.647232,138.311725,36.102900,76.669259,112.009925" />
<polygon fill="#a49e97" fill-opacity="0.501961" points="211.408369,18.449121,162.631032,70.303093,223.239001,15.461472,176.942412,10.026431" />
<polygon fill="#4e4437" fill-opacity="0.501961" points="-16.000000,90.776109,39.927988,97.666271,38.945538,79.166553,76.991805,84.876235" />
<polygon fill="#131c1d" fill-opacity="0.501961" points="142.298363,42.727838,131.814473,26.921021,204.121157,30.746069,117.644463,29.372218" />
<polygon fill="#1a292c" fill-opacity="0.501961" points="-16.000000,49.456069,18.574109,44.942184,-16.000000,33.781367,15.171246,-11.744591" />
<polygon fill="#554139" fill-opacity="0.501961" points="118.346770,97.577700,178.105491,113.418165,136.636787,138.088297,151.295874,83.589343" />
<polygon fill="#cbd5d3" fill-opacity="0.501961" points="184.574618,144.879814,159.065300,160.022781,165.827886,156.073632,176.584610,163.093789" />
<polygon fill="#364f2d" fill-opacity="0.501961" points="70.108791,18.176232,168.341405,11.710696,151.246648,-16.000000,135.568362,20.198010" />
<polygon fill="#413f2c" fill-opacity="0.501961" points="108.585464,39.957786,144.576352,36.372428,92.432334,34.735321,32.955322,39.014888" />
<polygon fill="#b9d1b8" fill-opacity="0.501961" points="88.777399,5.435619,121.436302,-1.683865,133.066165,9.583282,138.407233,-2.527056" />
<polygon fill="#373c3a" fill-opacity="0.501961" points="240.971073,101.885219,199.445097,95.701517,271.000000,86.933989,253.456005,155.312730" />
<polygon fill="#656c58" fill-opacity="0.501961" points="19.074419,56.595948,0.581140,48.694112,15.642066,49.041503,-16.000000,60.089921" />
<polygon fill="#b9bbaa" fill-opacity="0.501961" points="68.307541,2.744658,48.804746,11.787492,63.088826,12.539439,56.644824,33.637827" />
<polygon fill="#b5a086" fill-opacity="0.501961" points="147.810230,40.286468,153.600995,71.929633,144.480465,31.518674,146.660370,-14.793485" />
<polygon fill="#9692a5" fill-opacity="0.501961" points="162.204365,181.492922,150.240353,177.580224,159.525919,170.707305,173.495281,177.414051" />
<polygon fill="#f2e7de" fill-opacity="0.501961" points="49.242811,84.088303,90.772214,74.778226,29.740680,63.274706,65.839118,57.935392" />
<polygon fill="#8e8562" fill-opacity="0.501961" points="75.138723,41.545878,73.520135,74.744661,128.923153,35.433786,100.380153,72.408505" />
<polygon fill="#474a27" fill-opacity="0.501961" points="167.930235,68.324459,152.348731,37.447944,132.268274,45.936671,170.710530,41.082659" />
<polygon fill="#252633" fill-opacity="0.501961" points="164.915601,171.176149,122.271649,175.433700,171.269275,159.108511,180.607873,174.884430" />
<polygon fill="#a6c280" fill-opacity="0.501961" points="88.546035,27.908265,93.286786,25.674567,90.787045,-11.741973,82.748189,18.798478" />
<polygon fill="#dcd5e5" fill-opacity="0.501961" points="23.270276,32.184757,47.608526,33.005373,64.135648,29.336610,57.497296,29.246651" />
<polygon fill="#395316" fill-opacity="0.501961" points="108.606327,41.101112,94.612646,-1.666877,70.667759,12.695914,83.451236,-16.000000" />
<polygon fill="#b1c2d5" fill-opacity="0.501961" points="259.730046,157.035098,271.000000,168.119199,207.291348,150.906795,224.595096,147.411961" />
<polygon fill="#a9a2a0" fill-opacity="0.501961" points="104.712852,111.244503,101.635118,105.191493,110.839059,82.755378,115.173848,94.479806" />
<polygon fill="#6a797e" fill-opacity="0.501961" points="125.934125,148.133757,171.647778,149.105598,206.708279,135.828569,130.906510,142.640813" />
<polygon fill="#70503e" fill-opacity="0.501961" points="142.651416,40.246023,156.545530,79.167622,163.309692,98.142327,152.130645,102.084011" />
<polygon fill="#91c930" fill-opacity="0.501961" points="-16.000000,163.862508,10.915946,158.445954,7.375220,167.755985,-4.843335,167.520235" />
<polygon fill="#a59d8b" fill-opacity="0.501961" points="155.142974,59.351538,141.157404,55.686163,154.641868,46.277578,167.027594,-16.000000" />
<polygon fill="#a8a367" fill-opacity="0.501961" points="83.249323,68.029244,11.154145,69.508787,20.252678,59.185464,34.032209,65.157454" />
<polygon fill="#817459" fill-opacity="0.501961" points="27.968294,95.083971,38.972384,122.348517,-16.000000,100.790738,18.665491,135.071302" />
<polygon fill="#95937c" fill-opacity="0.501961" points="212.754022,39.446967,217.470454,68.096954,260.958947,24.676841,242.746109,43.633283" />
<polygon fill="#fcf5dc" fill-opacity="0.501961" points="191.648220,74.722578,185.703561,46.228574,183.867324,75.377742,217.573482,31.266801" />
<polygon fill="#dcd2c2" fill-opacity="0.501961" points="181.408282,71.145393,208.832985,-4.913084,187.249338,41.901705,173.458440,85.509545" />
<polygon fill="#1d2a29" fill-opacity="0.501961" points="87.106660,26.546794,71.909858,23.207898,59.237499,23.189604,28.231868,30.479149" />
<polygon fill="#dad6de" fill-opacity="0.501961" points="50.319255,41.386438,53.401933,44.286176,86.324998,40.400454,33.892852,43.423150" />
<polygon fill="#090004" fill-opacity="0.501961" points="164.527153,132.227644,159.695314,126.493997,169.035482,118.435552,181.227735,128.963439" />
<polygon fill="#b7a89e" fill-opacity="0.501961" points="65.514056,92.950498,50.760846,95.585902,57.327186,97.456717,80.990611,98.189949" />
<polygon fill="#46464e" fill-opacity="0.501961" points="153.413970,181.528627,38.021677,151.829264,145.517275,207.000000,271.000000,176.428268" />
<polygon fill="#1f1337" fill-opacity="0.501961" points="141.225941,93.821085,133.495737,40.972436,143.282827,72.602999,148.978392,88.270073" />
<polygon fill="#575761" fill-opacity="0.501961" points="47.220054,45.642982,30.865198,43.019295,54.795368,40.332125,-14.024955,32.351309" />
<polygon fill="#62673b" fill-opacity="0.501961" points="199.318986,56.420962,190.558915,56.228678,189.098721,46.718838,196.934441,43.348197" />
<polygon fill="#d9d5c5" fill-opacity="0.501961" points="51.471124,46.415902,71.325144,48.193895,55.900251,64.862948,76.945528,62.084971" />
<polygon fill="#302326" fill-opacity="0.501961" points="109.711273,125.135775,151.728643,136.224710,98.758550,132.609909,103.269923,145.288581" />
<polygon fill="#d6cdc1" fill-opacity="0.501961" points="18.630253,187.726684,28.613088,184.245223,29.836406,180.987944,34.307753,187.418531" />
<polygon fill="#ddde99" fill-opacity="0.501961" points="101.892320,61.515494,92.792009,53.221808,82.696570,76.506061,89.972158,80.555709" />
<polygon fill="#fffdff" fill-opacity="0.501961" points="182.222823,75.960379,152.609758,73.889534,226.889554,66.980710,229.070278,77.032426" />
<polygon fill="#4c4434" fill-opacity="0.501961" points="17.067400,156.737975,90.923532,106.741739,4.847020,96.978731,82.711727,122.218065" />
<polygon fill="#607266" fill-opacity="0.501961" points="239.963042,21.194735,239.844906,101.285394,230.745360,126.539823,226.345565,64.977252" />
<polygon fill="#1f320f" fill-opacity="0.501961" points="9.768064,-5.158493,39.740405,16.193173,77.928473,13.490834,40.579365,11.293498" />
<polygon fill="#a5ab98" fill-opacity="0.501961" points="103.606513,5.843750,74.373317,16.207047,127.591422,13.981173,81.231216,12.883953" />
<polygon fill="#2e2829" fill-opacity="0.501961" points="208.820631,20.906978,193.905370,7.446790,198.989171,-16.000000,201.615084,22.855325" />
<polygon fill="#fff5f2" fill-opacity="0.501961" points="75.859046,89.116600,93.133331,82.627861,102.396480,72.662872,80.619843,79.420677" />
<polygon fill="#2c2934" fill-opacity="0.501961" points="223.184757,185.818153,192.220154,172.021637,210.711532,200.913181,271.000000,188.967578" />
<polygon fill="#a9a694" fill-opacity="0.501961" points="109.584296,29.162271,111.138041,19.965014,111.135080,49.664318,121.817324,12.779783" />
<polygon fill="#374431" fill-opacity="0.501961" points="164.261272,49.369550,147.785758,13.129117,161.638304,-10.815682,146.366867,30.032590" />
<polygon fill="#dcd9e6" fill-opacity="0.501961" points="38.847880,22.074595,10.027622,25.014944,73.744824,22.141272,39.879003,22.036691" />
<polygon fill="#817f54" fill-opacity="0.501961" points="35.945996,61.872577,36.944398,56.309706,41.367889,53.192690,58.859439,60.498196" />
<polygon fill="#eaeec8" fill-opacity="0.501961" points="-16.000000,62.133743,2.511194,69.517972,22.894149,50.998665,46.461354,53.791936" />
<polygon fill="#352724" fill-opacity="0.501961" points="181.656676,44.622429,158.681669,46.206112,188.151633,37.121369,163.369118,35.664750" />
<polygon fill="#29401e" fill-opacity="0.501961" points="31.146093,16.583615,53.478756,-8.901481,40.428635,21.469161,82.421007,19.880528" />
<polygon fill="#c4b097" fill-opacity="0.501961" points="-1.116386,109.980579,-16.000000,153.202415,8.883631,140.279548,-14.739599,133.477028" />
<polygon fill="#353d32" fill-opacity="0.501961" points="250.426870,13.674490,252.141840,157.062351,230.980049,141.947909,245.738451,111.862365" />
<polygon fill="#fff4fc" fill-opacity="0.501961" points="216.688085,30.306056,215.400039,27.916010,206.573391,43.857169,198.870692,61.502472" />
<polygon fill="#30382e" fill-opacity="0.501961" points="9.878034,42.612755,31.259596,47.587833,54.046991,44.958427,37.470417,44.205562" />
<polygon fill="#b9a9a7" fill-opacity="0.501961" points="112.146139,48.314300,75.127653,49.685539,126.914932,45.115262,122.914847,45.471238" />
<polygon fill="#bcb6c1" fill-opacity="0.501961" points="29.773799,31.138640,12.148708,32.482788,76.918410,34.015516,37.948541,36.530658" />
<polygon fill="#b9acb1" fill-opacity="0.501961" points="166.005316,23.234215,224.105127,23.520882,215.341522,26.865873,175.948088,23.849548" />
<polygon fill="#212d25" fill-opacity="0.501961" points="91.786027,21.584944,106.856199,23.977726,98.495566,32.456473,110.811996,32.774337" />
<polygon fill="#4c3c36" fill-opacity="0.501961" points="124.923299,119.766451,114.805768,106.654871,108.214539,113.553372,125.528810,123.013015" />
<polygon fill="#282830" fill-opacity="0.501961" points="197.374317,164.292782,162.482442,170.760936,180.476556,163.770195,204.316732,141.649194" />
<polygon fill="#81989c" fill-opacity="0.501961" points="114.513798,109.971615,121.188060,105.101930,132.519348,115.108224,126.651220,119.872334" />
<polygon fill="#c5bed2" fill-opacity="0.501961" points="-16.000000,32.897994,37.299862,44.099330,0.747911,38.909962,-16.000000,29.953354" />
<polygon fill="#38424e" fill-opacity="0.501961" points="31.959184,21.957063,-16.000000,23.628371,9.492017,19.411994,49.522935,20.374274" />
<polygon fill="#535240" fill-opacity="0.501961" points="101.585495,99.869444,102.296690,103.803807,116.050384,101.658932,164.276499,90.491901" />
<polygon fill="#b4e112" fill-opacity="0.501961" points="25.335781,177.955808,36.759322,170.275309,24.643952,170.706727,23.965628,171.408313" />
<polygon fill="#fffbf7" fill-opacity="0.501961" points="15.751534,69.859513,10.781867,68.494710,70.433256,70.526220,79.290305,74.616197" />
<polygon fill="#b2b59b" fill-opacity="0.501961" points="47.369241,13.650951,68.232460,6.090652,48.349669,8.865761,86.709534,9.294833" />
<polygon fill="#8aa38f" fill-opacity="0.501961" points="33.307103,146.300143,26.718109,157.269554,15.294421,162.519376,31.471076,164.952630" />
<polygon fill="#7c8179" fill-opacity="0.501961" points="105.207700,90.022910,140.313107,86.448490,139.363009,77.818847,112.945015,78.049522" />
<polygon fill="#282825" fill-opacity="0.501961" points="81.335734,31.265982,132.193031,32.518396,139.608545,57.969165,137.954784,27.724862" />
<polygon fill="#3d5c46" fill-opacity="0.501961" points="177.753057,114.627265,235.716969,123.702239,256.143434,155.900492,194.657567,135.251386" />
<polygon fill="#968f8e" fill-opacity="0.501961" points="210.605701,14.008767,231.490861,17.951192,170.800354,13.691370,170.496558,8.967175" />
<polygon fill="#f1eee8" fill-opacity="0.501961" points="159.271307,-16.000000,155.016313,-16.000000,165.132414,4.214491,170.639535,5.339709" />
<polygon fill="#163503" fill-opacity="0.501961" points="26.342444,-6.933339,59.395142,-16.000000,44.982029,8.251894,9.656992,14.417932" />
<polygon fill="#000000" fill-opacity="0.501961" points="105.751982,69.476074,109.207215,69.490732,125.289021,57.163142,118.340504,54.928931" />
<polygon fill="#516d0c" fill-opacity="0.501961" points="88.031463,7.229618,75.455897,9.208916,69.823450,15.008568,56.412137,-15.253089" />
<polygon fill="#453e36" fill-opacity="0.501961" points="16.108036,83.653979,37.272303,94.005369,-4.157259,108.378740,-11.523403,102.928457" />
<polygon fill="#cccdd4" fill-opacity="0.501961" points="224.986921,103.413413,225.222731,103.276065,226.954550,97.970918,219.982038,99.517266" />
<polygon fill="#a9a28b" fill-opacity="0.501961" points="224.198308,52.684293,208.880852,59.674253,197.436885,47.187328,138.322311,45.226419" />
<polygon fill="#767858" fill-opacity="0.501961" points="40.881661,50.410470,-16.000000,47.094402,25.877930,51.585362,102.003090,52.212279" />
<polygon fill="#42573d" fill-opacity="0.501961" points="18.685896,152.842265,20.835856,177.108283,76.423822,167.700014,-16.000000,194.647392" />
<polygon fill="#8d675c" fill-opacity="0.501961" points="97.208070,120.258319,85.740017,127.838196,85.923297,100.622219,141.129113,133.743512" />
<polygon fill="#324a24" fill-opacity="0.501961" points="229.844656,-16.000000,221.326505,26.826926,233.181475,19.057948,205.035424,10.948930" />
<polygon fill="#dddadf" fill-opacity="0.501961" points="77.806471,42.673644,15.492148,42.475026,86.271865,40.690865,68.161552,46.568666" />
<polygon fill="#4c4d3f" fill-opacity="0.501961" points="30.368485,36.572615,74.620963,35.414925,39.742040,41.151049,28.685277,39.452169" />
<polygon fill="#783926" fill-opacity="0.501961" points="121.090779,63.631001,121.138612,39.387597,135.507706,44.911518,129.555470,79.703966" />
<polygon fill="#193129" fill-opacity="0.501961" points="110.649738,2.938308,111.028710,13.291802,120.505652,8.884040,98.325597,4.792408" />
<polygon fill="#f8ede4" fill-opacity="0.501961" points="20.172274,86.443853,49.941505,77.776453,-12.586486,72.056436,45.742428,85.316285" />
<polygon fill="#d4c8c4" fill-opacity="0.501961" points="99.113083,26.723216,101.383974,26.447923,141.203433,25.257348,64.691969,30.006998" />
<polygon fill="#30362e" fill-opacity="0.501961" points="219.329430,-0.706945,186.661852,-4.576990,197.017992,10.780452,152.733502,7.250567" />
<polygon fill="#83b338" fill-opacity="0.501961" points="54.727905,185.242250,59.580757,173.800264,63.987992,175.008409,67.214628,176.303241" />
<polygon fill="#64626b" fill-opacity="0.501961" points="238.531094,186.485168,223.752013,186.062288,184.570551,164.530088,245.616284,167.097248" />
<polygon fill="#e4e0e4" fill-opacity="0.501961" points="98.765099,105.355959,103.605506,107.811798,114.122871,104.171138,102.673583,104.101543" />
<polygon fill="#414652" fill-opacity="0.501961" points="2.168228,24.996335,52.069860,30.906972,3.220410,28.648643,-10.177710,28.727030" />
<polygon fill="#d3cceb" fill-opacity="0.501961" points="26.202007,31.875891,3.775084,33.377939,25.577576,36.163648,-5.152702,28.145081" />
<polygon fill="#766b41" fill-opacity="0.501961" points="73.934308,70.030121,63.042859,66.441671,85.210892,67.676153,93.406052,69.865814" />
<polygon fill="#a2ab94" fill-opacity="0.501961" points="87.839875,-6.380299,90.256088,14.781212,22.717521,17.301326,86.855940,17.499549" />
<polygon fill="#2e3136" fill-opacity="0.501961" points="197.147430,21.647734,171.983930,22.421879,167.137685,16.619271,197.938379,14.136926" />
<polygon fill="#818993" fill-opacity="0.501961" points="222.725733,161.371030,196.748169,169.561210,206.854215,149.425476,271.000000,172.451934" />
<polygon fill="#a2b191" fill-opacity="0.501961" points="235.681376,32.517551,239.217866,45.124642,237.431619,48.039649,240.041320,30.866505" />
<polygon fill="#1d1525" fill-opacity="0.501961" points="112.854588,81.311429,114.424237,89.989929,122.882188,20.868973,112.144911,83.807607" />
<polygon fill="#514835" fill-opacity="0.501961" points="99.581916,40.461971,131.962574,45.158738,130.702137,43.029327,83.242968,47.489540" />
<polygon fill="#a89895" fill-opacity="0.501961" points="140.893863,41.203237,141.201236,37.515369,195.206105,40.935521,137.463869,40.032462" />
<polygon fill="#767258" fill-opacity="0.501961" points="213.002405,38.740107,217.169206,56.530622,213.641748,55.986127,220.710412,36.293605" />
<polygon fill="#b0b28f" fill-opacity="0.501961" points="138.766915,54.357646,163.992669,52.795546,155.582412,68.333580,170.938875,73.416053" />
<polygon fill="#49484c" fill-opacity="0.501961" points="213.973918,27.241714,197.109535,30.800059,201.035657,25.409006,212.016725,24.720805" />
<polygon fill="#bdb790" fill-opacity="0.501961" points="228.101572,55.366391,200.857725,69.272413,209.996986,45.801867,226.433790,42.984969" />
<polygon fill="#dadbd5" fill-opacity="0.501961" points="24.808734,61.685611,28.593508,48.173957,88.379595,48.870480,27.712346,49.871108" />
<polygon fill="#958f8f" fill-opacity="0.501961" points="215.363850,95.949089,161.110062,106.417759,158.720617,79.538676,195.278865,95.913337" />
<polygon fill="#596067" fill-opacity="0.501961" points="154.148348,121.961730,159.189799,170.608248,162.284828,98.992994,170.167137,119.260327" />
<polygon fill="#0a0710" fill-opacity="0.501961" points="143.751039,32.429930,121.664550,32.381417,137.681137,41.542394,139.270573,27.400958" />
<polygon fill="#cdb6a6" fill-opacity="0.501961" points="211.425788,27.101071,230.425269,31.495681,221.572120,21.004885,211.310793,34.365823" />
<polygon fill="#888873" fill-opacity="0.501961" points="49.505724,118.294303,25.108204,125.017076,26.292139,105.355436,37.048307,115.590772" />
<polygon fill="#7b6d50" fill-opacity="0.501961" points="24.119698,64.932660,26.246259,69.387290,39.230779,69.890926,23.964996,62.662727" />
<polygon fill="#123512" fill-opacity="0.501961" points="166.456244,9.270629,155.063004,-7.431426,157.943742,18.364380,144.583483,-15.580614" />
<polygon fill="#574c3e" fill-opacity="0.501961" points="35.650627,81.462456,49.847249,79.671320,68.650896,95.740472,45.984357,87.601179" />
<polygon fill="#9f9a95" fill-opacity="0.501961" points="183.815837,0.400263,209.881951,5.539121,153.599352,-1.136277,125.821333,-3.099916" />
<polygon fill="#5e554c" fill-opacity="0.501961" points="229.399169,15.246096,226.866681,24.376948,251.519539,-16.000000,271.000000,53.293962" />
<polygon fill="#afb7a8" fill-opacity="0.501961" points="75.814640,9.980184,89.947076,7.969085,140.582325,5.488404,92.603034,9.184377" />
<polygon fill="#d2c2c9" fill-opacity="0.501961" points="219.687472,37.146791,215.905918,35.977765,198.562110,28.466275,217.717530,31.040180" />
<polygon fill="#c2c5c5" fill-opacity="0.501961" points="98.785419,1.259644,121.378656,1.098186,102.484194,3.225839,95.153876,0.976826" />
<polygon fill="#7f878a" fill-opacity="0.501961" points="79.902420,154.025972,86.962598,147.768744,97.571484,155.894730,76.846026,149.616543" />
<polygon fill="#34343d" fill-opacity="0.501961" points="-7.221619,32.292577,-0.545168,50.970539,-16.000000,41.912834,9.373904,35.320184" />
<polygon fill="#bdbebd" fill-opacity="0.501961" points="75.593714,47.161227,73.097013,41.572602,86.833394,49.655258,116.511367,47.040568" />
<polygon fill="#454636" fill-opacity="0.501961" points="271.000000,61.582634,237.645092,48.348855,250.462543,41.149116,212.398531,26.456478" />
<polygon fill="#f2efe8" fill-opacity="0.501961" points="77.200580,73.769801,27.718291,64.550860,52.073378,60.507986,33.667707,70.894655" />
<polygon fill="#1b3622" fill-opacity="0.501961" points="109.916174,8.018368,122.120176,11.491191,96.618932,13.129229,94.306451,11.192626" />
<polygon fill="#393332" fill-opacity="0.501961" points="235.059647,114.526380,266.004325,99.492365,246.034001,75.785352,249.807442,122.199489" />
<polygon fill="#ac9ea6" fill-opacity="0.501961" points="170.898556,75.497242,187.629129,76.640668,167.488361,80.979566,155.064910,101.995375" />
<polygon fill="#d8c8d1" fill-opacity="0.501961" points="79.227413,30.066020,59.289220,29.456920,61.815957,31.116929,91.251468,27.539941" />
<polygon fill="#d1d6a2" fill-opacity="0.501961" points="190.496092,54.474445,173.892659,55.547077,178.879291,58.756880,217.671754,72.005106" />
<polygon fill="#323c33" fill-opacity="0.501961" points="75.035038,14.701247,35.993984,13.485636,86.984787,10.811822,56.529366,20.911247" />
<polygon fill="#4c453d" fill-opacity="0.501961" points="75.685282,31.375686,108.920065,31.145732,39.134839,33.949002,77.052727,30.493523" />
<polygon fill="#bfb8ab" fill-opacity="0.501961" points="56.141459,31.975626,73.694873,30.352966,49.879090,28.361034,62.208774,58.711292" />
<polygon fill="#98a38e" fill-opacity="0.501961" points="120.828173,6.080562,146.240943,6.135123,122.180064,8.541795,113.023534,41.919258" />
<polygon fill="#64391d" fill-opacity="0.501961" points="141.703067,59.671450,151.130406,64.087190,155.672676,83.310519,140.975800,74.290936" />
<polygon fill="#899652" fill-opacity="0.501961" points="170.760205,59.001946,169.107658,45.316835,181.665869,66.091699,158.215624,64.191142" />
<polygon fill="#c1b9c4" fill-opacity="0.501961" points="19.018765,34.015026,28.182032,25.005464,23.982751,37.780444,20.682330,49.750919" />
<polygon fill="#c4bdbc" fill-opacity="0.501961" points="-8.003365,33.368584,10.325892,2.536441,6.403057,20.274026,6.139541,16.224297" />
<polygon fill="#8c7c6a" fill-opacity="0.501961" points="86.783165,82.102060,72.499234,113.756948,67.696259,109.072045,89.868759,100.610755" />
<polygon fill="#876356" fill-opacity="0.501961" points="160.352097,104.498432,148.516020,110.081831,117.223791,127.840149,141.828009,130.104733" />
<polygon fill="#d3cbc2" fill-opacity="0.501961" points="79.688981,64.414744,49.303173,60.756815,83.877579,53.739051,50.084101,52.729880" />
<polygon fill="#3b4955" fill-opacity="0.501961" points="212.584085,101.530295,209.091764,94.882509,173.356567,96.077766,228.899723,92.679021" />
<polygon fill="#7d7764" fill-opacity="0.501961" points="72.126477,55.964149,65.021154,59.051339,80.622791,59.417198,87.277208,35.443114" />
<polygon fill="#625b4c" fill-opacity="0.501961" points="118.177065,82.389275,125.700504,108.396967,83.545323,105.370827,111.137422,114.874925" />
<polygon fill="#4b5149" fill-opacity="0.501961" points="152.853423,22.899549,123.111512,24.670705,134.573769,33.259325,118.669670,21.749521" />
<polygon fill="#f4eddc" fill-opacity="0.501961" points="80.467093,72.194881,32.743686,70.496675,102.787996,81.602558,46.372782,82.279517" />
<polygon fill="#cee085" fill-opacity="0.501961" points="8.977884,64.633820,35.594837,63.087569,29.563656,53.504331,11.244715,69.533243" />
<polygon fill="#908e88" fill-opacity="0.501961" points="148.983505,13.929640,145.655621,38.709140,149.876171,7.150172,137.929180,14.644114" />
<polygon fill="#b0a0a4" fill-opacity="0.501961" points="218.174639,42.211381,195.043724,42.879426,181.363448,41.594955,158.462968,38.918645" />
<polygon fill="#fffaef" fill-opacity="0.501961" points="226.423828,65.645167,227.470638,66.768494,214.592818,68.130905,196.266867,64.251978" />
<polygon fill="#5e644e" fill-opacity="0.501961" points="17.192256,169.909200,40.141997,160.150570,31.169938,148.287747,95.954333,170.669053" />
<polygon fill="#3d3a32" fill-opacity="0.501961" points="148.980016,31.828883,192.759394,33.962492,183.923168,30.307908,167.036316,28.389582" />
<polygon fill="#2c323a" fill-opacity="0.501961" points="65.642517,145.358973,67.766022,163.206495,53.792999,159.851340,52.953834,161.624015" />
<polygon fill="#3a4231" fill-opacity="0.501961" points="229.360279,60.171300,245.495900,52.947323,255.197920,65.238715,246.946689,35.546465" />
<polygon fill="#fffef7" fill-opacity="0.501961" points="-5.913798,72.187831,-1.938609,84.276036,14.459620,85.359883,12.470308,73.846956" />
<polygon fill="#f2e7de" fill-opacity="0.501961" points="68.216412,89.962820,95.306494,75.578692,106.455355,69.697782,95.995857,83.021810" />
<polygon fill="#959389" fill-opacity="0.501961" points="120.218648,10.958346,114.763949,31.590467,80.230840,33.390176,118.224008,35.926305" />
<polygon fill="#405134" fill-opacity="0.501961" points="136.063753,11.503232,142.114012,20.626474,94.395522,16.193392,115.434100,14.578581" />
<polygon fill="#222228" fill-opacity="0.501961" points="62.189839,128.098786,68.436140,133.078558,70.916264,128.480017,67.830073,123.611787" />
<polygon fill="#385100" fill-opacity="0.501961" points="115.031242,-4.186894,84.749047,-16.000000,84.848460,11.007707,68.645992,-2.832935" />
<polygon fill="#1b3c1d" fill-opacity="0.501961" points="4.362279,4.160622,-6.186679,8.620705,0.645267,17.839316,3.234310,14.798073" />
<polygon fill="#b4b0ad" fill-opacity="0.501961" points="214.740816,14.791922,189.396402,11.108667,216.300328,18.416055,224.770985,17.490655" />
<polygon fill="#aea19c" fill-opacity="0.501961" points="150.313723,25.676699,163.127448,26.613360,124.364038,25.789947,145.010000,23.510438" />
<polygon fill="#0c1721" fill-opacity="0.501961" points="74.879658,18.019022,61.569318,17.248392,70.435181,21.833775,68.898007,23.191839" />
<polygon fill="#607662" fill-opacity="0.501961" points="216.488168,124.699016,143.018359,164.277639,193.499577,138.887790,179.325900,159.716889" />
<polygon fill="#606766" fill-opacity="0.501961" points="179.542012,104.572973,171.416826,90.868722,168.745088,95.430317,249.711512,129.728546" />
<polygon fill="#a59d8c" fill-opacity="0.501961" points="237.167599,53.444462,205.980353,61.328089,225.528671,66.190093,226.101082,31.008052" />
<polygon fill="#a4a9ab" fill-opacity="0.501961" points="119.593127,20.926544,115.641871,20.992174,100.003577,22.363563,100.276426,18.989527" />
<polygon fill="#d9dba5" fill-opacity="0.501961" points="186.185216,70.383351,153.731122,62.720144,153.092223,70.868318,208.890849,66.512933" />
<polygon fill="#606f62" fill-opacity="0.501961" points="245.122312,91.174335,224.721230,78.734335,252.854757,117.282018,224.647669,107.327131" />
<polygon fill="#939480" fill-opacity="0.501961" points="117.577147,41.961055,89.055969,39.584960,71.227455,33.676229,85.161675,42.131914" />
<polygon fill="#8d9c9f" fill-opacity="0.501961" points="240.593143,110.693925,243.360993,103.168307,234.193355,109.685606,223.842054,108.493981" />
<polygon fill="#6b6f78" fill-opacity="0.501961" points="176.143322,129.184570,172.627322,137.078981,122.357184,140.021057,147.380924,147.817222" />
<polygon fill="#857f70" fill-opacity="0.501961" points="58.389251,133.192338,19.517353,129.241934,68.963625,134.796501,65.740176,148.231712" />
<polygon fill="#2f3119" fill-opacity="0.501961" points="157.335209,48.568242,168.974552,55.870736,164.339054,40.851089,185.454885,44.180486" />
<polygon fill="#bba99e" fill-opacity="0.501961" points="208.043368,87.311624,206.105277,93.108175,191.876990,93.029937,181.621960,83.952790" />
<polygon fill="#3b362a" fill-opacity="0.501961" points="59.143224,102.180915,66.502648,112.392326,51.596734,120.797362,43.903995,114.934165" />
<polygon fill="#b6bea6" fill-opacity="0.501961" points="137.752420,1.447529,96.266950,2.162047,147.871759,-3.100816,178.935324,-6.760523" />
<polygon fill="#4b515a" fill-opacity="0.501961" points="172.852980,159.046953,117.263692,141.869699,85.954846,155.586451,155.551238,167.322677" />
<polygon fill="#8b846d" fill-opacity="0.501961" points="76.422959,117.132555,61.381319,123.767383,27.287981,119.884725,38.437610,119.383960" />
<polygon fill="#272b32" fill-opacity="0.501961" points="80.962617,163.476359,138.801795,174.393516,153.675703,173.480186,148.226963,166.636074" />
<polygon fill="#6e4732" fill-opacity="0.501961" points="89.433036,123.751325,94.880937,93.159150,105.324511,69.060144,110.691672,75.480461" />
<polygon fill="#caa797" fill-opacity="0.501961" points="0.106825,70.933974,26.121572,73.879529,21.416191,69.800968,4.515049,71.008778" />
<polygon fill="#423b2c" fill-opacity="0.501961" points="70.382961,86.139801,59.184480,83.713989,42.158837,83.081532,46.686376,95.696493" />
<polygon fill="#f1f2e3" fill-opacity="0.501961" points="17.449242,48.056257,18.798246,49.097896,11.891121,51.554132,28.493969,61.402708" />
<polygon fill="#364a3a" fill-opacity="0.501961" points="271.000000,158.580937,219.515599,117.682094,189.429745,140.007421,198.702498,115.831859" />
<polygon fill="#b9aeb3" fill-opacity="0.501961" points="111.948392,39.360695,117.893860,39.281494,110.805665,40.735176,94.034606,41.684202" />
<polygon fill="#e1d1d2" fill-opacity="0.501961" points="222.284307,36.978573,202.674646,34.133021,221.556967,33.926111,229.449558,34.161007" />
<polygon fill="#95837b" fill-opacity="0.501961" points="138.388235,35.618838,146.763300,37.150896,188.549830,33.238701,136.821040,35.027779" />
<polygon fill="#47543b" fill-opacity="0.501961" points="-9.284799,54.500426,-13.135465,63.115928,-16.000000,41.710164,9.345164,58.010225" />
<polygon fill="#2d2919" fill-opacity="0.501961" points="85.780065,106.097764,83.202552,116.199904,84.357081,119.300515,73.232799,106.739733" />
<polygon fill="#ded4d3" fill-opacity="0.501961" points="212.141798,-16.000000,190.528225,38.479616,178.337059,67.137397,202.570625,15.039274" />
<polygon fill="#504749" fill-opacity="0.501961" points="202.747772,46.832940,205.612207,43.504454,191.934449,48.747493,192.523200,39.699184" />
<polygon fill="#c8c0c4" fill-opacity="0.501961" points="93.874587,34.624722,73.335576,34.471276,43.967672,35.195802,83.632283,32.629849" />
<polygon fill="#bbc6c3" fill-opacity="0.501961" points="168.177623,154.432236,189.105412,142.181202,173.479136,163.071472,179.161983,164.885797" />
<polygon fill="#adb889" fill-opacity="0.501961" points="49.830686,8.132703,68.129552,2.488723,63.106337,-16.000000,67.829180,11.314485" />
<polygon fill="#6b6976" fill-opacity="0.501961" points="29.971782,34.125001,-16.000000,29.214869,53.371298,39.746346,33.721478,36.860990" />
<polygon fill="#422313" fill-opacity="0.501961" points="182.975264,118.375509,181.745796,132.300307,169.782000,116.129333,172.346319,112.004677" />
<polygon fill="#213726" fill-opacity="0.501961" points="224.612695,139.792668,207.770315,147.584544,199.762092,140.670952,185.699884,160.464184" />
<polygon fill="#e3e0e2" fill-opacity="0.501961" points="271.000000,171.240080,246.308393,157.734806,243.418392,159.037202,262.932115,168.122108" />
<polygon fill="#c3c1c0" fill-opacity="0.501961" points="179.126629,93.033241,162.683146,104.254136,175.404874,103.527687,192.003629,57.473937" />
<polygon fill="#2b4029" fill-opacity="0.501961" points="211.847026,8.134616,201.717795,5.321812,243.103923,7.566676,204.628099,11.965014" />
<polygon fill="#3c4349" fill-opacity="0.501961" points="17.773791,25.001463,63.250180,25.587814,29.171594,26.844151,13.259099,29.615428" />
<polygon fill="#c7cdae" fill-opacity="0.501961" points="87.544099,15.643567,97.325107,16.037880,70.986693,15.614490,92.730387,12.464645" />
<polygon fill="#fffdfa" fill-opacity="0.501961" points="54.411188,78.023157,44.776676,77.225378,58.328087,81.685557,63.799307,59.705218" />
<polygon fill="#7f8b84" fill-opacity="0.501961" points="226.334087,68.505265,227.576135,110.035587,241.676180,120.442521,229.482741,131.026047" />
<polygon fill="#9697a5" fill-opacity="0.501961" points="32.853433,14.438356,26.790686,16.520202,24.311175,12.547731,31.168041,11.690549" />
<polygon fill="#5c7770" fill-opacity="0.501961" points="174.657236,186.184212,198.391453,190.336254,198.029352,191.041062,166.246986,207.000000" />
<polygon fill="#655a53" fill-opacity="0.501961" points="171.944469,108.008551,122.715981,123.913428,147.156099,104.787789,181.456009,105.121448" />
<polygon fill="#62605b" fill-opacity="0.501961" points="73.955428,30.767074,29.777270,35.528026,19.192016,33.475258,63.315395,32.628605" />
<polygon fill="#93866f" fill-opacity="0.501961" points="32.270109,63.812818,40.503888,79.257034,40.120508,72.046016,23.070033,65.174429" />
<polygon fill="#d9c7ce" fill-opacity="0.501961" points="216.554575,45.479350,206.338564,47.117155,222.356590,48.166247,226.463427,44.061741" />
<polygon fill="#414a52" fill-opacity="0.501961" points="199.425829,87.103731,221.029382,87.688007,205.357558,93.160447,259.193006,107.509056" />
<polygon fill="#4f4b41" fill-opacity="0.501961" points="65.258417,123.548571,-6.536667,123.678198,11.303020,140.371109,13.990441,126.971073" />
<polygon fill="#f9f6f9" fill-opacity="0.501961" points="226.540152,64.314498,225.298862,81.400564,204.348990,87.848263,185.506919,74.450099" />
<polygon fill="#4c5645" fill-opacity="0.501961" points="118.151025,27.139807,120.624996,39.966968,115.111148,20.454849,108.945217,22.910561" />
<polygon fill="#7a7a55" fill-opacity="0.501961" points="52.012670,165.568211,33.590004,147.632358,53.193746,143.212129,28.437981,165.948277" />
<polygon fill="#c1b5b0" fill-opacity="0.501961" points="59.275787,98.545329,53.449311,94.235777,63.571809,93.366917,69.924386,88.096790" />
<polygon fill="#9f988a" fill-opacity="0.501961" points="154.263719,55.755818,163.079695,103.520731,152.297905,53.309941,164.637758,2.295459" />
<polygon fill="#3d5020" fill-opacity="0.501961" points="234.482170,13.982613,230.187846,42.082810,235.595169,30.411007,220.489221,21.700928" />
<polygon fill="#453a36" fill-opacity="0.501961" points="189.670748,35.276190,187.516052,35.731476,159.699078,37.344038,188.770316,40.768130" />
<polygon fill="#5d6b22" fill-opacity="0.501961" points="49.635108,-16.000000,65.989558,-16.000000,39.660042,16.296800,50.843883,21.449345" />
<polygon fill="#5e6d73" fill-opacity="0.501961" points="202.762085,99.504492,197.482382,127.693702,181.969447,119.213593,183.666726,146.489196" />
<polygon fill="#251118" fill-opacity="0.501961" points="155.004458,123.120919,143.797793,122.913835,149.354479,133.189858,151.770204,127.085701" />
<polygon fill="#5c6e53" fill-opacity="0.501961" points="111.133498,189.694256,11.893722,207.000000,50.614406,174.735736,60.843951,188.418288" />
<polygon fill="#877a5e" fill-opacity="0.501961" points="1.870224,122.242781,17.390569,114.613363,13.904417,102.251738,2.321192,119.414759" />
<polygon fill="#a39a90" fill-opacity="0.501961" points="163.112435,8.525174,155.751472,25.050245,192.175746,28.520772,161.003329,27.162219" />
<polygon fill="#a2a39e" fill-opacity="0.501961" points="134.699349,20.961695,91.926457,19.909872,154.709048,23.029558,116.656486,18.263982" />
<polygon fill="#1e382b" fill-opacity="0.501961" points="160.942164,6.825966,163.971110,-16.000000,156.864627,23.186417,146.988405,20.384365" />
<polygon fill="#827769" fill-opacity="0.501961" points="33.347192,97.405630,21.140040,98.926079,48.887399,102.621156,87.888257,98.594185" />
<polygon fill="#39393a" fill-opacity="0.501961" points="204.416326,18.529500,191.829005,-0.723651,244.700244,-16.000000,187.806658,6.233699" />
<polygon fill="#73684b" fill-opacity="0.501961" points="101.710219,53.327338,96.562955,52.657256,110.372881,62.118142,98.462921,71.952546" />
<polygon fill="#a4a09d" fill-opacity="0.501961" points="169.924450,100.589295,201.812095,82.542409,163.955985,87.977931,207.449465,104.132840" />
<polygon fill="#47463a" fill-opacity="0.501961" points="71.769135,31.251805,104.796222,28.078045,113.227242,33.266355,107.155329,32.848324" />
<polygon fill="#737178" fill-opacity="0.501961" points="146.957607,181.945640,193.974489,169.066676,175.694231,183.669953,178.346480,172.263733" />
<polygon fill="#b4a2a3" fill-opacity="0.501961" points="163.531906,35.060555,177.339041,33.867496,195.786999,34.060024,205.636375,34.538059" />
<polygon fill="#645634" fill-opacity="0.501961" points="25.625714,65.709132,26.175729,68.444932,32.536307,68.823073,41.971617,67.280461" />
<polygon fill="#aea37f" fill-opacity="0.501961" points="149.292437,61.354284,143.565075,12.597391,153.916910,72.506091,166.403763,71.459491" />
<polygon fill="#21211e" fill-opacity="0.501961" points="111.822718,38.779332,92.451246,35.681827,134.497415,34.430805,109.775207,38.242168" />
<polygon fill="#79745e" fill-opacity="0.501961" points="231.726339,52.913022,221.445229,51.308916,233.088137,15.683713,221.776089,42.880888" />
<polygon fill="#edebc8" fill-opacity="0.501961" points="-8.693353,68.417163,28.556984,70.520859,5.937245,64.296111,-8.318663,40.605873" />
<polygon fill="#aba3a1" fill-opacity="0.501961" points="128.325350,20.243449,109.781483,20.523232,170.519787,23.425282,173.162658,23.154716" />
<polygon fill="#4b4538" fill-opacity="0.501961" points="26.663395,92.653543,2.388825,85.392366,28.934759,111.751752,13.591572,121.043952" />
<polygon fill="#6d7052" fill-opacity="0.501961" points="69.694804,52.629204,79.784751,50.481973,124.268626,47.577596,105.597330,54.831960" />
<polygon fill="#bbafa8" fill-opacity="0.501961" points="105.032491,92.617814,112.572368,81.016297,106.008662,97.548240,114.721581,96.881743" />
<polygon fill="#233d29" fill-opacity="0.501961" points="91.771707,3.512240,93.707327,7.034657,121.260017,2.204754,99.117252,4.540914" />
<polygon fill="#153026" fill-opacity="0.501961" points="113.172023,5.698310,90.940108,6.081009,92.082169,7.344812,111.984195,3.141850" />
<polygon fill="#5d5346" fill-opacity="0.501961" points="147.186933,53.870606,129.016457,49.000891,166.532741,44.888831,156.138852,44.503872" />
<polygon fill="#334039" fill-opacity="0.501961" points="101.004941,21.088222,105.855970,29.675848,97.874725,15.332742,121.249385,15.205461" />
<polygon fill="#f4eff5" fill-opacity="0.501961" points="1.349751,18.796817,-16.000000,36.218145,-16.000000,15.824752,17.372366,19.021786" />
<polygon fill="#777b5c" fill-opacity="0.501961" points="61.694840,47.661470,72.833459,44.271243,38.619808,43.643374,46.023999,47.147869" />
<polygon fill="#c3c584" fill-opacity="0.501961" points="91.826918,68.646565,88.999608,78.837139,101.491645,64.439852,82.867717,44.142768" />
<polygon fill="#d3cfdc" fill-opacity="0.501961" points="8.690769,22.928004,10.276043,24.223907,68.669411,21.431238,53.253700,23.718712" />
<polygon fill="#89815f" fill-opacity="0.501961" points="65.014615,69.730219,89.700745,64.633022,71.141637,72.789973,66.891674,60.357422" />
<polygon fill="#dac5c1" fill-opacity="0.501961" points="24.511944,187.505426,23.468339,188.642303,35.610411,188.665133,32.771367,186.150115" />
<polygon fill="#315222" fill-opacity="0.501961" points="123.134669,11.743869,144.983540,19.966934,121.857626,3.171422,126.043242,10.460677" />
<polygon fill="#313c3e" fill-opacity="0.501961" points="67.274536,15.034784,76.913384,12.176229,16.289139,17.269782,11.858777,13.948882" />
<polygon fill="#f5eadb" fill-opacity="0.501961" points="91.138543,74.218763,52.547384,81.643556,84.631334,80.873187,86.688058,66.839170" />
<polygon fill="#9db8ac" fill-opacity="0.501961" points="24.012744,156.383256,30.922533,160.961579,22.598135,164.257520,21.793992,168.815297" />
<polygon fill="#bac3ce" fill-opacity="0.501961" points="97.139361,1.898493,95.983055,-16.000000,111.487264,-14.514827,98.757107,4.855965" />
<polygon fill="#738783" fill-opacity="0.501961" points="118.233087,109.055852,152.253704,99.831368,144.488967,108.796314,110.236663,105.133073" />
<polygon fill="#dddade" fill-opacity="0.501961" points="102.715584,55.553687,69.961444,53.816166,58.330839,52.440752,51.611515,54.481588" />
<polygon fill="#03050e" fill-opacity="0.501961" points="118.711167,47.587194,116.890854,35.004637,138.931165,35.385195,120.037791,30.210158" />
<polygon fill="#e2d8e1" fill-opacity="0.501961" points="84.727173,28.084340,73.067097,29.779080,38.304008,31.560875,52.368454,32.143416" />
<polygon fill="#292f2d" fill-opacity="0.501961" points="177.805050,169.599800,224.034110,130.497404,168.498250,171.913528,165.684105,156.953402" />
<polygon fill="#c6c0b6" fill-opacity="0.501961" points="110.216270,25.766699,101.875747,26.731168,106.446640,27.245920,116.666198,31.154915" />
<polygon fill="#797170" fill-opacity="0.501961" points="191.521153,35.233570,205.997391,45.013676,222.826768,2.893459,209.649223,35.727070" />
<polygon fill="#978175" fill-opacity="0.501961" points="127.737808,130.223094,137.461671,128.242579,126.458612,123.319596,107.572682,120.458848" />
<polygon fill="#80864e" fill-opacity="0.501961" points="99.416127,62.803132,88.569883,58.661509,95.733448,55.815153,74.677470,57.252621" />
<polygon fill="#d8ccd2" fill-opacity="0.501961" points="209.604325,30.715511,211.088583,40.758670,194.004110,42.755589,213.411572,44.083538" />
<polygon fill="#fdffd1" fill-opacity="0.501961" points="198.579420,63.156415,199.786094,71.182075,189.896130,58.668038,175.514251,69.841764" />
<polygon fill="#3b3d3f" fill-opacity="0.501961" points="172.931323,122.438070,198.461617,108.903424,190.048766,107.981220,164.631402,129.165035" />
<polygon fill="#737774" fill-opacity="0.501961" points="70.019923,137.039983,42.534116,139.123210,77.810106,130.964156,106.379169,142.354192" />
<polygon fill="#3b302c" fill-opacity="0.501961" points="111.747576,107.007723,116.157853,108.337804,124.618399,121.169682,121.506196,120.040954" />
<polygon fill="#d6cedd" fill-opacity="0.501961" points="17.830343,48.783728,33.379065,49.483674,12.537865,46.934397,-3.432070,47.367607" />
<polygon fill="#424048" fill-opacity="0.501961" points="192.945730,181.708055,128.081480,207.000000,79.050907,152.213153,117.580990,183.472059" />
<polygon fill="#53534e" fill-opacity="0.501961" points="205.550014,18.617140,209.575239,23.405141,215.504499,21.103928,219.907315,17.627089" />
<polygon fill="#9c9fa6" fill-opacity="0.501961" points="156.248325,174.005426,158.845697,180.497544,165.759929,177.878968,158.466821,172.401438" />
<polygon fill="#e0d9e3" fill-opacity="0.501961" points="60.370860,54.058096,49.719985,54.667465,12.526762,51.696500,53.414491,53.025108" />
<polygon fill="#484b43" fill-opacity="0.501961" points="148.904512,8.103213,175.146011,24.481392,139.982594,22.803054,179.320893,26.872372" />
<polygon fill="#6e3e2f" fill-opacity="0.501961" points="132.726632,35.113007,119.636921,44.511773,124.539091,77.620544,134.140969,68.928322" />
<polygon fill="#e6e4ed" fill-opacity="0.501961" points="13.884045,32.666288,16.352400,31.800280,29.176369,31.109862,55.926591,31.669506" />
<polygon fill="#201b20" fill-opacity="0.501961" points="115.818816,131.744483,110.946170,129.487936,118.446341,128.158654,146.166991,136.982282" />
<polygon fill="#6b6f5f" fill-opacity="0.501961" points="267.647341,10.763409,217.597461,3.682561,252.751711,4.260357,252.532327,15.726954" />
<polygon fill="#7c7f81" fill-opacity="0.501961" points="135.340528,145.622435,143.153058,147.512770,162.987580,146.394219,153.848572,139.256421" />
<polygon fill="#6b6057" fill-opacity="0.501961" points="220.128110,39.788257,219.178124,44.865345,217.270310,46.118247,211.991311,38.783856" />
<polygon fill="#473c37" fill-opacity="0.501961" points="93.203484,117.243201,105.568284,140.637478,105.730547,126.067164,89.419044,110.596893" />
<polygon fill="#41473b" fill-opacity="0.501961" points="271.000000,46.111323,250.511976,-16.000000,271.000000,78.386257,227.023410,67.553368" />
<polygon fill="#c5d7c2" fill-opacity="0.501961" points="171.922196,-16.000000,125.588271,4.169804,132.473544,6.677013,125.255699,-16.000000" />
<polygon fill="#647478" fill-opacity="0.501961" points="220.159364,130.337569,203.150694,132.195774,229.840575,104.105842,193.360745,109.042659" />
<polygon fill="#c1b9c7" fill-opacity="0.501961" points="11.740391,36.644740,19.375044,42.216239,-5.095085,36.603312,-16.000000,43.329714" />
<polygon fill="#e9e2db" fill-opacity="0.501961" points="194.289346,30.738092,203.482636,7.544474,186.095519,48.023747,177.591326,74.964691" />
<polygon fill="#9c8d73" fill-opacity="0.501961" points="205.681173,57.644082,207.159590,68.906326,203.524247,53.110152,211.508709,46.465642" />
<polygon fill="#a09786" fill-opacity="0.501961" points="112.701450,30.236492,112.577896,35.358718,109.655712,59.753659,119.030427,13.820684" />
<polygon fill="#faf5ec" fill-opacity="0.501961" points="31.011713,72.600404,48.197915,60.491237,25.381308,85.452878,-0.355299,76.294351" />
<polygon fill="#384445" fill-opacity="0.501961" points="54.302549,23.968154,49.542408,27.979156,38.506385,31.132278,32.048892,24.893946" />
<polygon fill="#1c201f" fill-opacity="0.501961" points="72.864788,23.187670,70.958565,11.383356,73.587301,28.790316,63.105501,29.773289" />
<polygon fill="#001d00" fill-opacity="0.501961" points="9.690784,6.491724,81.791000,-10.547278,7.438701,-3.042839,17.308349,-1.430874" />
<polygon fill="#44423e" fill-opacity="0.501961" points="28.630090,145.047551,43.055565,131.711175,54.546290,146.918387,65.535692,137.343405" />
<polygon fill="#32302d" fill-opacity="0.501961" points="145.690000,111.220524,143.101916,110.325070,150.634087,103.218437,149.498094,109.354033" />
<polygon fill="#565a3d" fill-opacity="0.501961" points="78.027174,44.364278,93.655032,42.046943,112.944760,46.085663,92.661618,46.918840" />
<polygon fill="#222d24" fill-opacity="0.501961" points="80.936093,16.455877,62.090592,17.816241,60.137360,18.434017,69.200462,18.866365" />
<polygon fill="#868979" fill-opacity="0.501961" points="136.686524,91.392603,124.612734,88.879747,134.270812,75.049899,136.797217,60.975843" />
<polygon fill="#677279" fill-opacity="0.501961" points="153.280270,159.124024,162.312090,158.669620,177.266974,148.213844,171.778866,147.732992" />
<polygon fill="#4a475a" fill-opacity="0.501961" points="-14.259815,50.818442,-14.351683,49.507637,-16.000000,45.575529,10.374517,49.597972" />
<polygon fill="#d3cbac" fill-opacity="0.501961" points="204.058490,55.626491,229.255923,52.264174,193.795166,59.858228,205.434421,68.780470" />
<polygon fill="#91998c" fill-opacity="0.501961" points="8.111503,6.493503,14.231942,9.707464,19.504789,9.276692,-2.802316,10.835524" />
<polygon fill="#534f59" fill-opacity="0.501961" points="227.885818,181.732348,267.243473,187.460340,232.504278,169.751497,226.625959,170.848137" />
<polygon fill="#c1b6a5" fill-opacity="0.501961" points="147.090610,14.976093,145.048935,7.923363,145.453753,31.367699,146.751303,18.764379" />
<polygon fill="#816454" fill-opacity="0.501961" points="114.622108,55.415009,107.391314,58.339552,132.885188,36.257880,122.962273,36.476493" />
<polygon fill="#344a3e" fill-opacity="0.501961" points="238.090543,119.118249,189.954608,128.799322,163.909136,141.678225,185.180359,133.458110" />
<polygon fill="#716558" fill-opacity="0.501961" points="51.502946,120.743779,88.237170,85.623897,61.624056,93.415229,73.613801,97.169462" />
<polygon fill="#2a2036" fill-opacity="0.501961" points="150.547984,91.606291,137.988180,64.478098,144.994059,96.529285,134.396479,93.947655" />
<polygon fill="#889062" fill-opacity="0.501961" points="43.067407,54.023782,51.483707,55.921897,55.626601,58.310024,23.253374,54.262345" />
<polygon fill="#768a97" fill-opacity="0.501961" points="234.654244,108.534347,207.466102,107.374027,210.558666,101.033145,238.240223,115.662439" />
<polygon fill="#47563c" fill-opacity="0.501961" points="49.327859,200.248538,40.394158,181.978475,64.453648,169.548915,31.297804,166.486075" />
<polygon fill="#78829a" fill-opacity="0.501961" points="245.037683,166.988669,246.783091,180.564411,239.342423,171.144312,240.132467,147.470300" />
<polygon fill="#e0ccb8" fill-opacity="0.501961" points="65.268572,73.939277,79.762798,75.324010,65.842530,90.692815,79.796447,86.363997" />
<polygon fill="#5c5040" fill-opacity="0.501961" points="3.673803,118.038873,-16.000000,85.059872,2.565646,71.082258,-4.362217,66.405280" />
<polygon fill="#dcd6e3" fill-opacity="0.501961" points="21.384512,33.366707,6.248041,29.350212,-16.000000,30.729138,27.983793,31.010386" />
<polygon fill="#2f2e23" fill-opacity="0.501961" points="139.465985,10.756860,149.310868,-16.000000,146.818392,1.935619,140.651007,12.539797" />
<polygon fill="#fff9e8" fill-opacity="0.501961" points="99.614222,81.265387,69.620444,78.425518,86.782284,83.787261,97.670647,84.969132" />
<polygon fill="#3b4445" fill-opacity="0.501961" points="-1.362389,27.800509,28.948050,28.004749,29.047385,32.018995,47.864140,28.870567" />
<polygon fill="#dcd1c4" fill-opacity="0.501961" points="224.210217,13.828521,208.890475,35.355984,213.339059,34.782054,211.097301,40.133024" />
<polygon fill="#6d8162" fill-opacity="0.501961" points="241.270918,57.903157,242.404740,74.298288,249.266947,78.453910,226.866752,39.992147" />
<polygon fill="#e0d9da" fill-opacity="0.501961" points="53.498259,42.099095,88.546263,40.705043,83.865486,42.731844,46.019699,42.430957" />
<polygon fill="#6a746c" fill-opacity="0.501961" points="239.987138,71.792188,228.196191,67.512866,226.022749,97.671258,243.853931,93.762159" />
<polygon fill="#4f5a43" fill-opacity="0.501961" points="60.096811,179.918913,72.330443,171.090515,111.578012,182.544785,57.777221,192.800535" />
<polygon fill="#1d2e21" fill-opacity="0.501961" points="171.905231,17.370673,191.688326,15.649993,162.311977,20.978601,165.851029,15.809670" />
<polygon fill="#4a3b2c" fill-opacity="0.501961" points="198.337762,36.918139,193.773914,36.623907,164.429905,36.082627,115.133092,38.377577" />
<polygon fill="#6f5848" fill-opacity="0.501961" points="146.941472,83.947034,162.062268,77.096131,144.138702,101.515452,147.858693,103.147926" />
<polygon fill="#b3a990" fill-opacity="0.501961" points="146.676258,46.887712,134.306310,46.836848,149.543197,44.689182,164.630849,71.564469" />
<polygon fill="#eaecd5" fill-opacity="0.501961" points="15.019550,52.726493,-2.116864,50.527339,24.687596,51.383843,24.865664,61.822141" />
<polygon fill="#365640" fill-opacity="0.501961" points="236.145421,100.051438,237.011993,77.653827,236.977629,107.060148,229.589766,106.596493" />
<polygon fill="#c6d3d3" fill-opacity="0.501961" points="172.012025,156.111565,165.171083,158.015322,184.903423,144.586124,177.508511,155.118637" />
<polygon fill="#c0bccb" fill-opacity="0.501961" points="54.907466,33.995002,44.738481,36.495629,-1.414813,32.515755,21.601329,36.574846" />
<polygon fill="#7a7a5e" fill-opacity="0.501961" points="44.410636,48.614213,58.210963,50.962657,42.609746,52.575997,44.364666,43.766214" />
<polygon fill="#526460" fill-opacity="0.501961" points="15.509287,181.712948,-16.000000,193.208967,49.993169,188.367639,29.452160,207.000000" />
<polygon fill="#414246" fill-opacity="0.501961" points="2.077905,46.622709,35.068141,46.708528,-16.000000,41.792030,-16.000000,11.030929" />
<polygon fill="#837e74" fill-opacity="0.501961" points="118.299323,76.980853,131.369780,95.937136,111.750291,80.137994,98.633606,105.634698" />
<polygon fill="#73787d" fill-opacity="0.501961" points="153.891436,127.541656,163.544672,115.253823,193.799151,91.569695,187.675810,95.431864" />
<polygon fill="#312c2a" fill-opacity="0.501961" points="246.898949,144.381129,245.965336,74.976404,254.786656,101.465075,241.565399,134.246843" />
<polygon fill="#797e8c" fill-opacity="0.501961" points="90.360171,170.934285,87.722653,171.744553,86.680596,166.271412,92.781631,169.690381" />
<polygon fill="#404f3b" fill-opacity="0.501961" points="242.440637,86.897214,235.901839,90.462387,250.910351,108.488754,231.626060,82.330756" />
<polygon fill="#050206" fill-opacity="0.501961" points="120.034443,51.356970,118.114094,64.862908,108.360116,59.047488,107.846547,71.417113" />
<polygon fill="#6c6a60" fill-opacity="0.501961" points="196.375934,139.408092,173.380975,166.171007,170.265862,171.745557,184.743326,159.845426" />
<polygon fill="#b6b7ac" fill-opacity="0.501961" points="77.479616,54.491747,114.946075,54.349941,105.247003,56.617281,111.696336,57.067193" />
<polygon fill="#c1bab1" fill-opacity="0.501961" points="56.862768,30.477528,60.127118,32.387450,61.324909,79.761184,59.762819,21.364195" />
<polygon fill="#f4eae8" fill-opacity="0.501961" points="213.173409,30.738195,188.917333,81.254253,211.427217,41.645521,212.853022,44.817004" />
<polygon fill="#7a868b" fill-opacity="0.501961" points="209.354564,148.751813,202.339426,151.950488,195.022650,173.091426,211.835155,150.440711" />
<polygon fill="#8b8b85" fill-opacity="0.501961" points="157.213968,12.703004,141.352023,13.923497,146.422898,14.728021,152.704256,13.923508" />
<polygon fill="#27212d" fill-opacity="0.501961" points="168.140605,156.754741,166.777357,169.884657,181.087181,165.608132,177.750259,174.520124" />
<polygon fill="#8d8a78" fill-opacity="0.501961" points="209.887052,58.933194,192.044578,38.881026,205.913219,57.106684,237.851166,53.074898" />
<polygon fill="#627637" fill-opacity="0.501961" points="155.931759,55.195387,175.106590,55.694696,175.801593,57.287532,160.884442,61.401042" />
<polygon fill="#676e52" fill-opacity="0.501961" points="223.117502,10.821730,234.806720,16.999655,246.405235,-16.000000,238.341472,26.502473" />
<polygon fill="#61332b" fill-opacity="0.501961" points="135.065201,126.568146,156.844560,123.124352,163.117327,111.689253,157.332432,114.832822" />
<polygon fill="#1f2922" fill-opacity="0.501961" points="25.367494,40.662883,33.881123,41.854589,36.701622,38.638070,28.891564,38.801496" />
<polygon fill="#94b636" fill-opacity="0.501961" points="35.120368,178.801111,29.739761,181.752384,35.164060,170.487726,22.277211,169.560578" />
<polygon fill="#4d4942" fill-opacity="0.501961" points="32.375580,117.336671,49.784515,97.990809,14.832934,144.090535,31.590348,142.548873" />
<polygon fill="#b9c379" fill-opacity="0.501961" points="172.190822,72.535267,187.133575,58.423436,197.053586,55.436329,188.814047,53.060511" />
<polygon fill="#4c4d47" fill-opacity="0.501961" points="44.067227,41.527375,52.356853,41.373486,48.498085,35.677151,30.784547,38.338842" />
<polygon fill="#4e4e44" fill-opacity="0.501961" points="213.043411,25.966261,261.933293,53.026601,217.373342,27.792078,199.925874,28.940409" />
<polygon fill="#403538" fill-opacity="0.501961" points="241.132228,25.621230,252.910123,13.726691,239.718351,16.726334,250.023200,-16.000000" />
<polygon fill="#fffbff" fill-opacity="0.501961" points="174.125465,78.977485,177.735028,80.169212,194.418609,80.480026,172.798193,87.200483" />
<polygon fill="#324c2b" fill-opacity="0.501961" points="140.365611,7.395518,128.293550,8.800843,135.148476,13.203786,146.772554,11.592685" />
<polygon fill="#3e4133" fill-opacity="0.501961" points="236.799799,43.996211,230.009312,41.456366,234.956497,3.185031,235.146834,47.250989" />
<polygon fill="#6d734f" fill-opacity="0.501961" points="187.968776,53.238912,197.022036,50.438698,198.035571,60.770040,191.981280,49.263925" />
<polygon fill="#ffffff" fill-opacity="0.501961" points="42.856954,48.812191,50.711611,48.115635,65.215477,48.609907,66.614797,48.731759" />
<polygon fill="#d4ced6" fill-opacity="0.501961" points="-8.715570,34.799429,-16.000000,22.673188,22.830244,23.805977,-16.213043,25.939337" />
<polygon fill="#305131" fill-opacity="0.501961" points="188.478774,147.777161,204.481240,137.977903,189.629762,129.277691,227.736816,141.161469" />
<polygon fill="#323f39" fill-opacity="0.501961" points="44.171721,21.594872,84.896902,16.900776,-6.494061,21.591354,-16.000000,21.739120" />
<polygon fill="#3b3a1d" fill-opacity="0.501961" points="236.264119,121.788335,215.170221,120.069640,213.306467,128.119517,228.570341,121.590574" />
<polygon fill="#2e241d" fill-opacity="0.501961" points="175.542066,40.764249,186.958398,43.169066,165.241139,45.466269,176.746746,44.392677" />
<polygon fill="#6d7c53" fill-opacity="0.501961" points="87.243652,22.353107,85.331858,26.892400,89.081481,13.157499,99.063417,23.017759" />
<polygon fill="#817b66" fill-opacity="0.501961" points="21.994367,135.142196,12.034092,136.030551,12.606050,129.255202,18.507743,126.296342" />
<polygon fill="#c7c1ca" fill-opacity="0.501961" points="39.332130,41.264755,48.464276,42.386899,40.177342,42.919258,17.326595,43.103613" />
<polygon fill="#404a3f" fill-opacity="0.501961" points="31.643659,42.881773,49.029879,45.864261,34.987548,46.928947,21.039601,48.029784" />
<polygon fill="#779246" fill-opacity="0.501961" points="85.855693,-16.000000,66.957395,10.054970,52.301709,-7.463799,68.133779,4.017034" />
<polygon fill="#616f5d" fill-opacity="0.501961" points="224.895613,3.545588,230.356603,-1.268331,235.077789,5.655931,204.306797,6.214654" />
<polygon fill="#a59581" fill-opacity="0.501961" points="184.210189,92.306714,175.556661,86.069440,198.543146,89.126952,196.557963,81.345611" />
<polygon fill="#1d2f20" fill-opacity="0.501961" points="146.789066,27.747465,154.140490,36.196703,156.931351,30.495981,155.003112,27.859509" />
<polygon fill="#bbb0be" fill-opacity="0.501961" points="169.208341,79.255187,193.177286,79.326439,160.436963,74.533016,153.844792,78.132068" />
<polygon fill="#423c36" fill-opacity="0.501961" points="21.392771,104.362198,21.335697,83.843299,10.608154,93.007476,-16.000000,90.389186" />
<polygon fill="#7e875c" fill-opacity="0.501961" points="75.710288,7.267956,90.675317,-16.000000,76.363239,11.253488,82.450297,7.774925" />
<polygon fill="#81928c" fill-opacity="0.501961" points="31.569887,121.588186,18.998478,118.372739,31.896878,113.914402,31.084309,114.555821" />
<polygon fill="#9f9ea3" fill-opacity="0.501961" points="31.231888,11.270017,28.881837,17.038515,30.478620,32.871810,25.234133,18.287725" />
<polygon fill="#bcbab2" fill-opacity="0.501961" points="47.486609,16.522197,51.584091,18.187142,87.679210,13.032410,85.481439,15.148386" />
<polygon fill="#35373a" fill-opacity="0.501961" points="201.343528,28.625943,214.979661,26.010068,199.141997,26.310813,202.979587,34.520682" />
<polygon fill="#778287" fill-opacity="0.501961" points="236.018679,164.917478,238.524166,134.462511,244.572642,162.609215,238.826694,141.997727" />
<polygon fill="#9fb1be" fill-opacity="0.501961" points="210.425798,148.060648,237.009561,149.943744,215.151717,155.738833,204.232652,152.932579" />
<polygon fill="#919793" fill-opacity="0.501961" points="92.416837,155.792579,90.566646,147.834923,84.862664,153.230285,86.506083,153.477086" />
<polygon fill="#899799" fill-opacity="0.501961" points="123.736460,118.293850,117.777818,103.991680,125.289113,110.870987,135.764343,113.151376" />
<polygon fill="#b8b1b1" fill-opacity="0.501961" points="54.584523,9.204710,66.933256,6.948398,55.235516,6.780787,50.778214,10.792667" />
<polygon fill="#0d2400" fill-opacity="0.501961" points="73.997471,-7.838775,73.364766,-15.431616,89.095663,-14.917902,74.162346,7.374467" />
<polygon fill="#534c3f" fill-opacity="0.501961" points="2.420996,104.945101,6.953432,84.945358,-3.058130,87.828772,14.729541,113.459572" />
<polygon fill="#292725" fill-opacity="0.501961" points="203.459531,5.467422,196.908785,11.459913,178.710687,1.963986,180.477342,5.273549" />
<polygon fill="#98a0a9" fill-opacity="0.501961" points="161.258289,97.555474,159.649928,101.473561,218.210981,102.069662,178.936353,98.037798" />
<polygon fill="#1c3744" fill-opacity="0.501961" points="218.278784,95.924589,217.196392,92.500175,211.906151,98.835573,227.994820,98.263138" />
<polygon fill="#858075" fill-opacity="0.501961" points="75.370521,126.824624,81.825012,130.786612,49.301402,136.438707,67.604139,137.476947" />
<polygon fill="#3c4e35" fill-opacity="0.501961" points="95.997504,28.321281,94.122454,28.410453,113.722902,22.786350,90.933301,22.242528" />
<polygon fill="#54585b" fill-opacity="0.501961" points="155.613490,148.655039,170.733320,171.788904,120.542682,133.034588,120.839492,167.404799" />
<polygon fill="#37520a" fill-opacity="0.501961" points="29.634995,9.996475,15.190399,-1.620250,19.048220,1.703441,17.744533,15.415623" />
<polygon fill="#d9d1d2" fill-opacity="0.501961" points="212.656126,76.246190,190.511736,81.085483,196.138639,96.363027,186.687810,78.550818" />
<polygon fill="#3b201d" fill-opacity="0.501961" points="115.611776,44.226951,144.104450,41.443157,143.885488,43.246227,131.471248,45.790894" />
<polygon fill="#343528" fill-opacity="0.501961" points="171.386069,34.807419,175.859921,32.737146,169.682153,29.559301,161.083627,32.295725" />
<polygon fill="#7d878e" fill-opacity="0.501961" points="176.614435,105.883299,188.903038,107.602408,180.770939,110.548713,163.076007,114.401336" />
<polygon fill="#2d2b34" fill-opacity="0.501961" points="196.013627,171.975743,213.195769,182.979985,229.338134,188.724600,206.941841,191.319483" />
<polygon fill="#7b7450" fill-opacity="0.501961" points="87.031480,55.073354,84.538449,72.331702,66.501688,68.479673,84.197401,68.378664" />
<polygon fill="#b2c6d1" fill-opacity="0.501961" points="233.696636,149.307192,236.016082,153.127395,227.360292,156.255912,227.521982,147.155383" />
<polygon fill="#d7d6db" fill-opacity="0.501961" points="0.044746,57.383766,-2.478970,20.575917,-16.000000,56.693255,15.462588,60.975597" />
<polygon fill="#735b52" fill-opacity="0.501961" points="172.976918,104.368469,144.747917,121.085312,147.328250,138.679225,130.883801,114.255145" />
<polygon fill="#dacecb" fill-opacity="0.501961" points="205.642326,91.779269,182.967653,90.252708,201.897882,89.819403,208.622333,73.759687" />
<polygon fill="#2d261b" fill-opacity="0.501961" points="86.279163,111.786085,80.572248,108.123731,85.848498,117.647158,72.390393,118.092450" />
<polygon fill="#85635f" fill-opacity="0.501961" points="95.026066,109.409075,91.221288,129.142552,92.027440,123.552587,79.423268,119.481304" />
<polygon fill="#d1c9b5" fill-opacity="0.501961" points="67.555631,63.113604,71.837366,74.996638,69.339725,57.920852,80.053160,62.998542" />
<polygon fill="#4d463e" fill-opacity="0.501961" points="76.270723,123.210883,87.064313,121.127687,93.684508,125.791380,46.856279,128.461954" />
<polygon fill="#1f1b49" fill-opacity="0.501961" points="112.749005,76.337423,113.746429,86.162868,117.791237,67.180434,121.633706,76.444257" />
<polygon fill="#6f7174" fill-opacity="0.501961" points="209.726503,150.209942,198.697658,158.416228,210.129546,181.920719,229.455362,185.407195" />
<polygon fill="#726f5c" fill-opacity="0.501961" points="51.067084,139.865707,32.266751,122.912715,28.916661,139.073371,55.810965,123.891179" />
<polygon fill="#130c14" fill-opacity="0.501961" points="169.883401,130.840008,161.558372,133.326970,162.165695,119.781453,170.092520,121.193968" />
<polygon fill="#c5bbb4" fill-opacity="0.501961" points="180.946137,68.763067,202.836792,66.633320,219.435135,68.586442,201.086003,68.715641" />
<polygon fill="#192113" fill-opacity="0.501961" points="182.997784,0.695304,207.911984,-16.000000,202.154011,1.969491,196.761808,0.271121" />
<polygon fill="#cec1b5" fill-opacity="0.501961" points="222.749043,42.067830,221.629392,33.725088,217.392805,56.368202,217.887066,58.086717" />
<polygon fill="#7c6356" fill-opacity="0.501961" points="117.158727,71.279402,83.070235,76.978459,126.864755,68.007028,123.261380,50.917085" />
<polygon fill="#b7ab9c" fill-opacity="0.501961" points="52.796150,73.972919,41.449658,74.624000,30.897720,76.023701,51.408951,75.766659" />
<polygon fill="#e8efb3" fill-opacity="0.501961" points="157.796890,67.976010,203.600295,67.700805,167.311616,65.503150,178.552044,71.514134" />
<polygon fill="#5c5945" fill-opacity="0.501961" points="101.867441,101.332088,166.862070,93.846410,112.708076,92.773985,122.998589,104.541962" />
<polygon fill="#756b54" fill-opacity="0.501961" points="31.858422,121.109364,73.386166,116.691568,55.218555,97.063612,77.518590,113.916822" />
<polygon fill="#21262d" fill-opacity="0.501961" points="195.680976,18.463088,181.510776,22.156729,198.804079,20.474317,185.190848,15.057524" />
<polygon fill="#fffefe" fill-opacity="0.501961" points="212.618952,69.189611,197.534421,86.726823,214.636437,84.123544,226.831788,73.334729" />
<polygon fill="#261e27" fill-opacity="0.501961" points="133.996202,54.590431,135.744971,51.309331,141.129691,58.800497,143.701770,66.403152" />
<polygon fill="#0d2d1c" fill-opacity="0.501961" points="4.580363,11.248639,-6.031911,22.803157,-7.573222,-1.471650,-9.440109,1.609522" />
<polygon fill="#cbbec1" fill-opacity="0.501961" points="218.104895,32.258811,194.711335,34.326024,222.859978,37.259773,201.424003,33.727649" />
<polygon fill="#c2bfc8" fill-opacity="0.501961" points="20.412008,37.788203,65.643894,33.977730,13.328142,36.635829,19.498919,30.004488" />
<polygon fill="#98a09f" fill-opacity="0.501961" points="232.108627,94.048754,217.042962,103.346880,235.363514,95.355913,232.305511,91.367043" />
<polygon fill="#4e4a3b" fill-opacity="0.501961" points="149.588495,50.377843,141.074772,48.568503,158.839714,45.423878,159.310017,40.575336" />
<polygon fill="#f9f3ff" fill-opacity="0.501961" points="11.502773,46.762506,13.594117,47.953207,40.409409,48.607604,24.182562,49.043493" />
<polygon fill="#4e483a" fill-opacity="0.501961" points="50.078980,122.716011,73.313319,104.891468,49.146874,118.437582,29.301825,131.526725" />
<polygon fill="#16391a" fill-opacity="0.501961" points="146.571173,11.160132,161.304969,12.384863,153.207652,2.719862,151.432516,8.626445" />
<polygon fill="#716f54" fill-opacity="0.501961" points="169.261033,89.073003,177.116006,97.146761,169.227315,95.240237,171.455583,91.324929" />
<polygon fill="#f6efe9" fill-opacity="0.501961" points="16.905094,76.022720,34.881004,87.999858,21.073273,84.503171,17.450807,69.556254" />
<polygon fill="#343d2b" fill-opacity="0.501961" points="114.684462,37.226183,87.419668,35.541399,93.063337,41.568302,95.845746,37.711644" />
<polygon fill="#887b6d" fill-opacity="0.501961" points="87.564263,84.666498,87.397356,103.324426,97.546245,85.164337,86.067006,86.151132" />
<polygon fill="#444f39" fill-opacity="0.501961" points="6.752575,57.786474,-5.335212,53.087983,-11.911015,51.377531,7.446063,54.981953" />
<polygon fill="#b2b7ad" fill-opacity="0.501961" points="91.005823,21.706466,119.929708,20.025853,112.057786,31.252897,115.892737,21.980281" />
<polygon fill="#8f856a" fill-opacity="0.501961" points="44.437892,114.763025,56.997834,125.383392,38.006059,116.641498,35.522670,126.330336" />
<polygon fill="#b0aab9" fill-opacity="0.501961" points="51.228715,13.234605,48.323720,10.234559,62.260318,12.170808,60.659984,9.842467" />
<polygon fill="#4e525b" fill-opacity="0.501961" points="161.904907,129.306321,164.232334,153.175531,175.056208,136.109940,128.527670,141.276376" />
<polygon fill="#415a50" fill-opacity="0.501961" points="-16.000000,161.723470,-0.145168,145.451091,11.914784,165.596263,30.551716,153.969806" />
<polygon fill="#a7b7b2" fill-opacity="0.501961" points="191.571561,144.705267,183.392618,148.400063,175.790147,142.299045,175.033570,145.886949" />
<polygon fill="#6c4b35" fill-opacity="0.501961" points="157.248079,99.961402,160.788249,115.162336,153.172064,67.620708,140.184797,64.345494" />
<polygon fill="#e4d9dd" fill-opacity="0.501961" points="76.959882,61.556370,59.761641,60.062791,51.684574,69.610845,61.691094,63.558967" />
<polygon fill="#719149" fill-opacity="0.501961" points="52.523251,174.219412,54.398894,185.386158,64.740143,176.306855,44.499192,182.940770" />
<polygon fill="#cac8be" fill-opacity="0.501961" points="171.115136,5.849585,164.519298,5.815750,165.522646,-3.782687,154.823010,-16.000000" />
<polygon fill="#c0c0ad" fill-opacity="0.501961" points="19.700067,188.080046,39.898457,186.836040,19.657083,185.763379,20.387636,189.414333" />
<polygon fill="#464034" fill-opacity="0.501961" points="45.887200,79.201038,36.754935,87.711868,-16.000000,95.961091,53.101160,95.409462" />
<polygon fill="#dfe7b6" fill-opacity="0.501961" points="92.082076,64.465287,77.626583,84.025727,86.463162,71.027877,100.301637,48.945619" />
<polygon fill="#4d7816" fill-opacity="0.501961" points="-10.393577,2.060202,131.967871,-14.474774,89.063777,3.714826,60.435918,-16.000000" />
<polygon fill="#67756d" fill-opacity="0.501961" points="136.646171,97.133908,118.804861,106.578416,130.720333,112.616574,142.808145,102.093563" />
<polygon fill="#675c4e" fill-opacity="0.501961" points="18.386352,89.278427,30.057952,88.128094,80.063795,85.295943,45.030710,85.112148" />
<polygon fill="#37503b" fill-opacity="0.501961" points="57.785506,7.594677,51.542504,5.959878,47.270238,-4.142653,61.196183,-16.000000" />
<polygon fill="#939581" fill-opacity="0.501961" points="59.678798,56.496389,67.817019,58.185923,117.381711,45.878236,82.007194,54.664145" />
<polygon fill="#5d351a" fill-opacity="0.501961" points="108.463505,78.348641,102.334931,66.667331,114.396334,71.018968,107.573200,86.866970" />
<polygon fill="#7a8264" fill-opacity="0.501961" points="86.479841,34.091990,77.148074,48.242055,95.558764,47.233070,71.218661,38.412634" />
<polygon fill="#c9bdbc" fill-opacity="0.501961" points="80.811147,28.679474,70.962799,30.215424,88.216235,29.469462,88.358128,26.166005" />
<polygon fill="#3f424c" fill-opacity="0.501961" points="23.483948,30.870009,-4.993080,25.584683,-16.000000,30.725120,25.075078,25.798575" />
<polygon fill="#1a3908" fill-opacity="0.501961" points="13.542717,18.388289,26.837716,-16.000000,11.486300,7.677370,23.263890,9.004591" />
<polygon fill="#fffffc" fill-opacity="0.501961" points="183.096082,65.077946,196.302293,64.313694,176.011300,75.474381,203.505315,77.056438" />
<polygon fill="#969b8b" fill-opacity="0.501961" points="132.439046,8.461965,141.990927,5.321207,135.975494,-1.395569,158.345651,-11.017254" />
<polygon fill="#7a828f" fill-opacity="0.501961" points="196.210238,169.729216,221.761040,152.595355,271.000000,181.517183,200.343701,152.784891" />
<polygon fill="#d0c4c1" fill-opacity="0.501961" points="215.460280,85.654351,226.845635,87.606053,223.972881,75.798583,220.882193,85.778357" />
<polygon fill="#a79a91" fill-opacity="0.501961" points="135.107205,34.692427,143.705577,34.019774,153.932884,35.545698,145.724242,36.200586" />
<polygon fill="#35342c" fill-opacity="0.501961" points="215.859836,15.350896,215.128476,9.602034,207.096942,14.024225,209.034985,-2.873320" />
<polygon fill="#63795f" fill-opacity="0.501961" points="125.482950,15.827848,129.594948,-8.894790,142.448187,22.068754,127.342982,-5.017681" />
<polygon fill="#424336" fill-opacity="0.501961" points="61.771976,32.658506,78.149546,32.860380,69.950000,17.032948,77.171963,31.155542" />
<polygon fill="#65666c" fill-opacity="0.501961" points="193.200703,163.437729,183.897012,165.560041,190.945455,182.436904,178.546912,173.539158" />
<polygon fill="#a4ad9f" fill-opacity="0.501961" points="86.811159,11.936683,92.496701,9.115212,130.347148,5.846752,100.940608,7.206627" />
<polygon fill="#1f232d" fill-opacity="0.501961" points="150.622475,167.113051,150.270075,180.088555,135.495098,166.443616,150.820608,169.080383" />
<polygon fill="#653a2a" fill-opacity="0.501961" points="133.765576,75.418911,120.047421,74.501180,121.683517,62.415370,135.803499,41.264093" />
<polygon fill="#e2d9da" fill-opacity="0.501961" points="176.390796,86.493303,171.581518,79.198961,170.732137,88.216908,161.058772,87.608563" />
<polygon fill="#afaba6" fill-opacity="0.501961" points="195.718995,2.433659,140.368490,-3.259784,175.516406,0.999299,176.569582,1.802575" />
<polygon fill="#f1efce" fill-opacity="0.501961" points="205.222846,56.945970,205.725678,59.121209,210.097851,61.893226,227.077674,73.424085" />
<polygon fill="#393d3e" fill-opacity="0.501961" points="93.666714,152.316577,114.533005,170.615811,52.659249,141.268977,61.481748,161.115148" />
<polygon fill="#3e4149" fill-opacity="0.501961" points="4.563065,46.302502,-16.000000,22.904125,-16.000000,45.056788,19.515940,40.733961" />
<polygon fill="#fefdff" fill-opacity="0.501961" points="191.879278,75.221130,153.947817,74.555290,203.045849,69.330030,229.889369,70.820949" />
<polygon fill="#d3c3b2" fill-opacity="0.501961" points="203.041108,46.255051,223.523649,25.769564,229.172208,28.025238,220.112685,29.195831" />
<polygon fill="#c3bec0" fill-opacity="0.501961" points="4.916373,18.778441,22.685011,18.852628,67.403203,15.409864,8.019109,18.487568" />
<polygon fill="#43571a" fill-opacity="0.501961" points="45.013680,16.965989,52.722641,20.163431,50.252747,13.897007,34.127957,-12.489454" />
<polygon fill="#dbd6d2" fill-opacity="0.501961" points="113.958063,95.117325,110.440278,99.328667,107.987408,91.862409,108.650813,94.194778" />
<polygon fill="#b2b3a1" fill-opacity="0.501961" points="240.192435,30.015067,192.890237,95.381779,233.485966,39.138225,237.636115,39.125520" />
<polygon fill="#3a403b" fill-opacity="0.501961" points="146.130026,26.063131,127.368776,27.797633,137.903947,33.155363,141.916101,33.388990" />
<polygon fill="#86816f" fill-opacity="0.501961" points="152.173804,66.559469,152.989693,57.057920,164.264747,40.896757,163.656041,35.195914" />
<polygon fill="#d3c5b8" fill-opacity="0.501961" points="-16.000000,126.792379,-16.000000,151.856948,-5.541201,142.686804,3.444682,141.634378" />
</g>
</svg>