<svg xmlns="http://www.w3.org/2000/svg" version="1.1" width="768" height="1024">
<rect x="0" y="0" width="768" height="1024" fill="#84817a" />
<g transform="scale(4.000000) translate(0.5 0.5)">
<polygon fill="#fffce4" fill-opacity="0.501961" points="71,-16 157,160 207,30" />
<polygon fill="#282322" fill-opacity="0.501961" points="15,111 106,60 161,271" />
<polygon fill="#321912" fill-opacity="0.501961" points="-7,252 207,271 171,219" />
<polygon fill="#d6e7f5" fill-opacity="0.501961" points="67,61 6,-16 73,-16" />
<polygon fill="#1c1207" fill-opacity="0.501961" points="194,-15 165,39 154,-2" />
<polygon fill="#291d1d" fill-opacity="0.501961" points="74,-2 105,157 67,95" />
<polygon fill="#676c6e" fill-opacity="0.501961" points="171,134 144,212 3,129" />
<polygon fill="#e1cfbd" fill-opacity="0.501961" points="125,147 128,-16 206,94" />
<polygon fill="#909fb3" fill-opacity="0.501961" points="-15,271 80,175 -16,119" />
<polygon fill="#174d3a" fill-opacity="0.501961" points="31,26 79,73 35,73" />
<polygon fill="#473628" fill-opacity="0.501961" points="94,192 14,271 37,216" />
<polygon fill="#d3c9ba" fill-opacity="0.501961" points="178,70 145,-16 74,67" />
<polygon fill="#522616" fill-opacity="0.501961" points="207,269 90,166 131,266" />
<polygon fill="#efdecd" fill-opacity="0.501961" points="196,-16 201,63 158,60" />
<polygon fill="#253537" fill-opacity="0.501961" points="88,202 73,67 118,78" />
<polygon fill="#afc2da" fill-opacity="0.501961" points="58,129 36,143 64,153" />
<polygon fill="#a48b7e" fill-opacity="0.501961" points="101,167 148,227 207,219" />
<polygon fill="#c4fcf4" fill-opacity="0.501961" points="12,54 7,72 31,69" />
<polygon fill="#797d85" fill-opacity="0.501961" points="123,237 78,174 57,271" />
<polygon fill="#3b8860" fill-opacity="0.501961" points="40,35 9,-16 15,63" />
<polygon fill="#332315" fill-opacity="0.501961" points="14,122 18,138 77,121" />
<polygon fill="#a99a89" fill-opacity="0.501961" points="108,155 170,152 206,79" />
<polygon fill="#446376" fill-opacity="0.501961" points="123,178 111,104 171,185" />
<polygon fill="#ada08b" fill-opacity="0.501961" points="-16,79 65,106 64,74" />
<polygon fill="#aad4d2" fill-opacity="0.501961" points="11,57 17,29 4,-1" />
<polygon fill="#b0a6a1" fill-opacity="0.501961" points="207,140 191,231 160,202" />
<polygon fill="#002e25" fill-opacity="0.501961" points="1,76 22,75 -8,62" />
<polygon fill="#4f0a03" fill-opacity="0.501961" points="81,0 71,-5 75,36" />
<polygon fill="#b9bfc2" fill-opacity="0.501961" points="-16,102 7,155 16,121" />
<polygon fill="#6b5b51" fill-opacity="0.501961" points="-16,166 21,144 73,157" />
<polygon fill="#806848" fill-opacity="0.501961" points="58,82 -4,107 68,125" />
<polygon fill="#cfe3f7" fill-opacity="0.501961" points="46,38 15,-8 34,-11" />
<polygon fill="#593527" fill-opacity="0.501961" points="207,249 158,271 74,170" />
<polygon fill="#202f39" fill-opacity="0.501961" points="69,71 48,61 13,75" />
<polygon fill="#96a4b3" fill-opacity="0.501961" points="71,164 85,196 -16,210" />
<polygon fill="#c2bab0" fill-opacity="0.501961" points="93,67 76,-16 154,3" />
<polygon fill="#8c2514" fill-opacity="0.501961" points="85,57 76,24 65,61" />
<polygon fill="#d6cbbb" fill-opacity="0.501961" points="117,96 207,-9 139,134" />
<polygon fill="#005360" fill-opacity="0.501961" points="41,252 19,271 6,248" />
<polygon fill="#4b4c4a" fill-opacity="0.501961" points="95,109 112,183 49,157" />
<polygon fill="#878e8f" fill-opacity="0.501961" points="112,183 132,142 122,103" />
<polygon fill="#23363d" fill-opacity="0.501961" points="65,94 109,58 117,86" />
<polygon fill="#36455c" fill-opacity="0.501961" points="120,178 132,156 168,183" />
<polygon fill="#908681" fill-opacity="0.501961" points="96,7 84,61 77,-16" />
<polygon fill="#332620" fill-opacity="0.501961" points="181,250 115,233 121,271" />
<polygon fill="#527a63" fill-opacity="0.501961" points="9,12 30,17 14,65" />
<polygon fill="#4f321f" fill-opacity="0.501961" points="39,232 39,217 82,204" />
<polygon fill="#5b7767" fill-opacity="0.501961" points="24,70 79,68 44,38" />
<polygon fill="#808185" fill-opacity="0.501961" points="89,246 36,252 121,271" />
<polygon fill="#828998" fill-opacity="0.501961" points="3,219 -16,242 60,236" />
<polygon fill="#927867" fill-opacity="0.501961" points="177,174 126,136 203,146" />
<polygon fill="#3e8a65" fill-opacity="0.501961" points="1,-16 -16,5 10,61" />
<polygon fill="#d2f3ef" fill-opacity="0.501961" points="22,70 5,56 11,72" />
<polygon fill="#898e90" fill-opacity="0.501961" points="16,150 54,130 -5,224" />
<polygon fill="#9ce3bb" fill-opacity="0.501961" points="25,41 34,54 27,57" />
<polygon fill="#a7b1ab" fill-opacity="0.501961" points="31,26 68,56 72,23" />
<polygon fill="#030f15" fill-opacity="0.501961" points="42,93 28,113 40,103" />
<polygon fill="#503219" fill-opacity="0.501961" points="16,240 35,251 72,241" />
<polygon fill="#94857b" fill-opacity="0.501961" points="105,185 207,206 174,231" />
<polygon fill="#807e82" fill-opacity="0.501961" points="32,242 97,197 120,232" />
<polygon fill="#acbcde" fill-opacity="0.501961" points="68,63 71,70 67,79" />
<polygon fill="#595348" fill-opacity="0.501961" points="150,-15 164,36 197,-16" />
<polygon fill="#d5cab9" fill-opacity="0.501961" points="176,108 110,71 150,-16" />
<polygon fill="#6a1c10" fill-opacity="0.501961" points="67,165 43,151 64,154" />
<polygon fill="#192428" fill-opacity="0.501961" points="114,100 70,103 99,123" />
<polygon fill="#778a8c" fill-opacity="0.501961" points="79,71 113,69 112,56" />
<polygon fill="#6a5848" fill-opacity="0.501961" points="190,127 207,159 176,149" />
<polygon fill="#b0c8d6" fill-opacity="0.501961" points="13,148 -16,165 12,133" />
<polygon fill="#785245" fill-opacity="0.501961" points="111,190 196,238 150,231" />
<polygon fill="#575553" fill-opacity="0.501961" points="127,231 110,257 62,242" />
<polygon fill="#a9a69d" fill-opacity="0.501961" points="52,74 -16,80 14,96" />
<polygon fill="#564626" fill-opacity="0.501961" points="11,151 9,163 -16,169" />
<polygon fill="#c2b6a3" fill-opacity="0.501961" points="207,63 128,130 166,142" />
<polygon fill="#705c56" fill-opacity="0.501961" points="137,184 164,197 150,163" />
<polygon fill="#566366" fill-opacity="0.501961" points="97,156 118,76 121,156" />
<polygon fill="#195989" fill-opacity="0.501961" points="121,173 139,179 144,156" />
<polygon fill="#7c8ca6" fill-opacity="0.501961" points="32,116 18,120 25,126" />
<polygon fill="#bdac86" fill-opacity="0.501961" points="165,-10 184,-16 171,7" />
<polygon fill="#6a4335" fill-opacity="0.501961" points="86,173 114,181 83,207" />
<polygon fill="#20261e" fill-opacity="0.501961" points="11,108 23,120 13,102" />
<polygon fill="#344849" fill-opacity="0.501961" points="68,141 69,80 89,92" />
<polygon fill="#7f899c" fill-opacity="0.501961" points="26,251 -3,244 14,232" />
<polygon fill="#bbc4cc" fill-opacity="0.501961" points="96,49 111,-16 89,-16" />
<polygon fill="#5b554e" fill-opacity="0.501961" points="15,119 14,145 41,136" />
<polygon fill="#428b62" fill-opacity="0.501961" points="136,156 159,153 161,171" />
<polygon fill="#8a6032" fill-opacity="0.501961" points="48,245 20,239 67,236" />
<polygon fill="#32251a" fill-opacity="0.501961" points="35,117 53,130 16,132" />
<polygon fill="#9d8a70" fill-opacity="0.501961" points="31,103 -16,92 50,83" />
<polygon fill="#131c1d" fill-opacity="0.501961" points="92,94 75,77 107,76" />
<polygon fill="#395446" fill-opacity="0.501961" points="21,15 13,5 20,-5" />
<polygon fill="#d7cdbc" fill-opacity="0.501961" points="199,-16 142,82 191,78" />
<polygon fill="#b1cac2" fill-opacity="0.501961" points="7,26 18,25 15,33" />
<polygon fill="#a99683" fill-opacity="0.501961" points="163,163 161,127 207,84" />
<polygon fill="#7d8e97" fill-opacity="0.501961" points="69,106 64,77 59,107" />
<polygon fill="#6aa48f" fill-opacity="0.501961" points="9,45 -16,75 11,71" />
<polygon fill="#857b75" fill-opacity="0.501961" points="66,56 66,42 60,34" />
<polygon fill="#040b24" fill-opacity="0.501961" points="53,71 66,71 67,65" />
<polygon fill="#2b2a21" fill-opacity="0.501961" points="24,115 23,99 30,117" />
<polygon fill="#f4ffff" fill-opacity="0.501961" points="7,-16 0,-16 6,8" />
<polygon fill="#000e19" fill-opacity="0.501961" points="27,75 34,71 19,72" />
<polygon fill="#a2afba" fill-opacity="0.501961" points="52,131 49,151 63,130" />
<polygon fill="#82c284" fill-opacity="0.501961" points="42,45 55,55 47,56" />
<polygon fill="#0c0f11" fill-opacity="0.501961" points="78,7 79,0 70,-1" />
<polygon fill="#845d3c" fill-opacity="0.501961" points="57,218 68,200 33,219" />
<polygon fill="#7b8a88" fill-opacity="0.501961" points="122,89 105,94 113,99" />
<polygon fill="#cbc1af" fill-opacity="0.501961" points="148,-16 92,-1 134,125" />
<polygon fill="#7a99af" fill-opacity="0.501961" points="142,156 124,142 125,157" />
<polygon fill="#0b1327" fill-opacity="0.501961" points="-3,74 13,73 4,78" />
<polygon fill="#46575a" fill-opacity="0.501961" points="87,155 61,139 67,86" />
<polygon fill="#773025" fill-opacity="0.501961" points="68,62 79,17 81,64" />
<polygon fill="#7e736b" fill-opacity="0.501961" points="82,69 88,51 68,67" />
<polygon fill="#becac9" fill-opacity="0.501961" points="53,27 42,-5 40,38" />
<polygon fill="#a69681" fill-opacity="0.501961" points="10,88 19,84 24,121" />
<polygon fill="#ffffff" fill-opacity="0.501961" points="6,8 8,19 5,16" />
<polygon fill="#928163" fill-opacity="0.501961" points="60,123 42,119 64,112" />
<polygon fill="#8e8270" fill-opacity="0.501961" points="38,111 67,78 52,72" />
<polygon fill="#838685" fill-opacity="0.501961" points="58,172 -16,199 28,128" />
<polygon fill="#714b39" fill-opacity="0.501961" points="205,233 190,261 174,230" />
<polygon fill="#5d8672" fill-opacity="0.501961" points="30,70 43,68 18,47" />
<polygon fill="#8e99a5" fill-opacity="0.501961" points="69,168 86,190 -5,230" />
<polygon fill="#3d2f26" fill-opacity="0.501961" points="35,224 67,212 42,232" />
<polygon fill="#42634a" fill-opacity="0.501961" points="19,36 27,46 48,41" />
<polygon fill="#888c91" fill-opacity="0.501961" points="111,218 58,239 97,199" />
<polygon fill="#00302c" fill-opacity="0.501961" points="22,271 11,250 76,263" />
<polygon fill="#90be9b" fill-opacity="0.501961" points="33,27 26,29 29,37" />
<polygon fill="#a09a95" fill-opacity="0.501961" points="161,199 174,230 207,145" />
<polygon fill="#433f3c" fill-opacity="0.501961" points="92,236 59,245 91,245" />
<polygon fill="#587294" fill-opacity="0.501961" points="165,184 150,181 162,194" />
<polygon fill="#b8d6cc" fill-opacity="0.501961" points="21,60 31,71 15,69" />
<polygon fill="#c6c1b2" fill-opacity="0.501961" points="112,23 81,67 97,65" />
<polygon fill="#535a5a" fill-opacity="0.501961" points="83,145 118,105 121,132" />
<polygon fill="#988176" fill-opacity="0.501961" points="190,155 174,170 121,127" />
<polygon fill="#797d77" fill-opacity="0.501961" points="88,177 100,176 79,171" />
<polygon fill="#304438" fill-opacity="0.501961" points="37,52 44,73 56,68" />
<polygon fill="#8b7b72" fill-opacity="0.501961" points="112,165 114,194 126,177" />
<polygon fill="#9aaebc" fill-opacity="0.501961" points="62,86 66,74 72,72" />
<polygon fill="#569371" fill-opacity="0.501961" points="20,-12 10,29 6,-6" />
<polygon fill="#592922" fill-opacity="0.501961" points="83,45 72,35 73,5" />
<polygon fill="#021c24" fill-opacity="0.501961" points="72,91 73,76 67,80" />
<polygon fill="#565b50" fill-opacity="0.501961" points="115,96 88,102 61,92" />
<polygon fill="#543429" fill-opacity="0.501961" points="78,178 108,179 121,219" />
<polygon fill="#22170f" fill-opacity="0.501961" points="117,249 141,251 128,239" />
<polygon fill="#d6e9e8" fill-opacity="0.501961" points="9,25 5,28 10,39" />
<polygon fill="#587c68" fill-opacity="0.501961" points="10,55 -15,18 5,16" />
<polygon fill="#7f8693" fill-opacity="0.501961" points="8,262 1,184 -16,253" />
<polygon fill="#164727" fill-opacity="0.501961" points="24,61 20,52 15,52" />
<polygon fill="#78aa97" fill-opacity="0.501961" points="27,49 9,50 31,41" />
<polygon fill="#3c2418" fill-opacity="0.501961" points="31,103 31,113 26,118" />
<polygon fill="#33465b" fill-opacity="0.501961" points="132,155 118,168 141,171" />
<polygon fill="#b3c1ca" fill-opacity="0.501961" points="28,-16 36,17 26,13" />
<polygon fill="#555453" fill-opacity="0.501961" points="50,137 50,142 42,136" />
<polygon fill="#514a43" fill-opacity="0.501961" points="177,19 153,-16 165,37" />
<polygon fill="#cec4b3" fill-opacity="0.501961" points="115,96 151,128 181,93" />
<polygon fill="#785939" fill-opacity="0.501961" points="59,111 29,120 61,88" />
<polygon fill="#6b6665" fill-opacity="0.501961" points="70,270 110,271 114,216" />
<polygon fill="#44352c" fill-opacity="0.501961" points="71,245 31,252 32,241" />
<polygon fill="#202423" fill-opacity="0.501961" points="72,111 77,99 112,100" />
<polygon fill="#97a6ba" fill-opacity="0.501961" points="53,140 41,141 63,154" />
<polygon fill="#455e72" fill-opacity="0.501961" points="28,133 16,120 28,124" />
<polygon fill="#c4dce2" fill-opacity="0.501961" points="35,28 48,31 34,18" />
<polygon fill="#937267" fill-opacity="0.501961" points="115,183 172,223 137,211" />
<polygon fill="#355d3f" fill-opacity="0.501961" points="57,49 44,39 28,46" />
<polygon fill="#735244" fill-opacity="0.501961" points="154,172 158,180 130,181" />
<polygon fill="#bebdc4" fill-opacity="0.501961" points="70,40 72,24 65,11" />
<polygon fill="#908781" fill-opacity="0.501961" points="80,203 87,191 66,205" />
<polygon fill="#321d0f" fill-opacity="0.501961" points="32,130 32,119 53,132" />
<polygon fill="#465f58" fill-opacity="0.501961" points="9,27 14,23 11,15" />
<polygon fill="#657174" fill-opacity="0.501961" points="127,126 117,97 112,167" />
<polygon fill="#869699" fill-opacity="0.501961" points="115,97 120,82 120,104" />
<polygon fill="#a99a88" fill-opacity="0.501961" points="35,82 32,107 41,87" />
<polygon fill="#e9ebf6" fill-opacity="0.501961" points="11,54 10,71 16,70" />
<polygon fill="#c0fffb" fill-opacity="0.501961" points="2,44 -9,33 -16,49" />
<polygon fill="#b1f0c4" fill-opacity="0.501961" points="25,57 33,53 25,52" />
<polygon fill="#376e47" fill-opacity="0.501961" points="6,64 -16,61 4,73" />
<polygon fill="#4d3328" fill-opacity="0.501961" points="182,271 173,230 114,229" />
<polygon fill="#929ba0" fill-opacity="0.501961" points="33,83 -1,78 22,75" />
<polygon fill="#727674" fill-opacity="0.501961" points="119,156 122,169 96,179" />
<polygon fill="#b5ccc9" fill-opacity="0.501961" points="11,66 3,58 4,52" />
<polygon fill="#69995d" fill-opacity="0.501961" points="146,149 160,158 147,162" />
<polygon fill="#2b3437" fill-opacity="0.501961" points="113,113 112,98 68,125" />
<polygon fill="#80a984" fill-opacity="0.501961" points="19,13 15,25 20,30" />
<polygon fill="#1b1c19" fill-opacity="0.501961" points="16,107 16,117 19,116" />
<polygon fill="#666460" fill-opacity="0.501961" points="66,223 95,195 68,209" />
<polygon fill="#3583aa" fill-opacity="0.501961" points="125,172 134,176 139,171" />
<polygon fill="#588569" fill-opacity="0.501961" points="24,63 20,46 39,69" />
<polygon fill="#596463" fill-opacity="0.501961" points="76,126 69,151 87,125" />
<polygon fill="#9b9791" fill-opacity="0.501961" points="14,135 -13,108 14,114" />
<polygon fill="#858c94" fill-opacity="0.501961" points="167,174 178,190 149,166" />
<polygon fill="#8d7a5f" fill-opacity="0.501961" points="47,108 44,85 65,79" />
<polygon fill="#8899a5" fill-opacity="0.501961" points="73,77 58,72 41,76" />
<polygon fill="#77777f" fill-opacity="0.501961" points="30,271 96,260 42,249" />
<polygon fill="#283134" fill-opacity="0.501961" points="116,79 66,68 108,94" />
<polygon fill="#934b3c" fill-opacity="0.501961" points="85,50 79,62 74,49" />
<polygon fill="#8abe9f" fill-opacity="0.501961" points="40,44 46,44 45,47" />
<polygon fill="#8b8f92" fill-opacity="0.501961" points="-16,195 79,170 28,154" />
<polygon fill="#1b2420" fill-opacity="0.501961" points="43,97 39,92 37,107" />
<polygon fill="#a09894" fill-opacity="0.501961" points="79,-16 98,-16 81,34" />
<polygon fill="#4d5759" fill-opacity="0.501961" points="103,87 109,85 111,67" />
<polygon fill="#737a82" fill-opacity="0.501961" points="50,231 64,241 98,233" />
<polygon fill="#a3a9a8" fill-opacity="0.501961" points="51,30 57,-9 67,62" />
<polygon fill="#444948" fill-opacity="0.501961" points="89,126 96,179 108,149" />
<polygon fill="#938167" fill-opacity="0.501961" points="191,109 168,151 207,111" />
<polygon fill="#496a46" fill-opacity="0.501961" points="35,39 30,24 45,44" />
<polygon fill="#749e85" fill-opacity="0.501961" points="4,6 4,28 -16,23" />
<polygon fill="#141e2b" fill-opacity="0.501961" points="20,72 17,76 6,74" />
<polygon fill="#02091b" fill-opacity="0.501961" points="42,73 43,70 33,72" />
<polygon fill="#235e69" fill-opacity="0.501961" points="163,171 156,162 147,162" />
<polygon fill="#eafaff" fill-opacity="0.501961" points="6,27 9,31 8,24" />
<polygon fill="#eef6fd" fill-opacity="0.501961" points="8,45 12,46 8,32" />
<polygon fill="#8e858f" fill-opacity="0.501961" points="157,188 150,177 160,182" />
<polygon fill="#9ea5a6" fill-opacity="0.501961" points="31,118 27,121 20,118" />
<polygon fill="#6f6e70" fill-opacity="0.501961" points="15,139 32,133 56,165" />
<polygon fill="#4d686e" fill-opacity="0.501961" points="7,51 9,40 0,50" />
<polygon fill="#477b58" fill-opacity="0.501961" points="26,44 10,46 25,21" />
<polygon fill="#8d7c65" fill-opacity="0.501961" points="11,88 -16,112 13,111" />
<polygon fill="#6f4e3f" fill-opacity="0.501961" points="110,194 122,190 135,205" />
<polygon fill="#a8b5b5" fill-opacity="0.501961" points="129,152 128,138 125,152" />
<polygon fill="#6a84a0" fill-opacity="0.501961" points="55,141 64,155 61,135" />
<polygon fill="#7a7163" fill-opacity="0.501961" points="32,93 27,112 23,94" />
<polygon fill="#d8ccbd" fill-opacity="0.501961" points="181,91 150,-8 131,79" />
<polygon fill="#8a7e77" fill-opacity="0.501961" points="130,133 174,146 138,151" />
<polygon fill="#87857e" fill-opacity="0.501961" points="128,183 140,210 163,196" />
<polygon fill="#848893" fill-opacity="0.501961" points="-16,251 29,219 37,235" />
<polygon fill="#777f84" fill-opacity="0.501961" points="41,65 36,70 22,68" />
<polygon fill="#658089" fill-opacity="0.501961" points="63,68 62,57 56,62" />
<polygon fill="#332d25" fill-opacity="0.501961" points="15,128 16,136 26,128" />
<polygon fill="#c8beac" fill-opacity="0.501961" points="122,93 129,128 157,123" />
<polygon fill="#415b67" fill-opacity="0.501961" points="166,182 156,193 161,196" />
<polygon fill="#495153" fill-opacity="0.501961" points="93,118 115,138 121,130" />
<polygon fill="#c8bdac" fill-opacity="0.501961" points="207,70 194,17 177,100" />
<polygon fill="#a5b6c1" fill-opacity="0.501961" points="77,197 69,192 81,189" />
<polygon fill="#0b1428" fill-opacity="0.501961" points="64,61 65,70 67,66" />
<polygon fill="#0e1416" fill-opacity="0.501961" points="81,116 98,113 92,107" />
<polygon fill="#54311d" fill-opacity="0.501961" points="39,120 59,123 61,130" />
<polygon fill="#cbbfaf" fill-opacity="0.501961" points="133,89 118,31 112,73" />
<polygon fill="#ecf2fb" fill-opacity="0.501961" points="12,47 10,42 10,50" />
<polygon fill="#cbc1af" fill-opacity="0.501961" points="92,60 128,55 128,-16" />
<polygon fill="#908d7e" fill-opacity="0.501961" points="164,20 169,30 164,29" />
<polygon fill="#ad8477" fill-opacity="0.501961" points="160,150 165,170 180,159" />
<polygon fill="#4d6153" fill-opacity="0.501961" points="54,58 30,55 30,65" />
<polygon fill="#613d30" fill-opacity="0.501961" points="112,186 92,194 75,172" />
<polygon fill="#a7afb6" fill-opacity="0.501961" points="13,140 -16,149 13,128" />
<polygon fill="#4c6d60" fill-opacity="0.501961" points="11,46 11,33 15,47" />
<polygon fill="#82858c" fill-opacity="0.501961" points="67,69 78,62 67,62" />
<polygon fill="#928a88" fill-opacity="0.501961" points="67,102 66,112 61,96" />
<polygon fill="#484c4f" fill-opacity="0.501961" points="25,250 19,243 42,251" />
<polygon fill="#74cc67" fill-opacity="0.501961" points="36,25 36,33 44,37" />
<polygon fill="#909aa7" fill-opacity="0.501961" points="-7,205 39,216 60,169" />
<polygon fill="#385440" fill-opacity="0.501961" points="20,24 22,31 27,28" />
<polygon fill="#685c40" fill-opacity="0.501961" points="31,122 21,138 29,133" />
<polygon fill="#457050" fill-opacity="0.501961" points="6,48 4,29 -6,28" />
<polygon fill="#7d5e3f" fill-opacity="0.501961" points="42,213 58,204 44,227" />
<polygon fill="#958e86" fill-opacity="0.501961" points="88,53 85,12 94,28" />
<polygon fill="#35703f" fill-opacity="0.501961" points="15,5 11,4 10,13" />
<polygon fill="#a6b2b5" fill-opacity="0.501961" points="24,77 46,75 36,81" />
<polygon fill="#997e57" fill-opacity="0.501961" points="34,242 26,237 41,236" />
<polygon fill="#c0a193" fill-opacity="0.501961" points="53,136 45,135 54,131" />
<polygon fill="#4d2420" fill-opacity="0.501961" points="78,9 81,43 73,28" />
<polygon fill="#61514d" fill-opacity="0.501961" points="156,174 143,163 146,188" />
<polygon fill="#659578" fill-opacity="0.501961" points="-16,56 10,58 -8,66" />
<polygon fill="#a79781" fill-opacity="0.501961" points="48,88 40,94 24,87" />
<polygon fill="#475d61" fill-opacity="0.501961" points="67,106 60,129 69,138" />
<polygon fill="#4f5752" fill-opacity="0.501961" points="110,93 96,91 114,112" />
<polygon fill="#006068" fill-opacity="0.501961" points="11,250 30,254 25,249" />
<polygon fill="#c6d3e0" fill-opacity="0.501961" points="26,14 39,18 26,8" />
<polygon fill="#73c29a" fill-opacity="0.501961" points="11,4 20,-16 3,-5" />
<polygon fill="#6c6052" fill-opacity="0.501961" points="39,139 40,131 14,137" />
<polygon fill="#d0eaf3" fill-opacity="0.501961" points="12,63 7,66 14,68" />
<polygon fill="#6a787a" fill-opacity="0.501961" points="92,68 110,61 100,60" />
<polygon fill="#5c5757" fill-opacity="0.501961" points="143,252 169,268 103,270" />
<polygon fill="#55544a" fill-opacity="0.501961" points="30,110 22,92 23,103" />
<polygon fill="#a5d5be" fill-opacity="0.501961" points="25,33 30,34 25,30" />
<polygon fill="#454e50" fill-opacity="0.501961" points="110,103 99,113 94,108" />
<polygon fill="#989088" fill-opacity="0.501961" points="207,242 207,202 148,205" />
<polygon fill="#5b555a" fill-opacity="0.501961" points="134,149 133,139 129,147" />
<polygon fill="#8bb69d" fill-opacity="0.501961" points="12,16 7,7 14,12" />
<polygon fill="#143051" fill-opacity="0.501961" points="30,131 20,131 27,127" />
<polygon fill="#ad9b82" fill-opacity="0.501961" points="26,106 29,92 25,91" />
<polygon fill="#858380" fill-opacity="0.501961" points="46,157 64,164 36,181" />
<polygon fill="#562d25" fill-opacity="0.501961" points="46,155 70,166 66,157" />
<polygon fill="#3a261c" fill-opacity="0.501961" points="36,229 36,218 43,224" />
<polygon fill="#3d5e46" fill-opacity="0.501961" points="24,38 46,38 53,47" />
<polygon fill="#656d7a" fill-opacity="0.501961" points="39,48 27,52 52,51" />
<polygon fill="#bcd9dd" fill-opacity="0.501961" points="18,49 16,49 17,46" />
<polygon fill="#756c57" fill-opacity="0.501961" points="15,146 0,167 12,162" />
<polygon fill="#929698" fill-opacity="0.501961" points="62,36 61,60 68,50" />
<polygon fill="#9ca4ab" fill-opacity="0.501961" points="64,56 45,22 47,39" />
<polygon fill="#5d7072" fill-opacity="0.501961" points="95,70 75,64 74,70" />
<polygon fill="#788789" fill-opacity="0.501961" points="111,98 120,86 123,91" />
<polygon fill="#514a41" fill-opacity="0.501961" points="170,14 188,-5 166,38" />
<polygon fill="#090e1f" fill-opacity="0.501961" points="58,72 46,72 53,70" />
<polygon fill="#232e34" fill-opacity="0.501961" points="88,78 106,69 95,69" />
<polygon fill="#74767a" fill-opacity="0.501961" points="120,230 70,240 110,216" />
<polygon fill="#1d272d" fill-opacity="0.501961" points="84,134 90,133 88,126" />
<polygon fill="#559d51" fill-opacity="0.501961" points="48,56 43,51 38,58" />
<polygon fill="#595f5b" fill-opacity="0.501961" points="103,141 88,128 104,127" />
<polygon fill="#d4c9b8" fill-opacity="0.501961" points="201,-16 175,23 184,76" />
<polygon fill="#614135" fill-opacity="0.501961" points="181,236 133,215 146,234" />
<polygon fill="#c4cedd" fill-opacity="0.501961" points="44,23 31,13 44,36" />
<polygon fill="#afb5ba" fill-opacity="0.501961" points="61,32 37,4 48,40" />
<polygon fill="#69322a" fill-opacity="0.501961" points="80,15 72,0 72,33" />
<polygon fill="#848c9a" fill-opacity="0.501961" points="22,249 4,196 -16,242" />
<polygon fill="#705438" fill-opacity="0.501961" points="66,109 37,119 31,108" />
<polygon fill="#4d697a" fill-opacity="0.501961" points="147,146 145,156 134,160" />
<polygon fill="#4c3126" fill-opacity="0.501961" points="122,231 137,222 101,187" />
<polygon fill="#525c59" fill-opacity="0.501961" points="66,157 61,143 99,154" />
<polygon fill="#45724c" fill-opacity="0.501961" points="24,13 34,21 19,20" />
<polygon fill="#7d7a8c" fill-opacity="0.501961" points="31,26 16,21 30,21" />
<polygon fill="#a9afc9" fill-opacity="0.501961" points="46,146 44,138 40,142" />
<polygon fill="#3e4341" fill-opacity="0.501961" points="87,173 95,140 78,166" />
<polygon fill="#527162" fill-opacity="0.501961" points="50,69 60,52 62,67" />
<polygon fill="#8ba699" fill-opacity="0.501961" points="56,61 57,64 58,59" />
<polygon fill="#99837b" fill-opacity="0.501961" points="117,167 118,193 112,182" />
<polygon fill="#0d161a" fill-opacity="0.501961" points="96,85 111,92 104,92" />
<polygon fill="#909ab4" fill-opacity="0.501961" points="63,89 61,99 65,100" />
<polygon fill="#68717c" fill-opacity="0.501961" points="23,21 1,21 19,26" />
<polygon fill="#793528" fill-opacity="0.501961" points="70,38 69,64 83,45" />
<polygon fill="#4f5461" fill-opacity="0.501961" points="174,174 175,169 178,168" />
<polygon fill="#1f3238" fill-opacity="0.501961" points="64,91 68,84 81,92" />
<polygon fill="#2b4e6d" fill-opacity="0.501961" points="123,170 127,154 144,163" />
<polygon fill="#576873" fill-opacity="0.501961" points="107,67 111,71 104,76" />
<polygon fill="#8a939d" fill-opacity="0.501961" points="26,218 78,169 72,196" />
<polygon fill="#4e8b68" fill-opacity="0.501961" points="22,45 25,35 10,48" />
<polygon fill="#b9c0c5" fill-opacity="0.501961" points="109,-12 94,1 95,44" />
<polygon fill="#98a8bd" fill-opacity="0.501961" points="136,142 141,143 140,145" />
<polygon fill="#78495a" fill-opacity="0.501961" points="166,156 169,153 177,154" />
<polygon fill="#5d554a" fill-opacity="0.501961" points="160,18 151,-7 166,-16" />
<polygon fill="#feffe9" fill-opacity="0.501961" points="41,36 44,36 43,33" />
<polygon fill="#3f2a1e" fill-opacity="0.501961" points="152,257 177,233 165,268" />
<polygon fill="#5b3229" fill-opacity="0.501961" points="111,176 96,179 107,189" />
<polygon fill="#585849" fill-opacity="0.501961" points="17,105 6,103 11,101" />
<polygon fill="#515755" fill-opacity="0.501961" points="103,146 91,163 117,164" />
<polygon fill="#565c61" fill-opacity="0.501961" points="36,228 36,235 58,228" />
<polygon fill="#616767" fill-opacity="0.501961" points="73,85 79,89 74,82" />
<polygon fill="#273237" fill-opacity="0.501961" points="115,76 115,90 109,77" />
<polygon fill="#3a555e" fill-opacity="0.501961" points="72,74 85,74 68,79" />
<polygon fill="#b5b9bc" fill-opacity="0.501961" points="60,28 70,38 70,-3" />
<polygon fill="#202122" fill-opacity="0.501961" points="71,4 102,-16 75,-16" />
<polygon fill="#b8ac75" fill-opacity="0.501961" points="154,152 155,148 167,152" />
<polygon fill="#c7dee4" fill-opacity="0.501961" points="10,7 6,15 6,8" />
<polygon fill="#39573b" fill-opacity="0.501961" points="39,58 55,69 53,59" />
<polygon fill="#595351" fill-opacity="0.501961" points="118,251 119,226 102,242" />
<polygon fill="#121d1d" fill-opacity="0.501961" points="80,85 68,78 80,78" />
<polygon fill="#7c7770" fill-opacity="0.501961" points="93,205 95,196 76,210" />
<polygon fill="#5a3214" fill-opacity="0.501961" points="21,242 30,243 18,245" />
<polygon fill="#374246" fill-opacity="0.501961" points="94,127 119,112 68,124" />
<polygon fill="#818486" fill-opacity="0.501961" points="42,135 29,163 12,147" />
<polygon fill="#646b6c" fill-opacity="0.501961" points="29,69 46,69 31,55" />
<polygon fill="#8a5242" fill-opacity="0.501961" points="62,153 47,154 50,150" />
<polygon fill="#706a6c" fill-opacity="0.501961" points="102,244 88,250 68,245" />
<polygon fill="#3e684b" fill-opacity="0.501961" points="11,5 20,3 10,11" />
<polygon fill="#53645f" fill-opacity="0.501961" points="64,90 75,96 65,98" />
<polygon fill="#022e2a" fill-opacity="0.501961" points="50,258 47,271 7,250" />
<polygon fill="#74221f" fill-opacity="0.501961" points="77,61 68,56 75,50" />
<polygon fill="#716750" fill-opacity="0.501961" points="83,39 86,51 81,57" />
<polygon fill="#3e3a37" fill-opacity="0.501961" points="88,237 93,244 94,236" />
<polygon fill="#7d6861" fill-opacity="0.501961" points="141,179 148,174 146,164" />
<polygon fill="#6f777f" fill-opacity="0.501961" points="22,126 23,113 26,128" />
<polygon fill="#7f7c75" fill-opacity="0.501961" points="48,75 61,75 65,85" />
<polygon fill="#664f4d" fill-opacity="0.501961" points="33,258 6,252 31,271" />
<polygon fill="#415049" fill-opacity="0.501961" points="27,33 25,38 26,42" />
<polygon fill="#8f7d5e" fill-opacity="0.501961" points="39,106 45,95 48,109" />
<polygon fill="#c5beab" fill-opacity="0.501961" points="138,106 128,137 128,120" />
<polygon fill="#aab2b5" fill-opacity="0.501961" points="98,46 86,68 94,33" />
<polygon fill="#005d64" fill-opacity="0.501961" points="38,252 35,271 30,252" />
<polygon fill="#944b3d" fill-opacity="0.501961" points="72,39 79,50 77,57" />
<polygon fill="#66655e" fill-opacity="0.501961" points="139,181 115,182 120,175" />
<polygon fill="#46332a" fill-opacity="0.501961" points="120,243 105,270 150,271" />
<polygon fill="#4c301e" fill-opacity="0.501961" points="57,127 47,133 33,118" />
<polygon fill="#d0c5b4" fill-opacity="0.501961" points="119,98 142,63 142,116" />
<polygon fill="#3b3e3f" fill-opacity="0.501961" points="74,128 79,135 67,134" />
<polygon fill="#4e5e5b" fill-opacity="0.501961" points="15,8 21,16 21,3" />
<polygon fill="#88a898" fill-opacity="0.501961" points="8,23 19,27 19,31" />
<polygon fill="#99a1a0" fill-opacity="0.501961" points="127,151 124,148 122,162" />
<polygon fill="#79878b" fill-opacity="0.501961" points="102,66 111,68 111,58" />
<polygon fill="#727a7a" fill-opacity="0.501961" points="21,67 13,61 13,55" />
<polygon fill="#3a4649" fill-opacity="0.501961" points="89,105 78,110 87,110" />
<polygon fill="#825538" fill-opacity="0.501961" points="48,136 52,135 46,139" />
<polygon fill="#21363f" fill-opacity="0.501961" points="28,73 13,76 14,71" />
<polygon fill="#747b7b" fill-opacity="0.501961" points="118,145 108,148 122,167" />
<polygon fill="#ffffff" fill-opacity="0.501961" points="29,53 27,52 28,52" />
<polygon fill="#788398" fill-opacity="0.501961" points="59,49 47,49 57,52" />
<polygon fill="#c6e3e4" fill-opacity="0.501961" points="20,60 22,64 15,64" />
<polygon fill="#6a452b" fill-opacity="0.501961" points="42,227 52,212 69,206" />
<polygon fill="#4e4f50" fill-opacity="0.501961" points="168,185 156,174 160,185" />
<polygon fill="#33393f" fill-opacity="0.501961" points="147,183 143,178 150,181" />
<polygon fill="#424b4d" fill-opacity="0.501961" points="105,126 117,120 122,123" />
<polygon fill="#706b65" fill-opacity="0.501961" points="101,178 87,171 80,174" />
<polygon fill="#83827b" fill-opacity="0.501961" points="107,172 149,206 161,196" />
<polygon fill="#5a463c" fill-opacity="0.501961" points="102,179 77,205 103,190" />
<polygon fill="#92dc9f" fill-opacity="0.501961" points="27,55 32,51 27,60" />
<polygon fill="#adc0c0" fill-opacity="0.501961" points="58,136 51,132 55,130" />
<polygon fill="#7b8087" fill-opacity="0.501961" points="66,222 105,227 52,237" />
<polygon fill="#7d6a52" fill-opacity="0.501961" points="48,120 63,111 31,118" />
<polygon fill="#1f241d" fill-opacity="0.501961" points="43,96 41,94 37,102" />
<polygon fill="#b0a491" fill-opacity="0.501961" points="149,137 168,144 193,93" />
<polygon fill="#4f4332" fill-opacity="0.501961" points="-3,160 7,158 9,153" />
<polygon fill="#a59f96" fill-opacity="0.501961" points="-9,90 17,76 33,85" />
<polygon fill="#4a4b48" fill-opacity="0.501961" points="36,32 32,43 33,31" />
<polygon fill="#745445" fill-opacity="0.501961" points="206,239 159,222 190,247" />
</g>
</svg>